<?xml version="1.0" encoding="UTF-8"?>
<svg xmlns="http://www.w3.org/2000/svg" xmlns:xlink="http://www.w3.org/1999/xlink" width="252pt" height="252pt" viewBox="0 0 252 252" version="1.1">
<g id="surface1">
<path style=" stroke:none;fill-rule:nonzero;fill:rgb(100%,89.411765%,0%);fill-opacity:1;" d="M 249.832031 125.175781 C 249.832031 193.550781 194.40625 249.007812 125.992188 249.007812 C 57.601562 249.007812 2.167969 193.550781 2.167969 125.175781 C 2.167969 56.769531 57.601562 1.335938 125.992188 1.335938 C 194.40625 1.335938 249.832031 56.769531 249.832031 125.175781 "/>
<path style="fill:none;stroke-width:0.07;stroke-linecap:butt;stroke-linejoin:miter;stroke:rgb(0%,42.352941%,72.941176%);stroke-opacity:1;stroke-miterlimit:4;" d="M 11.410936 5.755319 C 11.410936 8.879022 8.878681 11.411276 5.754978 11.411276 C 2.631275 11.411276 0.0990207 8.879022 0.0990207 5.755319 C 0.0990207 2.631616 2.631275 0.0993614 5.754978 0.0993614 C 8.878681 0.0993614 11.410936 2.631616 11.410936 5.755319 Z M 11.410936 5.755319 " transform="matrix(21.894088,0,0,21.894088,0,0.00425949)"/>
<path style=" stroke:none;fill-rule:nonzero;fill:rgb(0%,42.352941%,72.941176%);fill-opacity:1;" d="M 216.898438 127.5625 C 216.898438 178.117188 175.917969 219.097656 125.351562 219.097656 C 74.804688 219.097656 33.84375 178.117188 33.84375 127.5625 C 33.84375 77.003906 74.804688 36.042969 125.351562 36.042969 C 175.917969 36.042969 216.898438 77.003906 216.898438 127.5625 "/>
<path style=" stroke:none;fill-rule:nonzero;fill:rgb(0%,42.352941%,72.941176%);fill-opacity:1;" d="M 44.769531 54.574219 L 46.546875 55.886719 C 45.707031 56.417969 45 56.824219 44.351562 57.066406 C 43.828125 57.257812 43.25 57.421875 42.558594 57.523438 Z M 27.632812 65.074219 C 28.992188 64.351562 30.398438 63.769531 31.769531 63.320312 L 31.578125 61.375 C 30.332031 61.75 28.976562 62.289062 27.515625 63.070312 Z M 31.234375 69.773438 C 32.640625 69.042969 34.050781 68.4375 35.441406 67.957031 L 35.238281 65.914062 C 33.992188 66.285156 32.625 66.875 31.136719 67.671875 Z M 40.308594 76.667969 L 42.476562 75.878906 C 42.617188 75.664062 42.558594 75.421875 42.203125 75.148438 C 41.4375 72.824219 40.523438 70.496094 39.417969 68.128906 L 37.515625 68.363281 C 38.753906 71.136719 39.691406 73.921875 40.308594 76.667969 M 34.359375 56.21875 L 31.503906 60.054688 L 40.539062 66.777344 L 41.769531 65.15625 L 40.507812 64.199219 L 42.078125 63.984375 C 42.292969 62.878906 42.367188 61.976562 42.292969 61.242188 C 42.277344 60.902344 42.21875 60.527344 42.152344 60.113281 L 43.605469 61.175781 L 44.703125 59.722656 L 43.230469 58.644531 C 43.589844 58.609375 43.9375 58.542969 44.285156 58.460938 C 45.042969 58.320312 45.890625 57.988281 46.738281 57.589844 L 46.636719 55.984375 L 47.890625 56.90625 L 49.113281 55.289062 L 40.089844 48.542969 L 35.988281 54.015625 L 35.871094 53.167969 C 35.988281 52.730469 35.953125 52.445312 35.8125 52.347656 C 35.671875 52.246094 35.507812 52.3125 35.257812 52.613281 L 33.738281 53.964844 Z M 38.613281 62.8125 L 40.804688 59.882812 C 40.921875 60.652344 40.945312 61.234375 40.921875 61.71875 C 40.871094 62.464844 40.707031 63.269531 40.398438 64.144531 Z M 33.953125 59.339844 L 40.125 51.125 L 43.753906 53.800781 L 42.882812 54.972656 L 42.152344 53.898438 C 42.203125 53.578125 42.152344 53.367188 42.042969 53.300781 C 41.953125 53.226562 41.820312 53.300781 41.660156 53.46875 L 40.648438 54.421875 L 41.878906 56.300781 L 41.230469 57.15625 L 39.242188 55.6875 C 39.578125 55.046875 39.898438 54.421875 40.25 53.832031 C 40.339844 53.601562 40.449219 53.410156 40.539062 53.300781 L 40.90625 52.960938 C 40.980469 52.84375 40.996094 52.761719 40.964844 52.746094 C 40.871094 52.679688 40.78125 52.644531 40.707031 52.664062 L 39.109375 53.019531 C 38.496094 54.367188 37.890625 55.46875 37.382812 56.335938 C 36.84375 57.273438 36.105469 58.386719 35.214844 59.683594 L 36.949219 59.558594 C 37.441406 58.792969 37.890625 58.039062 38.355469 57.273438 L 40.15625 58.609375 L 39.460938 59.53125 C 38.976562 59.339844 38.421875 59.226562 37.789062 59.140625 L 37.226562 60.378906 C 37.699219 60.496094 38.148438 60.644531 38.519531 60.796875 L 37.582031 62.066406 Z M 41.710938 69.226562 L 45.449219 64.183594 C 45.632812 64.914062 45.632812 65.761719 45.492188 66.660156 C 45.367188 67.773438 44.769531 69.34375 43.722656 71.476562 L 45.957031 71.238281 C 46.710938 69.558594 47.1875 68.128906 47.410156 66.957031 C 47.734375 65.472656 47.71875 64.117188 47.308594 62.898438 L 47.308594 62.886719 C 48.390625 62.863281 49.386719 62.648438 50.359375 62.28125 C 51.789062 61.675781 53.191406 60.796875 54.6875 59.53125 L 54.320312 57.125 C 52.726562 58.644531 51.378906 59.640625 50.300781 60.179688 C 49.488281 60.644531 48.664062 60.902344 47.800781 61.042969 L 51.789062 55.734375 L 50.449219 54.746094 L 46.023438 60.730469 L 45.832031 60.460938 C 45.941406 59.996094 45.890625 59.722656 45.738281 59.605469 C 45.648438 59.53125 45.507812 59.625 45.292969 59.890625 L 43.753906 61.585938 C 44.121094 61.898438 44.425781 62.199219 44.652344 62.53125 L 40.414062 68.222656 Z M 41.710938 69.226562 "/>
<path style=" stroke:none;fill-rule:nonzero;fill:rgb(0%,42.352941%,72.941176%);fill-opacity:1;" d="M 60.535156 36.847656 L 64.746094 34.238281 L 65.660156 35.699219 L 61.433594 38.332031 Z M 66.117188 50.246094 L 68.09375 48.984375 L 62.328125 39.722656 L 68.527344 35.816406 L 64.148438 28.871094 L 55.957031 33.980469 L 56.832031 35.410156 Z M 58.816406 34.164062 L 63.050781 31.515625 L 63.898438 32.875 L 59.695312 35.550781 Z M 70.519531 34.59375 L 76.816406 30.640625 L 81.121094 37.519531 C 81.386719 37.933594 81.226562 38.332031 80.714844 38.707031 L 78.820312 39.960938 L 80.621094 41.167969 C 81.425781 40.660156 82.191406 40.054688 82.890625 39.355469 C 83.769531 38.476562 83.945312 37.585938 83.414062 36.789062 L 74.457031 22.425781 L 66.160156 27.625 Z M 70.71875 30.5 L 75.046875 27.800781 L 75.96875 29.269531 L 71.617188 31.953125 Z M 69.027344 27.800781 L 73.34375 25.074219 L 74.199219 26.453125 L 69.898438 29.171875 Z M 69.027344 27.800781 "/>
<path style=" stroke:none;fill-rule:nonzero;fill:rgb(0%,42.352941%,72.941176%);fill-opacity:1;" d="M 104.179688 14.296875 C 103.980469 14.3125 103.757812 14.394531 103.492188 14.527344 C 102.84375 14.84375 102.160156 15.101562 101.488281 15.402344 L 102.078125 18.640625 L 105.890625 17.953125 L 106.238281 19.738281 L 102.859375 20.359375 C 104.304688 22.039062 105.90625 23.492188 107.644531 24.648438 L 106.089844 26.367188 C 104.917969 25.363281 103.855469 24.363281 102.949219 23.351562 L 104.578125 32.273438 L 102.277344 32.679688 L 100.707031 24.148438 C 100.550781 24.65625 100.367188 25.121094 100.175781 25.503906 C 99.695312 26.699219 98.9375 27.988281 97.898438 29.347656 L 95.625 28.167969 C 96.730469 27 97.632812 25.792969 98.355469 24.546875 C 98.796875 23.773438 99.253906 22.5625 99.777344 20.925781 L 95.308594 21.722656 L 94.976562 19.921875 L 99.777344 19.066406 L 99.253906 16.28125 C 98.230469 16.648438 97.152344 17.011719 96.054688 17.34375 L 94.238281 15.816406 C 96.054688 15.410156 97.59375 14.976562 98.8125 14.480469 C 99.984375 14.082031 101.347656 13.457031 102.976562 12.667969 L 104.878906 13.730469 C 104.976562 13.78125 105.050781 13.890625 105.070312 14.023438 C 105.101562 14.148438 105.011719 14.238281 104.8125 14.273438 Z M 111.890625 11.039062 L 114.03125 10.832031 C 114.449219 10.726562 114.628906 10.792969 114.664062 10.972656 C 114.703125 11.074219 114.613281 11.265625 114.390625 11.539062 L 116.316406 22.1875 L 118.699219 21.074219 L 119.050781 22.953125 L 116.65625 24.03125 L 117.703125 29.890625 L 115.394531 30.289062 L 114.449219 25.019531 L 109.261719 27.347656 C 109.097656 27.863281 108.90625 28.136719 108.691406 28.1875 C 108.542969 28.210938 108.382812 28.101562 108.285156 27.886719 L 107.085938 26.066406 C 109.445312 25.179688 111.789062 24.25 114.125 23.226562 Z M 107.535156 13.839844 C 108.863281 14.296875 110.195312 14.863281 111.507812 15.601562 L 110.101562 17.179688 C 108.75 16.363281 107.496094 15.742188 106.28125 15.292969 Z M 108.183594 19.207031 C 109.445312 19.664062 110.726562 20.285156 111.964844 21.058594 L 110.585938 22.621094 C 109.320312 21.796875 108.074219 21.117188 106.9375 20.675781 Z M 108.183594 19.207031 "/>
<path style=" stroke:none;fill-rule:nonzero;fill:rgb(0%,42.352941%,72.941176%);fill-opacity:1;" d="M 155.148438 24.0625 C 154.003906 25.800781 152.847656 27.046875 151.695312 27.851562 L 151.277344 28.117188 C 151.046875 27.851562 150.847656 27.601562 150.65625 27.355469 C 149.707031 26.183594 149.125 24.730469 148.917969 23.007812 Z M 135.867188 16.789062 L 139.273438 17.367188 L 138.542969 21.722656 C 137.140625 21.921875 135.734375 22.054688 134.367188 22.144531 L 134.855469 24.246094 C 134.914062 24.511719 135.03125 24.628906 135.144531 24.652344 C 135.371094 24.710938 135.628906 24.511719 135.976562 24.082031 L 138.195312 23.691406 L 137.488281 27.953125 C 137.378906 28.589844 136.933594 28.816406 136.242188 28.707031 L 134.332031 28.382812 L 134.914062 30.503906 C 136.847656 30.824219 138.070312 30.824219 138.59375 30.46875 C 139.226562 30.152344 139.625 29.5625 139.75 28.667969 L 140.652344 23.242188 L 143.351562 22.785156 L 143.660156 20.890625 C 142.765625 21.074219 141.851562 21.238281 140.953125 21.390625 L 141.582031 17.765625 L 144.101562 18.148438 L 144.417969 16.28125 L 141.90625 15.847656 L 142.414062 12.691406 C 142.8125 12.527344 143.03125 12.351562 143.046875 12.160156 C 143.070312 12.019531 142.9375 11.925781 142.671875 11.835938 L 140.289062 11.203125 L 139.574219 15.484375 L 136.191406 14.917969 Z M 145.628906 17.699219 L 151.152344 18.605469 L 150.65625 21.503906 L 145.53125 20.683594 L 145.238281 22.410156 L 146.875 22.683594 C 147.089844 24.84375 147.648438 26.597656 148.613281 27.984375 C 148.835938 28.316406 149.078125 28.648438 149.367188 29.007812 C 148.644531 29.273438 147.832031 29.488281 146.917969 29.636719 C 145.722656 29.855469 144.101562 29.953125 142.140625 29.9375 L 143.351562 31.90625 C 146.371094 31.722656 148.835938 31.273438 150.773438 30.535156 C 151.917969 31.605469 153.304688 32.726562 155.042969 33.851562 L 157.117188 32.511719 C 155.375 31.507812 153.929688 30.503906 152.796875 29.539062 C 154.417969 28.558594 156.039062 26.878906 157.617188 24.546875 C 158.125 24.414062 158.390625 24.28125 158.390625 24.148438 C 158.429688 24.015625 158.371094 23.863281 158.265625 23.714844 L 157.210938 22.578125 C 157.066406 22.410156 156.894531 22.328125 156.753906 22.277344 C 156.753906 22.277344 156.519531 22.34375 156.203125 22.460938 L 152.996094 21.921875 L 153.464844 19.011719 L 158.703125 19.867188 L 158.96875 18.117188 L 153.761719 17.234375 L 154.234375 14.328125 C 154.542969 14.144531 154.726562 13.980469 154.742188 13.894531 C 154.777344 13.730469 154.601562 13.589844 154.203125 13.515625 L 152.074219 12.992188 L 151.445312 16.84375 L 145.9375 15.941406 Z M 145.628906 17.699219 "/>
<path style=" stroke:none;fill-rule:nonzero;fill:rgb(0%,42.352941%,72.941176%);fill-opacity:1;" d="M 176.546875 26.851562 L 185.1875 32.277344 L 185.441406 31.84375 L 187.386719 28.722656 C 187.621094 28.363281 187.859375 27.867188 188.101562 27.21875 L 190.121094 28.703125 C 190.503906 28.945312 190.636719 29.144531 190.527344 29.277344 C 190.417969 29.484375 190.121094 29.566406 189.679688 29.542969 L 187.453125 33.066406 L 187.15625 33.496094 L 195.496094 38.707031 L 194.480469 40.316406 L 186.40625 35.257812 C 185.851562 37.816406 185.832031 40.125 186.308594 42.179688 C 186.679688 44.347656 187.792969 46.738281 189.695312 49.289062 L 186.78125 49.929688 C 185.269531 47.554688 184.339844 44.984375 183.972656 42.246094 C 183.789062 40.675781 183.804688 38.980469 184.097656 37.078125 C 183.558594 37.527344 183.015625 37.925781 182.460938 38.265625 C 180.964844 39.15625 178.957031 39.667969 176.378906 39.828125 C 174.46875 39.96875 172.410156 39.894531 170.175781 39.570312 L 169.226562 37.019531 C 171.527344 37.433594 173.449219 37.632812 174.894531 37.632812 C 177.1875 37.617188 179.011719 37.320312 180.300781 36.6875 C 181.6875 36.023438 182.917969 35.050781 184.03125 33.796875 L 175.523438 28.472656 Z M 176.546875 26.851562 "/>
<path style=" stroke:none;fill-rule:nonzero;fill:rgb(0%,42.352941%,72.941176%);fill-opacity:1;" d="M 216.628906 54.171875 C 216.554688 54.078125 216.390625 53.945312 216.214844 53.832031 C 215.507812 53.300781 214.785156 52.617188 213.972656 51.902344 L 213.183594 52.492188 L 215.292969 55.234375 L 214.222656 56.066406 L 212.121094 53.332031 L 211.214844 54.011719 L 213.296875 56.769531 L 212.203125 57.59375 L 210.117188 54.851562 L 209.078125 55.648438 L 218.382812 67.792969 L 219.421875 66.988281 L 217.070312 63.914062 L 218.125 63.085938 L 220.476562 66.15625 L 221.421875 65.46875 L 219.082031 62.394531 L 220.152344 61.582031 L 222.460938 64.644531 L 223.464844 63.898438 L 221.097656 60.832031 L 222.355469 59.878906 L 225.992188 64.644531 L 219.652344 69.496094 L 220.660156 70.792969 L 217.226562 73.425781 L 215.875 71.640625 L 218.066406 69.945312 L 206.886719 55.382812 L 204.71875 57.0625 L 203.347656 55.285156 L 206.792969 52.667969 L 207.757812 53.945312 L 213.832031 49.285156 L 214.585938 50.292969 C 214.953125 50.65625 215.308594 50.988281 215.699219 51.332031 C 216.265625 51.777344 216.828125 52.175781 217.4375 52.460938 L 217.304688 54.328125 C 217.304688 54.496094 217.226562 54.628906 217.121094 54.753906 C 217.027344 54.820312 216.9375 54.785156 216.863281 54.6875 Z M 221.375 58.042969 L 221.773438 59.378906 C 221.804688 59.527344 221.804688 59.628906 221.753906 59.652344 C 221.640625 59.777344 221.449219 59.726562 221.207031 59.5625 C 220.585938 59.378906 220.019531 59.222656 219.511719 59.054688 C 219.578125 59.746094 219.652344 60.460938 219.679688 61.117188 L 218.324219 60.742188 C 218.265625 59.996094 218.199219 59.238281 218.125 58.507812 C 217.4375 58.226562 216.628906 57.816406 215.714844 57.351562 L 215.78125 55.882812 C 216.554688 56.324219 217.226562 56.671875 217.875 56.953125 C 217.726562 56.15625 217.570312 55.402344 217.359375 54.6875 L 218.722656 55.035156 C 218.9375 55.847656 219.113281 56.671875 219.246094 57.503906 C 219.902344 57.742188 220.617188 57.910156 221.375 58.042969 M 218.125 60.742188 L 218.492188 62.128906 C 218.558594 62.277344 218.558594 62.378906 218.507812 62.410156 C 218.382812 62.496094 218.199219 62.460938 218 62.285156 C 217.359375 62.128906 216.828125 61.945312 216.324219 61.78125 C 216.355469 62.394531 216.371094 63.035156 216.390625 63.632812 L 215.019531 63.277344 C 215.019531 62.585938 214.984375 61.898438 214.910156 61.207031 C 214.222656 60.898438 213.414062 60.492188 212.492188 59.960938 L 212.558594 58.492188 C 213.367188 59.003906 214.105469 59.339844 214.785156 59.652344 C 214.660156 58.847656 214.511719 58.042969 214.347656 57.238281 L 215.714844 57.617188 C 215.898438 58.472656 216.066406 59.339844 216.132812 60.261719 C 216.769531 60.460938 217.4375 60.625 218.125 60.742188 M 214.511719 66.738281 C 214.644531 66.90625 214.703125 67.105469 214.703125 67.296875 L 214.925781 68.601562 C 214.953125 68.765625 214.953125 68.867188 214.878906 68.914062 C 214.71875 69.007812 214.496094 69 214.121094 68.867188 L 209.769531 66.921875 L 209.628906 67.054688 L 215.308594 74.488281 L 213.988281 75.503906 L 208.304688 68.058594 L 207.269531 68.867188 C 206.460938 69.449219 205.773438 69.539062 205.117188 69.089844 C 204.652344 68.792969 203.6875 67.703125 202.21875 65.785156 L 203.148438 64.148438 C 204.359375 65.742188 205.042969 66.640625 205.273438 66.855469 C 205.53125 67.121094 205.730469 67.195312 205.90625 67.089844 L 206.9375 66.28125 L 200.546875 57.933594 L 201.859375 56.9375 L 208.257812 65.269531 L 209.210938 64.53125 L 209.75 65.300781 L 211.6875 65.910156 L 206.871094 59.613281 L 208.117188 58.671875 L 214.070312 66.414062 Z M 214.511719 66.738281 "/>
<path style="fill:none;stroke-width:0.07;stroke-linecap:butt;stroke-linejoin:miter;stroke:rgb(100%,89.411765%,0%);stroke-opacity:1;stroke-miterlimit:4;" d="M 6.078803 3.122081 C 6.078803 2.483174 5.926614 1.965233 5.739099 1.965233 C 5.551584 1.965233 5.399574 2.483174 5.399574 3.122081 C 5.399574 3.760988 5.551584 4.278929 5.739099 4.278929 C 5.926614 4.278929 6.078803 3.760988 6.078803 3.122081 Z M 6.078803 3.122081 " transform="matrix(21.894088,0,0,21.894088,0,0.00425949)"/>
<path style="fill:none;stroke-width:0.07;stroke-linecap:butt;stroke-linejoin:miter;stroke:rgb(100%,89.411765%,0%);stroke-opacity:1;stroke-miterlimit:4;" d="M 6.078726 3.121546 C 6.078717 2.482893 5.92661 1.965081 5.738941 1.965086 C 5.551425 1.96518 5.399122 2.482936 5.399285 3.121678 C 5.399295 3.760331 5.551401 4.278142 5.73907 4.278138 C 5.926586 4.278043 6.078645 3.760352 6.078726 3.121546 Z M 6.078726 3.121546 " transform="matrix(11.052046,18.899824,-18.899824,11.052046,121.220553,-74.616785)"/>
<path style="fill:none;stroke-width:0.07;stroke-linecap:butt;stroke-linejoin:miter;stroke:rgb(100%,89.411765%,0%);stroke-opacity:1;stroke-miterlimit:4;" d="M 6.07989 3.121877 C 6.079898 2.482439 5.927576 1.9643 5.739827 1.964301 C 5.552077 1.964302 5.399978 2.482611 5.400032 3.121804 C 5.399932 3.761089 5.552192 4.279473 5.739942 4.279472 C 5.927691 4.279471 6.07979 3.761163 6.07989 3.121877 Z M 6.07989 3.121877 " transform="matrix(-11.276758,18.766614,-18.766614,-11.276758,248.984451,-4.159915)"/>
<path style=" stroke:none;fill-rule:nonzero;fill:rgb(100%,89.411765%,0%);fill-opacity:1;" d="M 127.238281 68.328125 C 127.238281 69.222656 126.542969 69.914062 125.667969 69.914062 C 124.789062 69.914062 124.082031 69.222656 124.082031 68.328125 C 124.082031 67.460938 124.789062 66.773438 125.667969 66.773438 C 126.542969 66.773438 127.238281 67.460938 127.238281 68.328125 "/>
<path style="fill-rule:nonzero;fill:rgb(0%,42.352941%,72.941176%);fill-opacity:1;stroke-width:0.005;stroke-linecap:butt;stroke-linejoin:miter;stroke:rgb(0%,42.352941%,72.941176%);stroke-opacity:1;stroke-miterlimit:4;" d="M 0.537567 4.65717 L 0.568611 4.562253 L 0.965051 4.685538 L 0.611966 4.419699 L 0.628202 4.366531 L 1.067283 4.358145 L 0.670665 4.233789 L 0.692788 4.162423 L 1.384328 4.37902 L 1.35935 4.456452 L 0.801622 4.471261 L 1.250516 4.80579 L 1.229284 4.873053 Z M 0.537567 4.65717 " transform="matrix(21.894088,0,0,21.894088,0,0.00425949)"/>
<path style="fill-rule:nonzero;fill:rgb(0%,42.352941%,72.941176%);fill-opacity:1;stroke-width:0.005;stroke-linecap:butt;stroke-linejoin:miter;stroke:rgb(0%,42.352941%,72.941176%);stroke-opacity:1;stroke-miterlimit:4;" d="M 0.74774 5.028453 L 1.001983 5.127474 L 0.728828 5.14139 Z M 1.168623 5.217752 L 1.184502 5.116769 L 0.496531 4.838619 L 0.482615 4.927113 L 0.647292 4.990451 L 0.621422 5.147456 L 0.444255 5.153523 L 0.427127 5.263605 Z M 1.168623 5.217752 " transform="matrix(21.894088,0,0,21.894088,0,0.00425949)"/>
<path style="fill-rule:nonzero;fill:rgb(0%,42.352941%,72.941176%);fill-opacity:1;stroke-width:0.005;stroke-linecap:butt;stroke-linejoin:miter;stroke:rgb(0%,42.352941%,72.941176%);stroke-opacity:1;stroke-miterlimit:4;" d="M 0.52936 5.756746 C 0.52258 5.747647 0.516157 5.733731 0.510804 5.716603 C 0.504024 5.698761 0.501348 5.678243 0.502062 5.654336 C 0.504024 5.617939 0.52597 5.590641 0.568789 5.5728 C 0.611252 5.553174 0.674768 5.546216 0.761657 5.549962 L 0.771827 5.550498 C 0.853362 5.553174 0.915986 5.56709 0.961126 5.591355 C 1.005908 5.615263 1.027139 5.646128 1.026426 5.685915 C 1.025712 5.70679 1.021073 5.725345 1.015007 5.740154 C 1.008584 5.755319 1.001804 5.767808 0.994489 5.777264 L 1.107605 5.781903 C 1.11599 5.772804 1.122057 5.759066 1.12848 5.740154 C 1.13294 5.722312 1.136865 5.700367 1.138292 5.673426 C 1.140612 5.610445 1.109032 5.556207 1.044981 5.511781 C 0.98093 5.466999 0.894398 5.442735 0.785921 5.438809 L 0.757018 5.437382 C 0.640156 5.43203 0.550948 5.448801 0.488681 5.486982 C 0.426949 5.52659 0.393585 5.577438 0.391266 5.642203 C 0.391266 5.66843 0.393585 5.691981 0.398402 5.711607 C 0.406074 5.732482 0.411784 5.745506 0.419277 5.752643 Z M 0.52936 5.756746 " transform="matrix(21.894088,0,0,21.894088,0,0.00425949)"/>
<path style="fill-rule:nonzero;fill:rgb(0%,42.352941%,72.941176%);fill-opacity:1;stroke-width:0.005;stroke-linecap:butt;stroke-linejoin:miter;stroke:rgb(0%,42.352941%,72.941176%);stroke-opacity:1;stroke-miterlimit:4;" d="M 0.690291 6.038643 L 0.960412 6.070044 L 0.700103 6.153186 Z M 1.143645 6.116789 L 1.135438 6.015092 L 0.398581 5.916428 L 0.406966 6.005993 L 0.582527 6.027938 L 0.596979 6.184766 L 0.426949 6.235079 L 0.438011 6.346767 Z M 1.143645 6.116789 " transform="matrix(21.894088,0,0,21.894088,0,0.00425949)"/>
<path style="fill-rule:nonzero;fill:rgb(0%,42.352941%,72.941176%);fill-opacity:1;stroke-width:0.005;stroke-linecap:butt;stroke-linejoin:miter;stroke:rgb(0%,42.352941%,72.941176%);stroke-opacity:1;stroke-miterlimit:4;" d="M 1.252657 6.706988 L 1.234459 6.628486 L 0.743458 6.741244 C 0.700282 6.751414 0.666918 6.75302 0.647114 6.742672 C 0.626953 6.734821 0.613393 6.71698 0.607327 6.690039 C 0.600726 6.661136 0.606078 6.638834 0.622849 6.622419 C 0.638728 6.607254 0.666918 6.595122 0.704385 6.586023 L 1.198419 6.472907 L 1.174511 6.367106 L 0.700282 6.475583 C 0.621244 6.493782 0.564686 6.520722 0.530608 6.556406 C 0.495282 6.593159 0.485469 6.642224 0.500278 6.703242 C 0.513481 6.760513 0.542027 6.798516 0.586096 6.816714 C 0.629272 6.835626 0.684581 6.837589 0.752201 6.822067 Z M 1.252657 6.706988 " transform="matrix(21.894088,0,0,21.894088,0,0.00425949)"/>
<path style="fill-rule:nonzero;fill:rgb(0%,42.352941%,72.941176%);fill-opacity:1;stroke-width:0.005;stroke-linecap:butt;stroke-linejoin:miter;stroke:rgb(0%,42.352941%,72.941176%);stroke-opacity:1;stroke-miterlimit:4;" d="M 0.967727 7.572305 C 0.902427 7.590146 0.847832 7.590146 0.801444 7.572305 C 0.758267 7.555891 0.72865 7.519137 0.713485 7.462579 C 0.697962 7.401026 0.705099 7.352853 0.738463 7.315743 C 0.77147 7.278097 0.827671 7.249372 0.905817 7.227784 L 1.376656 7.10432 L 1.403953 7.209586 L 0.914202 7.338937 C 0.877092 7.34875 0.848902 7.361953 0.83338 7.37801 C 0.817858 7.39496 0.813219 7.417797 0.820177 7.445451 C 0.827671 7.472035 0.841052 7.48952 0.861926 7.497905 C 0.881195 7.506291 0.914202 7.504328 0.957914 7.493267 L 1.446238 7.363558 L 1.465864 7.442061 Z M 0.967727 7.572305 " transform="matrix(21.894088,0,0,21.894088,0,0.00425949)"/>
<path style="fill-rule:nonzero;fill:rgb(0%,42.352941%,72.941176%);fill-opacity:1;stroke-width:0.005;stroke-linecap:butt;stroke-linejoin:miter;stroke:rgb(0%,42.352941%,72.941176%);stroke-opacity:1;stroke-miterlimit:4;" d="M 1.662478 7.911116 L 1.63179 7.83975 L 1.240168 8.013527 L 1.539549 7.630647 L 1.515285 7.576408 L 0.853541 7.869367 L 0.885121 7.940198 L 1.301186 7.756251 L 0.981822 8.161077 L 1.001091 8.203183 Z M 1.662478 7.911116 " transform="matrix(21.894088,0,0,21.894088,0,0.00425949)"/>
<path style="fill-rule:nonzero;fill:rgb(0%,42.352941%,72.941176%);fill-opacity:1;stroke-width:0.005;stroke-linecap:butt;stroke-linejoin:miter;stroke:rgb(0%,42.352941%,72.941176%);stroke-opacity:1;stroke-miterlimit:4;" d="M 1.397203 7.910269 L 1.505442 7.910263 L 1.505427 8.634913 L 1.397189 8.634919 Z M 1.397203 7.910269 " transform="matrix(10.970112,18.947499,-18.947499,10.970112,172.599206,62.874955)"/>
<path style="fill-rule:nonzero;fill:rgb(0%,42.352941%,72.941176%);fill-opacity:1;stroke-width:0.005;stroke-linecap:butt;stroke-linejoin:miter;stroke:rgb(0%,42.352941%,72.941176%);stroke-opacity:1;stroke-miterlimit:4;" d="M 2.075154 8.567151 L 1.38629 8.845123 L 1.334193 8.770723 L 1.840358 8.227804 L 1.907978 8.325398 L 1.555428 8.693469 L 2.024305 8.494536 Z M 2.075154 8.567151 " transform="matrix(21.894088,0,0,21.894088,0,0.00425949)"/>
<path style="fill-rule:nonzero;fill:rgb(0%,42.352941%,72.941176%);fill-opacity:1;stroke-width:0.005;stroke-linecap:butt;stroke-linejoin:miter;stroke:rgb(0%,42.352941%,72.941176%);stroke-opacity:1;stroke-miterlimit:4;" d="M 1.767743 9.325418 L 1.569523 9.090801 L 2.120828 8.622995 L 2.311376 8.846907 L 2.228234 8.916667 L 2.109231 8.775184 L 1.961146 8.901145 L 2.053387 9.010514 L 1.970245 9.081702 L 1.876934 8.972512 L 1.721712 9.104182 L 1.85035 9.255479 Z M 1.767743 9.325418 " transform="matrix(21.894088,0,0,21.894088,0,0.00425949)"/>
<path style=" stroke:none;fill-rule:nonzero;fill:rgb(0%,42.352941%,72.941176%);fill-opacity:1;" d="M 51.121094 202.726562 C 50.738281 202.777344 50.339844 202.609375 49.925781 202.210938 L 49.46875 201.765625 L 52.417969 198.757812 L 52.972656 199.289062 C 53.3125 199.636719 53.464844 199.976562 53.414062 200.367188 C 53.390625 200.742188 53.121094 201.175781 52.683594 201.679688 L 52.351562 201.980469 C 51.910156 202.410156 51.511719 202.667969 51.121094 202.726562 M 50.097656 207.179688 C 50.679688 205.976562 50.8125 204.960938 50.480469 204.097656 C 51.046875 204.554688 51.703125 204.703125 52.332031 204.578125 C 53.007812 204.429688 53.621094 204.046875 54.261719 203.390625 L 54.867188 202.777344 C 55.539062 202.097656 55.957031 201.375 56.113281 200.59375 C 56.261719 199.828125 55.972656 199.089844 55.25 198.375 L 52.265625 195.484375 L 41.21875 206.824219 L 42.921875 208.492188 L 47.875 203.390625 L 48.261719 203.773438 C 48.769531 204.246094 48.710938 204.988281 48.171875 205.976562 C 47.617188 206.972656 46.46875 208.402344 44.707031 210.261719 L 46.402344 211.898438 C 48.261719 209.964844 49.527344 208.394531 50.097656 207.179688 "/>
<path style="fill:none;stroke-width:0.005;stroke-linecap:butt;stroke-linejoin:miter;stroke:rgb(0%,42.352941%,72.941176%);stroke-opacity:1;stroke-miterlimit:4;" d="M 2.334927 9.259226 C 2.317442 9.261545 2.299244 9.253873 2.280332 9.235675 L 2.259457 9.215335 L 2.394161 9.077955 L 2.419496 9.10222 C 2.435018 9.118099 2.441976 9.133621 2.439657 9.151463 C 2.438586 9.16859 2.426276 9.188395 2.406293 9.21141 L 2.391128 9.225148 C 2.370967 9.244774 2.352768 9.256549 2.334927 9.259226 Z M 2.288182 9.46262 C 2.314766 9.407668 2.320832 9.361279 2.305667 9.32185 C 2.331537 9.342724 2.361511 9.349504 2.390236 9.343795 C 2.421102 9.337015 2.449113 9.31953 2.478373 9.289556 L 2.506028 9.261545 C 2.536715 9.230501 2.555806 9.197494 2.562942 9.161811 C 2.569722 9.126841 2.556519 9.093121 2.523512 9.060471 L 2.387203 8.928443 L 1.882643 9.446384 L 1.960432 9.522567 L 2.186663 9.289556 L 2.204327 9.307041 C 2.227521 9.328629 2.224844 9.362528 2.200223 9.407668 C 2.174888 9.453164 2.122434 9.518464 2.041968 9.60339 L 2.119401 9.678146 C 2.204327 9.58983 2.262133 9.518107 2.288182 9.46262 Z M 2.288182 9.46262 " transform="matrix(21.894088,0,0,21.894088,0,0.00425949)"/>
<path style=" stroke:none;fill-rule:nonzero;fill:rgb(0%,42.352941%,72.941176%);fill-opacity:1;" d="M 58.585938 212.199219 C 58.785156 211.316406 58.660156 210.378906 58.234375 209.375 C 57.820312 208.300781 57.582031 207.578125 57.605469 207.222656 C 57.621094 206.863281 57.820312 206.472656 58.144531 206.027344 C 58.453125 205.691406 58.785156 205.484375 59.191406 205.417969 C 59.605469 205.371094 60.054688 205.550781 60.554688 205.933594 C 60.902344 206.234375 61.183594 206.546875 61.433594 206.871094 C 61.652344 207.203125 61.882812 207.570312 62.105469 207.917969 L 63.621094 206.082031 C 63.570312 205.875 63.363281 205.570312 63.085938 205.152344 C 62.820312 204.753906 62.457031 204.355469 61.992188 203.972656 C 61.035156 203.21875 60.023438 202.925781 58.96875 203.144531 C 57.894531 203.367188 56.964844 203.933594 56.191406 204.878906 C 55.386719 205.875 54.945312 206.796875 54.789062 207.636719 C 54.679688 208.476562 54.738281 209.324219 55.0625 210.210938 C 55.453125 211.285156 55.613281 212.015625 55.5625 212.421875 C 55.488281 212.855469 55.320312 213.234375 55.023438 213.585938 C 54.582031 214.132812 54.140625 214.464844 53.691406 214.515625 C 53.253906 214.574219 52.785156 214.347656 52.171875 213.867188 C 51.730469 213.519531 51.359375 213.078125 51.050781 212.5625 C 50.761719 212.039062 50.550781 211.609375 50.535156 211.25 L 48.78125 213.367188 C 48.941406 213.734375 49.171875 214.132812 49.480469 214.574219 C 49.828125 215.003906 50.277344 215.453125 50.867188 215.925781 C 51.890625 216.765625 52.945312 217.105469 54.042969 216.972656 C 55.121094 216.808594 56.191406 216.078125 57.238281 214.789062 C 57.945312 213.917969 58.394531 213.054688 58.585938 212.199219 "/>
<path style="fill:none;stroke-width:0.005;stroke-linecap:butt;stroke-linejoin:miter;stroke:rgb(0%,42.352941%,72.941176%);stroke-opacity:1;stroke-miterlimit:4;" d="M 2.675879 9.691884 C 2.684979 9.651562 2.679269 9.608742 2.659822 9.562889 C 2.64091 9.513825 2.630026 9.480818 2.631097 9.464582 C 2.631811 9.448168 2.64091 9.430326 2.655718 9.409987 C 2.669813 9.394643 2.684979 9.385187 2.703534 9.382154 C 2.722446 9.380013 2.742964 9.38822 2.765801 9.405705 C 2.78168 9.419443 2.794526 9.433716 2.805944 9.448525 C 2.815936 9.46369 2.826462 9.480461 2.836632 9.49634 L 2.905857 9.412485 C 2.903538 9.403029 2.894082 9.389112 2.881414 9.370022 C 2.869282 9.351823 2.852689 9.333625 2.831458 9.31614 C 2.787746 9.281706 2.741536 9.268325 2.693364 9.278316 C 2.6443 9.288486 2.601837 9.314356 2.56651 9.357533 C 2.529757 9.403029 2.509596 9.445135 2.502459 9.483494 C 2.497464 9.521854 2.50014 9.56057 2.514948 9.60107 C 2.53279 9.650135 2.540105 9.683498 2.537786 9.702054 C 2.534396 9.721858 2.526724 9.739164 2.513164 9.755221 C 2.493003 9.7802 2.472842 9.795365 2.452324 9.797684 C 2.432342 9.800361 2.410932 9.790013 2.382921 9.768067 C 2.36276 9.752188 2.34581 9.732027 2.331715 9.708477 C 2.318513 9.684569 2.308878 9.664943 2.308164 9.648529 L 2.228056 9.74523 C 2.235371 9.762001 2.245897 9.7802 2.259992 9.800361 C 2.275871 9.819986 2.296389 9.840504 2.32333 9.862092 C 2.370075 9.900452 2.418247 9.915974 2.468382 9.909908 C 2.517625 9.902414 2.56651 9.869051 2.614326 9.810173 C 2.646619 9.770387 2.667137 9.730957 2.675879 9.691884 Z M 2.675879 9.691884 " transform="matrix(21.894088,0,0,21.894088,0,0.00425949)"/>
<path style="fill-rule:nonzero;fill:rgb(0%,42.352941%,72.941176%);fill-opacity:1;stroke-width:0.005;stroke-linecap:butt;stroke-linejoin:miter;stroke:rgb(0%,42.352941%,72.941176%);stroke-opacity:1;stroke-miterlimit:4;" d="M 2.820056 9.454326 L 2.92905 9.454328 L 2.928986 10.178088 L 2.82024 10.17813 Z M 2.820056 9.454326 " transform="matrix(17.919678,12.579198,-12.579198,17.919678,134.90507,2.857471)"/>
<path style="fill-rule:nonzero;fill:rgb(0%,42.352941%,72.941176%);fill-opacity:1;stroke-width:0.005;stroke-linecap:butt;stroke-linejoin:miter;stroke:rgb(0%,42.352941%,72.941176%);stroke-opacity:1;stroke-miterlimit:4;" d="M 3.435752 9.874046 L 3.347079 9.818737 L 3.024147 10.344529 L 2.931906 10.288149 L 3.253233 9.762893 L 3.162597 9.705622 L 3.218442 9.614273 L 3.49231 9.782341 Z M 3.435752 9.874046 " transform="matrix(21.894088,0,0,21.894088,0,0.00425949)"/>
<path style="fill-rule:nonzero;fill:rgb(0%,42.352941%,72.941176%);fill-opacity:1;stroke-width:0.005;stroke-linecap:butt;stroke-linejoin:miter;stroke:rgb(0%,42.352941%,72.941176%);stroke-opacity:1;stroke-miterlimit:4;" d="M 3.910695 10.002327 L 3.576522 10.299746 L 3.436822 10.57183 L 3.340478 10.523301 L 3.473219 10.263706 L 3.526387 9.803929 L 3.639146 9.861914 L 3.6015 10.170038 L 3.834154 9.962184 Z M 3.910695 10.002327 " transform="matrix(21.894088,0,0,21.894088,0,0.00425949)"/>
<path style=" stroke:none;fill-rule:nonzero;fill:rgb(0%,42.352941%,72.941176%);fill-opacity:1;" d="M 93.246094 235.171875 C 92.742188 235.925781 92.109375 236.191406 91.476562 235.992188 C 90.679688 235.753906 90.273438 235.203125 90.273438 234.371094 C 90.316406 233.515625 90.640625 232.046875 91.253906 229.980469 L 91.378906 229.613281 C 91.992188 227.542969 92.558594 226.140625 93.007812 225.402344 C 93.523438 224.6875 94.128906 224.421875 94.867188 224.652344 C 95.699219 224.902344 96.054688 225.5 96.003906 226.464844 C 95.945312 227.421875 95.640625 228.855469 95.074219 230.71875 L 94.960938 231.117188 C 94.378906 233.070312 93.804688 234.421875 93.246094 235.171875 M 97.441406 231.214844 C 98.082031 229.046875 98.273438 227.152344 98.007812 225.542969 C 97.75 223.9375 96.929688 222.917969 95.574219 222.519531 C 94.210938 222.09375 92.941406 222.484375 91.820312 223.65625 C 90.6875 224.820312 89.785156 226.515625 89.128906 228.707031 L 88.871094 229.597656 C 88.179688 231.949219 87.988281 233.851562 88.371094 235.363281 C 88.761719 236.847656 89.585938 237.777344 90.804688 238.160156 C 92.066406 238.511719 93.246094 238.210938 94.394531 237.171875 C 95.539062 236.140625 96.453125 234.421875 97.210938 232.039062 Z M 97.441406 231.214844 "/>
<path style="fill:none;stroke-width:0.005;stroke-linecap:butt;stroke-linejoin:miter;stroke:rgb(0%,42.352941%,72.941176%);stroke-opacity:1;stroke-miterlimit:4;" d="M 4.258962 10.741147 C 4.235947 10.775581 4.207043 10.787713 4.17814 10.778614 C 4.141743 10.767731 4.123188 10.742574 4.123188 10.704572 C 4.12515 10.665499 4.139959 10.598414 4.16797 10.504032 L 4.173679 10.487261 C 4.201691 10.392701 4.227561 10.32865 4.248079 10.294929 C 4.27163 10.262279 4.299284 10.250147 4.333005 10.260673 C 4.371007 10.272092 4.387243 10.299389 4.384924 10.343458 C 4.382247 10.38717 4.368331 10.452649 4.342461 10.537753 L 4.337287 10.555951 C 4.310703 10.645159 4.284476 10.706891 4.258962 10.741147 Z M 4.450581 10.560412 C 4.479841 10.461391 4.488583 10.374859 4.476451 10.301352 C 4.464676 10.228023 4.427208 10.181457 4.365298 10.163258 C 4.303031 10.143811 4.245046 10.161652 4.19384 10.215177 C 4.1421 10.268345 4.100886 10.345778 4.070912 10.445869 L 4.059137 10.486548 C 4.027557 10.593954 4.018815 10.680842 4.036299 10.749889 C 4.054141 10.817687 4.091787 10.86015 4.147452 10.877635 C 4.205081 10.893692 4.258962 10.879954 4.311416 10.832496 C 4.363692 10.785394 4.405442 10.706891 4.440054 10.598057 Z M 4.450581 10.560412 " transform="matrix(21.894088,0,0,21.894088,0,0.00425949)"/>
<path style="fill-rule:nonzero;fill:rgb(0%,42.352941%,72.941176%);fill-opacity:1;stroke-width:0.005;stroke-linecap:butt;stroke-linejoin:miter;stroke:rgb(0%,42.352941%,72.941176%);stroke-opacity:1;stroke-miterlimit:4;" d="M 4.942294 10.417144 L 4.761024 10.382174 L 4.724092 10.573793 L 4.863792 10.601447 L 4.843274 10.708497 L 4.703217 10.680842 L 4.64327 10.986647 L 4.536399 10.966843 L 4.674136 10.256213 L 4.963169 10.312057 Z M 4.942294 10.417144 " transform="matrix(21.894088,0,0,21.894088,0,0.00425949)"/>
<path style=" stroke:none;fill-rule:nonzero;fill:rgb(0%,42.352941%,72.941176%);fill-opacity:1;" d="M 121.746094 238.210938 C 121.613281 239.878906 121.183594 241.101562 120.394531 241.847656 C 119.585938 242.605469 118.53125 242.917969 117.203125 242.835938 C 116.429688 242.785156 115.78125 242.6875 115.308594 242.519531 C 114.769531 242.347656 114.335938 242.15625 114.03125 241.929688 L 114.1875 239.214844 C 114.445312 239.480469 114.871094 239.730469 115.390625 239.996094 C 115.957031 240.210938 116.523438 240.359375 117.054688 240.402344 C 117.816406 240.453125 118.375 240.328125 118.683594 240.027344 C 118.988281 239.746094 119.164062 239.238281 119.222656 238.515625 C 119.28125 238.058594 119.164062 237.644531 118.988281 237.277344 C 118.808594 236.898438 118.234375 236.390625 117.292969 235.734375 C 116.523438 235.203125 115.957031 234.578125 115.582031 233.796875 C 115.21875 233.035156 115.042969 232.011719 115.144531 230.75 C 115.21875 229.519531 115.632812 228.539062 116.378906 227.734375 C 117.105469 226.929688 118.109375 226.585938 119.320312 226.664062 C 119.917969 226.6875 120.453125 226.8125 120.910156 226.96875 C 121.375 227.136719 121.6875 227.308594 121.855469 227.425781 L 121.746094 229.792969 C 121.324219 229.628906 120.941406 229.46875 120.550781 229.335938 C 120.175781 229.195312 119.738281 229.113281 119.296875 229.113281 C 118.664062 229.046875 118.199219 229.179688 117.890625 229.445312 C 117.585938 229.726562 117.417969 230.09375 117.402344 230.558594 C 117.371094 231.113281 117.425781 231.546875 117.636719 231.828125 C 117.816406 232.136719 118.425781 232.601562 119.40625 233.226562 C 120.328125 233.796875 120.957031 234.511719 121.324219 235.300781 C 121.664062 236.140625 121.820312 237.105469 121.746094 238.210938 "/>
<path style="fill:none;stroke-width:0.005;stroke-linecap:butt;stroke-linejoin:miter;stroke:rgb(0%,42.352941%,72.941176%);stroke-opacity:1;stroke-miterlimit:4;" d="M 5.560683 10.879954 C 5.554617 10.956138 5.534992 11.011982 5.498952 11.046059 C 5.46202 11.080672 5.413847 11.094945 5.353186 11.091199 C 5.31786 11.088879 5.288243 11.084419 5.266654 11.076747 C 5.242033 11.068897 5.222229 11.060154 5.208312 11.049806 L 5.215449 10.925807 C 5.227224 10.937939 5.246672 10.949358 5.270401 10.96149 C 5.296271 10.971303 5.322142 10.978083 5.346406 10.980046 C 5.381197 10.982365 5.406711 10.976656 5.420806 10.962918 C 5.434722 10.950072 5.442751 10.926878 5.445427 10.893871 C 5.448103 10.872996 5.442751 10.854084 5.434722 10.837313 C 5.426515 10.820007 5.400288 10.796813 5.35729 10.766839 C 5.322142 10.742574 5.296271 10.714028 5.279143 10.678344 C 5.262551 10.643553 5.254522 10.596808 5.259161 10.53918 C 5.262551 10.482979 5.281463 10.438197 5.31554 10.401443 C 5.348726 10.36469 5.394578 10.348989 5.449887 10.352557 C 5.477185 10.353628 5.501628 10.359337 5.522502 10.366474 C 5.543734 10.374146 5.558007 10.381996 5.565679 10.387348 L 5.560683 10.495468 C 5.541415 10.487975 5.52393 10.48066 5.506088 10.474594 C 5.48896 10.468171 5.468978 10.464424 5.448817 10.464424 C 5.419913 10.461391 5.398682 10.467457 5.384587 10.479589 C 5.370671 10.492435 5.362999 10.509206 5.362285 10.530438 C 5.360858 10.555773 5.363356 10.575577 5.37299 10.588423 C 5.381197 10.602518 5.40903 10.623749 5.453812 10.652296 C 5.495919 10.678344 5.524643 10.710995 5.541415 10.747035 C 5.556937 10.785394 5.564073 10.829463 5.560683 10.879954 Z M 5.560683 10.879954 " transform="matrix(21.894088,0,0,21.894088,0,0.00425949)"/>
<path style="fill-rule:nonzero;fill:rgb(0%,42.352941%,72.941176%);fill-opacity:1;stroke-width:0.005;stroke-linecap:butt;stroke-linejoin:miter;stroke:rgb(0%,42.352941%,72.941176%);stroke-opacity:1;stroke-miterlimit:4;" d="M 6.017963 10.960063 C 6.009221 10.967021 5.995661 10.974515 5.978176 10.981294 C 5.961405 10.988966 5.941779 10.99307 5.91698 10.99307 C 5.880583 10.994319 5.852215 10.974515 5.83134 10.933479 C 5.809752 10.892979 5.799047 10.828927 5.796014 10.741147 L 5.796014 10.731334 C 5.793694 10.649798 5.804043 10.58646 5.825631 10.540786 C 5.845792 10.493506 5.876479 10.469955 5.915552 10.469241 C 5.936427 10.469241 5.955696 10.471025 5.969791 10.476735 C 5.986562 10.482087 5.999051 10.48744 6.009221 10.494576 L 6.006188 10.381104 C 5.996375 10.37361 5.981566 10.368258 5.963725 10.363619 C 5.945883 10.359516 5.921975 10.357553 5.89664 10.358445 C 5.833124 10.359516 5.781205 10.393236 5.740705 10.461213 C 5.699669 10.527583 5.681471 10.614472 5.684861 10.724554 L 5.684861 10.753279 C 5.68718 10.870141 5.709125 10.957922 5.75248 11.01787 C 5.793694 11.076568 5.847933 11.105829 5.912162 11.105115 C 5.937854 11.104758 5.960692 11.100476 5.980853 11.09334 C 6.000478 11.085311 6.013859 11.078531 6.020639 11.070502 Z M 6.017963 10.960063 " transform="matrix(21.894088,0,0,21.894088,0,0.00425949)"/>
<path style="fill-rule:nonzero;fill:rgb(0%,42.352941%,72.941176%);fill-opacity:1;stroke-width:0.005;stroke-linecap:butt;stroke-linejoin:miter;stroke:rgb(0%,42.352941%,72.941176%);stroke-opacity:1;stroke-miterlimit:4;" d="M 6.169442 10.348321 L 6.278039 10.348393 L 6.278093 11.072424 L 6.169479 11.07253 Z M 6.169442 10.348321 " transform="matrix(21.796515,-2.064718,2.064718,21.796515,-21.506661,13.899577)"/>
<path style="fill-rule:nonzero;fill:rgb(0%,42.352941%,72.941176%);fill-opacity:1;stroke-width:0.005;stroke-linecap:butt;stroke-linejoin:miter;stroke:rgb(0%,42.352941%,72.941176%);stroke-opacity:1;stroke-miterlimit:4;" d="M 6.797283 10.88495 L 6.601382 10.917065 L 6.567305 10.716882 L 6.708789 10.692083 L 6.689877 10.583963 L 6.548393 10.608227 L 6.514494 10.416252 L 6.698619 10.385207 L 6.678815 10.279764 L 6.389781 10.32865 L 6.512175 11.042313 L 6.814589 10.990394 Z M 6.797283 10.88495 " transform="matrix(21.894088,0,0,21.894088,0,0.00425949)"/>
<path style="fill-rule:nonzero;fill:rgb(0%,42.352941%,72.941176%);fill-opacity:1;stroke-width:0.005;stroke-linecap:butt;stroke-linejoin:miter;stroke:rgb(0%,42.352941%,72.941176%);stroke-opacity:1;stroke-miterlimit:4;" d="M 7.349658 10.851765 L 7.302913 10.864611 L 6.949293 10.49083 L 7.072222 10.930268 L 6.996038 10.950785 L 6.8021 10.253001 L 6.859015 10.237836 L 7.194436 10.58878 L 7.078645 10.175926 L 7.154293 10.155051 Z M 7.349658 10.851765 " transform="matrix(21.894088,0,0,21.894088,0,0.00425949)"/>
<path style="fill-rule:nonzero;fill:rgb(0%,42.352941%,72.941176%);fill-opacity:1;stroke-width:0.005;stroke-linecap:butt;stroke-linejoin:miter;stroke:rgb(0%,42.352941%,72.941176%);stroke-opacity:1;stroke-miterlimit:4;" d="M 7.828348 10.651047 C 7.823352 10.660146 7.814253 10.672635 7.798731 10.686373 C 7.783565 10.700111 7.763047 10.710995 7.738783 10.720986 C 7.678121 10.744715 7.617817 10.736865 7.557869 10.695472 C 7.497922 10.653723 7.445111 10.578967 7.403004 10.47049 L 7.391943 10.443193 C 7.351085 10.342209 7.339667 10.253001 7.354475 10.176818 C 7.369284 10.099385 7.405324 10.050856 7.463666 10.026592 C 7.488822 10.017493 7.511124 10.010713 7.52968 10.009107 C 7.548592 10.006074 7.563935 10.006788 7.576068 10.010713 L 7.616568 10.1158 C 7.606042 10.111875 7.591233 10.110447 7.574462 10.111875 C 7.558583 10.111875 7.540028 10.116513 7.520224 10.124007 C 7.48454 10.138458 7.464915 10.170752 7.46099 10.221957 C 7.4576 10.272449 7.470446 10.335429 7.499349 10.410186 L 7.504345 10.420712 C 7.535389 10.500821 7.568753 10.557379 7.602652 10.588423 C 7.637086 10.619289 7.670806 10.628388 7.705419 10.61465 C 7.727007 10.607157 7.744492 10.595738 7.757695 10.582714 C 7.771433 10.569511 7.781246 10.558092 7.787669 10.548993 Z M 7.828348 10.651047 " transform="matrix(21.894088,0,0,21.894088,0,0.00425949)"/>
<path style="fill-rule:nonzero;fill:rgb(0%,42.352941%,72.941176%);fill-opacity:1;stroke-width:0.005;stroke-linecap:butt;stroke-linejoin:miter;stroke:rgb(0%,42.352941%,72.941176%);stroke-opacity:1;stroke-miterlimit:4;" d="M 8.286698 10.44908 L 8.012651 10.58878 L 7.685258 9.942558 L 7.947886 9.809817 L 7.996058 9.905447 L 7.832094 9.989303 L 7.91934 10.163793 L 8.04762 10.099029 L 8.097042 10.196087 L 7.969474 10.261387 L 8.061715 10.443014 L 8.238882 10.353985 Z M 8.286698 10.44908 " transform="matrix(21.894088,0,0,21.894088,0,0.00425949)"/>
<path style="fill-rule:nonzero;fill:rgb(0%,42.352941%,72.941176%);fill-opacity:1;stroke-width:0.005;stroke-linecap:butt;stroke-linejoin:miter;stroke:rgb(0%,42.352941%,72.941176%);stroke-opacity:1;stroke-miterlimit:4;" d="M 8.401954 9.523103 L 8.318456 9.580731 L 8.595535 10.268167 L 8.668686 10.217853 L 8.600709 10.055852 L 8.731666 9.964682 L 8.858342 10.08761 L 8.950226 10.024272 Z M 8.557533 9.955582 L 8.452089 9.705265 L 8.652093 9.891531 Z M 8.557533 9.955582 " transform="matrix(21.894088,0,0,21.894088,0,0.00425949)"/>
<path style="fill-rule:nonzero;fill:rgb(0%,42.352941%,72.941176%);fill-opacity:1;stroke-width:0.005;stroke-linecap:butt;stroke-linejoin:miter;stroke:rgb(0%,42.352941%,72.941176%);stroke-opacity:1;stroke-miterlimit:4;" d="M 8.905443 9.111141 L 8.847815 9.161632 L 9.134529 9.481175 L 8.676714 9.31614 L 8.634608 9.35557 L 9.11865 9.893137 L 9.175922 9.840504 L 8.871009 9.50312 L 9.355408 9.680287 L 9.390377 9.64835 Z M 8.905443 9.111141 " transform="matrix(21.894088,0,0,21.894088,0,0.00425949)"/>
<path style=" stroke:none;fill-rule:nonzero;fill:rgb(0%,42.352941%,72.941176%);fill-opacity:1;" d="M 209.746094 201.710938 C 210.070312 202.460938 210.019531 203.101562 209.5625 203.597656 L 208.839844 204.421875 L 200.515625 197.003906 L 201.097656 196.355469 C 201.5625 195.832031 202.269531 195.714844 203.234375 196.023438 C 204.179688 196.355469 205.300781 197.078125 206.605469 198.238281 L 206.929688 198.539062 C 208.476562 199.917969 209.4375 200.972656 209.746094 201.710938 M 208.117188 196.355469 C 206.375 194.800781 204.769531 193.8125 203.292969 193.429688 C 201.804688 193.03125 200.550781 193.429688 199.496094 194.617188 L 197.160156 197.21875 L 209.015625 207.761719 L 211.597656 204.867188 C 212.472656 203.871094 212.6875 202.699219 212.195312 201.371094 C 211.722656 200.042969 210.535156 198.496094 208.617188 196.792969 Z M 208.117188 196.355469 "/>
<path style="fill:none;stroke-width:0.005;stroke-linecap:butt;stroke-linejoin:miter;stroke:rgb(0%,42.352941%,72.941176%);stroke-opacity:1;stroke-miterlimit:4;" d="M 9.580033 9.212838 C 9.594842 9.247093 9.592522 9.276354 9.571648 9.299012 L 9.538641 9.336658 L 9.158437 8.997847 L 9.185021 8.96823 C 9.206252 8.944322 9.238546 8.938969 9.282614 8.953064 C 9.325791 8.96823 9.376996 9.001237 9.436587 9.054226 L 9.451396 9.067964 C 9.522048 9.130945 9.565938 9.179117 9.580033 9.212838 Z M 9.505634 8.96823 C 9.426061 8.89722 9.352732 8.852081 9.285291 8.834596 C 9.217314 8.816398 9.160043 8.834596 9.11187 8.888835 L 9.005178 9.007659 L 9.54667 9.489204 L 9.664602 9.356997 C 9.704567 9.311501 9.71438 9.257977 9.6919 9.197315 C 9.670312 9.136654 9.616073 9.066001 9.528471 8.988212 Z M 9.505634 8.96823 " transform="matrix(21.894088,0,0,21.894088,0,0.00425949)"/>
<path style="fill-rule:nonzero;fill:rgb(0%,42.352941%,72.941176%);fill-opacity:1;stroke-width:0.005;stroke-linecap:butt;stroke-linejoin:miter;stroke:rgb(0%,42.352941%,72.941176%);stroke-opacity:1;stroke-miterlimit:4;" d="M 9.600194 8.243148 L 9.420708 8.509523 L 9.510273 8.569827 L 9.57022 8.481155 L 10.081738 8.825319 L 10.142043 8.734505 L 9.630168 8.390876 L 9.689045 8.303631 Z M 9.600194 8.243148 " transform="matrix(21.894088,0,0,21.894088,0,0.00425949)"/>
<path style="fill-rule:nonzero;fill:rgb(0%,42.352941%,72.941176%);fill-opacity:1;stroke-width:0.005;stroke-linecap:butt;stroke-linejoin:miter;stroke:rgb(0%,42.352941%,72.941176%);stroke-opacity:1;stroke-miterlimit:4;" d="M 10.426794 8.254388 L 10.276568 8.52219 L 9.644798 8.168927 L 9.789137 7.912187 L 9.882448 7.965176 L 9.790921 8.126107 L 9.962378 8.221738 L 10.032674 8.097204 L 10.127948 8.150015 L 10.057295 8.274906 L 10.236068 8.375354 L 10.332412 8.201577 Z M 10.426794 8.254388 " transform="matrix(21.894088,0,0,21.894088,0,0.00425949)"/>
<path style="fill-rule:nonzero;fill:rgb(0%,42.352941%,72.941176%);fill-opacity:1;stroke-width:0.005;stroke-linecap:butt;stroke-linejoin:miter;stroke:rgb(0%,42.352941%,72.941176%);stroke-opacity:1;stroke-miterlimit:4;" d="M 10.605745 7.821908 C 10.609492 7.831364 10.611098 7.846173 10.608065 7.86794 C 10.607351 7.888279 10.600928 7.910403 10.590937 7.933954 C 10.564353 7.992652 10.514397 8.029049 10.442673 8.04243 C 10.37095 8.054919 10.281742 8.037791 10.174693 7.989619 L 10.147395 7.978201 C 10.049088 7.932705 9.978257 7.878466 9.934189 7.813701 C 9.891726 7.748758 9.882626 7.686491 9.908497 7.629933 C 9.91831 7.604598 9.931155 7.585508 9.942574 7.571234 C 9.95435 7.555534 9.965233 7.545364 9.975938 7.538941 L 10.079062 7.5864 C 10.069963 7.591574 10.058723 7.600316 10.046947 7.612092 C 10.035886 7.624224 10.026073 7.640281 10.016617 7.658836 C 10.000916 7.694876 10.009302 7.731987 10.042665 7.77106 C 10.075315 7.809776 10.128483 7.845459 10.202526 7.880072 L 10.211625 7.883819 C 10.290842 7.918788 10.353466 7.935381 10.400924 7.934667 C 10.446777 7.932705 10.476394 7.914863 10.490846 7.882213 C 10.501729 7.860268 10.506011 7.840107 10.506725 7.822265 C 10.507438 7.80371 10.506725 7.787831 10.505297 7.776056 Z M 10.605745 7.821908 " transform="matrix(21.894088,0,0,21.894088,0,0.00425949)"/>
<path style="fill-rule:nonzero;fill:rgb(0%,42.352941%,72.941176%);fill-opacity:1;stroke-width:0.005;stroke-linecap:butt;stroke-linejoin:miter;stroke:rgb(0%,42.352941%,72.941176%);stroke-opacity:1;stroke-miterlimit:4;" d="M 10.110106 7.11895 L 10.075137 7.221004 L 10.360067 7.317706 L 10.319923 7.434568 L 10.03535 7.337867 L 10.000024 7.440991 L 10.686032 7.67311 L 10.719753 7.569629 L 10.426081 7.469359 L 10.465511 7.353032 L 10.759897 7.45348 L 10.795223 7.350356 Z M 10.110106 7.11895 " transform="matrix(21.894088,0,0,21.894088,0,0.00425949)"/>
<path style="fill-rule:nonzero;fill:rgb(0%,42.352941%,72.941176%);fill-opacity:1;stroke-width:0.005;stroke-linecap:butt;stroke-linejoin:miter;stroke:rgb(0%,42.352941%,72.941176%);stroke-opacity:1;stroke-miterlimit:4;" d="M 10.933317 6.786383 L 10.924574 6.831523 L 10.426794 6.96694 L 10.87105 7.067031 L 10.8541 7.142323 L 10.147574 6.984068 L 10.160063 6.926261 L 10.628226 6.796196 L 10.210198 6.702885 L 10.228039 6.627772 Z M 10.933317 6.786383 " transform="matrix(21.894088,0,0,21.894088,0,0.00425949)"/>
<path style=" stroke:none;fill-rule:nonzero;fill:rgb(0%,42.352941%,72.941176%);fill-opacity:1;" d="M 237.429688 138.984375 C 238.238281 139.382812 238.644531 139.9375 238.550781 140.628906 C 238.445312 141.417969 237.960938 141.925781 237.171875 142.03125 C 236.335938 142.15625 234.832031 142.089844 232.671875 141.832031 L 232.289062 141.785156 C 230.128906 141.5 228.648438 141.203125 227.859375 140.835938 C 227.0625 140.480469 226.699219 139.914062 226.796875 139.148438 C 226.898438 138.3125 227.429688 137.855469 228.394531 137.730469 C 229.355469 137.628906 230.828125 137.6875 232.753906 137.929688 L 233.160156 137.996094 C 235.195312 138.246094 236.609375 138.570312 237.429688 138.984375 M 232.84375 135.527344 C 230.601562 135.246094 228.683594 135.378906 227.15625 135.902344 C 225.601562 136.441406 224.738281 137.40625 224.5625 138.800781 C 224.398438 140.238281 225.003906 141.417969 226.332031 142.324219 C 227.6875 143.261719 229.488281 143.859375 231.773438 144.125 L 232.671875 144.257812 C 235.097656 144.550781 237.039062 144.390625 238.445312 143.761719 C 239.832031 143.136719 240.636719 142.183594 240.792969 140.902344 C 240.953125 139.589844 240.414062 138.460938 239.234375 137.511719 C 238.011719 136.566406 236.160156 135.945312 233.699219 135.636719 Z M 232.84375 135.527344 "/>
<path style="fill:none;stroke-width:0.005;stroke-linecap:butt;stroke-linejoin:miter;stroke:rgb(0%,42.352941%,72.941176%);stroke-opacity:1;stroke-miterlimit:4;" d="M 10.844466 6.347838 C 10.881398 6.366036 10.899953 6.391371 10.895671 6.422951 C 10.890854 6.458991 10.86873 6.482185 10.83269 6.487002 C 10.794509 6.492711 10.725819 6.489678 10.627155 6.477903 L 10.609671 6.475762 C 10.511007 6.462737 10.443387 6.449178 10.407347 6.432407 C 10.37095 6.416171 10.354358 6.390301 10.358818 6.355331 C 10.363457 6.31715 10.387721 6.296275 10.43179 6.290566 C 10.47568 6.285927 10.542943 6.288604 10.630902 6.299665 L 10.649457 6.302698 C 10.742412 6.314117 10.806998 6.328926 10.844466 6.347838 Z M 10.635006 6.18994 C 10.532595 6.177094 10.444993 6.18316 10.375232 6.207068 C 10.304223 6.231689 10.264793 6.275758 10.256764 6.339452 C 10.249271 6.405109 10.276925 6.458991 10.337587 6.500383 C 10.399497 6.543203 10.481746 6.5705 10.58612 6.582633 L 10.627155 6.588699 C 10.737951 6.60208 10.826624 6.594765 10.890854 6.56604 C 10.954191 6.537494 10.990945 6.49396 10.998082 6.43544 C 11.005397 6.375492 10.980775 6.32393 10.926894 6.280575 C 10.87105 6.237398 10.786481 6.20903 10.674079 6.194935 Z M 10.635006 6.18994 " transform="matrix(21.894088,0,0,21.894088,0,0.00425949)"/>
<path style="fill-rule:nonzero;fill:rgb(0%,42.352941%,72.941176%);fill-opacity:1;stroke-width:0.005;stroke-linecap:butt;stroke-linejoin:miter;stroke:rgb(0%,42.352941%,72.941176%);stroke-opacity:1;stroke-miterlimit:4;" d="M 11.031981 5.79118 L 11.020919 6.078608 L 10.296551 6.051311 L 10.300833 5.94212 L 10.917259 5.966385 L 10.924574 5.787969 Z M 11.031981 5.79118 " transform="matrix(21.894088,0,0,21.894088,0,0.00425949)"/>
<path style=" stroke:none;fill-rule:nonzero;fill:rgb(0%,42.352941%,72.941176%);fill-opacity:1;" d="M 232.355469 114.558594 C 230.113281 114.828125 228.285156 115.375 226.898438 116.28125 C 225.511719 117.175781 224.914062 118.296875 225.046875 119.703125 C 225.238281 121.140625 226.058594 122.136719 227.605469 122.710938 C 229.140625 123.308594 231.035156 123.457031 233.3125 123.191406 L 234.207031 123.089844 C 236.660156 122.816406 238.496094 122.203125 239.714844 121.246094 C 240.921875 120.316406 241.476562 119.203125 241.328125 117.925781 C 241.203125 116.628906 240.414062 115.65625 239.011719 115.007812 C 237.605469 114.371094 235.671875 114.1875 233.210938 114.46875 Z M 237.605469 116.863281 C 238.527344 117.0625 239.011719 117.492188 239.085938 118.183594 C 239.175781 119.003906 238.835938 119.570312 238.046875 119.886719 C 237.28125 120.21875 235.796875 120.484375 233.660156 120.75 L 233.269531 120.78125 C 231.117188 121.03125 229.613281 121.066406 228.742188 120.898438 C 227.894531 120.75 227.421875 120.285156 227.3125 119.496094 C 227.222656 118.671875 227.644531 118.074219 228.558594 117.75 C 229.472656 117.425781 230.894531 117.160156 232.820312 116.9375 L 233.269531 116.878906 C 235.273438 116.664062 236.734375 116.628906 237.605469 116.863281 "/>
<path style="fill:none;stroke-width:0.005;stroke-linecap:butt;stroke-linejoin:miter;stroke:rgb(0%,42.352941%,72.941176%);stroke-opacity:1;stroke-miterlimit:4;" d="M 10.612704 5.232204 C 10.510293 5.244515 10.426794 5.269493 10.363457 5.310885 C 10.300119 5.351742 10.272822 5.402948 10.278888 5.467177 C 10.28763 5.532834 10.325097 5.57833 10.39575 5.604558 C 10.465867 5.631855 10.552399 5.638635 10.656415 5.626503 L 10.697273 5.621864 C 10.809318 5.609375 10.893173 5.581364 10.948839 5.537652 C 11.003969 5.495189 11.029304 5.44434 11.022525 5.385998 C 11.016815 5.326764 10.980775 5.282339 10.916724 5.252722 C 10.852494 5.22364 10.764179 5.215254 10.651777 5.2281 Z M 10.852494 5.337469 C 10.894601 5.346568 10.916724 5.366194 10.920114 5.397774 C 10.924218 5.435241 10.908695 5.461111 10.872655 5.475563 C 10.837686 5.490728 10.769888 5.502861 10.672294 5.514993 L 10.654453 5.51642 C 10.556146 5.527839 10.487456 5.529445 10.447669 5.521773 C 10.408953 5.514993 10.387365 5.493761 10.382369 5.457721 C 10.378265 5.420076 10.397534 5.392778 10.439284 5.37797 C 10.481033 5.363161 10.545976 5.351029 10.633935 5.340859 L 10.654453 5.338183 C 10.74598 5.32837 10.812708 5.326764 10.852494 5.337469 Z M 10.852494 5.337469 " transform="matrix(21.894088,0,0,21.894088,0,0.00425949)"/>
<path style="fill-rule:nonzero;fill:rgb(0%,42.352941%,72.941176%);fill-opacity:1;stroke-width:0.005;stroke-linecap:butt;stroke-linejoin:miter;stroke:rgb(0%,42.352941%,72.941176%);stroke-opacity:1;stroke-miterlimit:4;" d="M 10.764 4.650212 C 10.802003 4.657884 10.835366 4.672692 10.864091 4.696243 C 10.891924 4.718902 10.911907 4.753158 10.921363 4.797405 C 10.934744 4.858958 10.916546 4.915159 10.866054 4.963331 C 10.814135 5.012574 10.731707 5.049863 10.617164 5.074128 L 10.579875 5.08287 C 10.477464 5.105172 10.391825 5.104101 10.319745 5.079837 C 10.247665 5.054323 10.202883 5.007222 10.18736 4.936391 C 10.181294 4.91052 10.179332 4.887326 10.183435 4.866987 C 10.186825 4.847896 10.191107 4.832374 10.196817 4.821848 L 10.310111 4.796691 C 10.304044 4.808823 10.299941 4.824881 10.29548 4.843079 C 10.290128 4.861634 10.290128 4.880547 10.294588 4.903027 C 10.303331 4.940137 10.329201 4.966008 10.373627 4.980816 C 10.418409 4.994376 10.485136 4.9917 10.575058 4.971182 L 10.584871 4.969041 C 10.678896 4.947809 10.742412 4.924258 10.773813 4.898388 C 10.80682 4.872161 10.819309 4.843079 10.812529 4.81257 C 10.808426 4.795264 10.80004 4.780098 10.787908 4.769037 C 10.776489 4.756548 10.764 4.749233 10.750619 4.746199 L 10.605745 4.780098 L 10.622873 4.851822 L 10.528313 4.873053 L 10.491916 4.712122 Z M 10.764 4.650212 " transform="matrix(21.894088,0,0,21.894088,0,0.00425949)"/>
<path style="fill-rule:nonzero;fill:rgb(0%,42.352941%,72.941176%);fill-opacity:1;stroke-width:0.005;stroke-linecap:butt;stroke-linejoin:miter;stroke:rgb(0%,42.352941%,72.941176%);stroke-opacity:1;stroke-miterlimit:4;" d="M 10.035172 4.369564 L 10.346686 4.385621 L 10.103505 4.57831 L 10.142578 4.698206 L 10.502264 4.407923 L 10.780414 4.317645 L 10.745802 4.214342 L 10.454806 4.309259 L 10.008588 4.286957 Z M 10.035172 4.369564 " transform="matrix(21.894088,0,0,21.894088,0,0.00425949)"/>
<path style=" stroke:none;fill-rule:nonzero;fill:rgb(100%,100%,100%);fill-opacity:1;" d="M 179.011719 139.9375 L 179.011719 86.367188 L 178.613281 85.933594 C 147.519531 87.726562 126.03125 101.375 126.03125 101.375 C 108.585938 87.871094 74.054688 85.933594 74.054688 85.933594 L 73.84375 86.367188 L 73.84375 139.9375 "/>
<path style=" stroke:none;fill-rule:nonzero;fill:rgb(100%,100%,100%);fill-opacity:1;" d="M 72.917969 103.292969 L 65.683594 103.167969 L 65.683594 186.855469 C 97.324219 182.109375 111.074219 186.589844 111.074219 186.589844 C 117.660156 188.648438 120.652344 192.792969 120.652344 192.792969 L 131.390625 192.792969 C 133.777344 188.648438 142.140625 186.855469 142.140625 186.855469 C 157.085938 183.296875 186.375 186.265625 186.375 186.265625 L 186.375 104.347656 L 179.132812 104.523438 "/>
<path style="fill:none;stroke-width:0.07;stroke-linecap:butt;stroke-linejoin:miter;stroke:rgb(100%,89.411765%,0%);stroke-opacity:1;stroke-miterlimit:4;" d="M 3.298372 4.685717 L 2.964021 4.680007 L 2.964021 8.570184 C 4.426673 8.349662 5.061119 8.556446 5.061119 8.556446 C 5.364605 8.653147 5.503055 8.846372 5.503055 8.846372 L 5.999051 8.846372 C 6.10949 8.653147 6.495582 8.570184 6.495582 8.570184 C 7.186586 8.405506 8.538085 8.543243 8.538085 8.543243 L 8.538085 4.735673 L 8.204626 4.743345 " transform="matrix(21.894088,0,0,21.894088,0,0.00425949)"/>
<path style="fill:none;stroke-width:0.07;stroke-linecap:butt;stroke-linejoin:miter;stroke:rgb(100%,89.411765%,0%);stroke-opacity:1;stroke-miterlimit:4;" d="M 8.197847 6.388516 L 8.197847 3.898903 L 8.179113 3.878742 C 6.743937 3.962598 5.750518 4.597758 5.750518 4.597758 C 4.945863 3.969377 3.349934 3.878742 3.349934 3.878742 L 3.340478 3.898903 L 3.340478 6.388516 " transform="matrix(21.894088,0,0,21.894088,0,0.00425949)"/>
<path style=" stroke:none;fill-rule:nonzero;fill:rgb(0%,42.352941%,72.941176%);fill-opacity:1;" d="M 135.484375 114.527344 C 136.332031 114.441406 137.179688 114.351562 138.050781 114.292969 C 138.839844 114.144531 139.339844 113.769531 140.210938 113.753906 C 141.324219 113.671875 142.421875 113.644531 143.515625 113.585938 C 144.738281 113.203125 145.941406 112.796875 147.140625 112.425781 C 148.542969 112.066406 150.351562 112.242188 151.839844 112.273438 C 153.527344 112.300781 154.882812 112.796875 156.382812 112.9375 C 158.203125 112.957031 160.007812 113.003906 161.84375 113.070312 C 162.40625 113.238281 162.957031 113.421875 163.546875 113.585938 C 164.992188 113.851562 166.875 113.769531 168.289062 113.453125 C 168.363281 112.574219 168.445312 111.683594 168.511719 110.855469 L 168.289062 110.855469 L 168.289062 110.578125 C 168.046875 110.6875 167.804688 110.761719 167.550781 110.855469 L 162.589844 110.855469 C 159.78125 110.855469 157.554688 111.1875 157.347656 107.980469 C 157.980469 107.796875 158.652344 107.589844 159.265625 107.414062 C 160.273438 107.273438 161.3125 107.164062 162.347656 107.023438 L 162.347656 106.808594 C 162.699219 106.808594 162.554688 106.660156 162.523438 106.308594 C 162.464844 105.828125 162.347656 105.222656 161.910156 104.980469 C 160.378906 104.140625 157.496094 104.722656 155.652344 104.582031 C 154.824219 104.375 153.925781 104.140625 153.070312 103.949219 L 153.070312 103.691406 C 152.628906 103.691406 152.820312 102.429688 152.820312 102.058594 L 152.589844 102.058594 C 152.589844 101.632812 149.796875 101.800781 149.257812 101.800781 C 149.023438 102.214844 148.785156 102.589844 148.527344 102.996094 L 148.308594 102.996094 C 148.375 103.0625 148.425781 103.144531 148.527344 103.238281 C 148.527344 104 143.515625 105.460938 142.59375 105.554688 C 140.660156 105.695312 137.71875 105.054688 136.332031 106.292969 C 135.75 106.773438 135.75 107.457031 135.699219 108.230469 L 135.847656 108.230469 C 135.917969 108.621094 136.082031 108.460938 136.414062 108.460938 C 137.363281 108.445312 138.308594 108.394531 139.222656 108.363281 C 140.011719 108.277344 141.9375 107.257812 142.289062 108.527344 C 143.277344 111.925781 136.023438 111.875 134.097656 112.457031 C 133.425781 112.871094 132.785156 113.269531 132.128906 113.6875 C 132.128906 114.957031 134.6875 114.625 135.484375 114.527344 M 145.078125 108.296875 C 145.320312 107.347656 147.246094 107.78125 148.019531 107.589844 C 148.507812 107.414062 149 107.230469 149.507812 107.023438 C 152.230469 107.023438 154.125 106.675781 154.472656 109.648438 C 153.757812 109.648438 153.027344 110.3125 152.589844 110.855469 C 151.839844 110.628906 151.152344 110.445312 150.417969 110.222656 C 149.109375 110.082031 144.414062 110.910156 145.078125 108.296875 "/>
<path style=" stroke:none;fill-rule:nonzero;fill:rgb(0%,42.352941%,72.941176%);fill-opacity:1;" d="M 83.847656 127.046875 C 85.625 127.121094 86.9375 124.355469 89.070312 124.320312 C 89.761719 124.304688 90.417969 124.652344 90.707031 125.234375 C 91.480469 126.878906 90.882812 132.179688 90.980469 134.375 L 91.207031 134.375 C 91.207031 134.832031 92.484375 134.632812 92.882812 134.632812 L 92.882812 134.375 C 93.300781 134.375 93.117188 132.039062 93.117188 131.523438 C 93.117188 129.097656 92.371094 122.238281 94.445312 121.339844 C 95.492188 120.882812 97.054688 121.066406 98.332031 121.066406 L 98.332031 120.832031 L 98.589844 120.832031 C 98.589844 117.957031 93.671875 118.699219 93.300781 116.046875 C 92.851562 112.933594 96.382812 114.3125 97.222656 112.675781 C 97.46875 112.210938 97.203125 111.820312 96.878906 111.585938 C 95.984375 110.9375 94.851562 110.75 94.273438 109.742188 C 93.964844 109.226562 94.0625 108.378906 93.949219 107.78125 C 93.671875 106.480469 92.992188 104.816406 91.960938 103.945312 C 91.636719 104.519531 91.390625 105.058594 91.097656 105.640625 C 90.980469 106.644531 90.882812 107.617188 90.773438 108.621094 C 89.960938 111.03125 88.175781 111.195312 86.007812 111.679688 C 84.894531 111.9375 83.914062 112.507812 82.890625 112.976562 C 82.890625 115.757812 88.765625 112.660156 90.125 114.511719 C 91.960938 117.0625 90.035156 120.269531 87.816406 121.640625 C 86.84375 122.210938 85.457031 122.371094 84.476562 122.992188 C 83.640625 123.691406 82.792969 124.40625 81.953125 125.109375 C 81.953125 126.074219 82.925781 127.011719 83.847656 127.046875 "/>
<path style=" stroke:none;fill-rule:nonzero;fill:rgb(0%,42.352941%,72.941176%);fill-opacity:1;" d="M 120.832031 120.585938 C 120.175781 120.453125 119.527344 120.304688 118.863281 120.1875 C 116.910156 119.5625 114.492188 118.765625 113.03125 117.320312 C 109.101562 113.382812 117.707031 108.949219 111.433594 106.988281 C 110.273438 106.605469 109.433594 106.503906 108.351562 107.253906 L 108.105469 107.253906 L 108.105469 107.519531 C 108.503906 107.519531 108.96875 107.792969 109.257812 108.023438 C 111.726562 109.96875 108.386719 114.214844 105.8125 113.425781 C 101.765625 112.136719 107.988281 106.105469 103.335938 105.375 C 102.847656 106.257812 103.003906 107.476562 102.472656 108.347656 C 101.515625 109.878906 99.207031 111.015625 98.699219 112.769531 C 98.734375 113.035156 98.800781 113.273438 98.832031 113.53125 C 100.089844 115.46875 106.003906 111.65625 105.070312 116.515625 C 104.722656 118.375 100.976562 121.015625 99.441406 121.796875 C 98.484375 122.253906 97.460938 122.355469 96.75 123.253906 C 96.175781 123.941406 96.589844 124.820312 97.222656 125.195312 C 98.800781 126.109375 101.75 122.570312 102.980469 121.664062 C 103.933594 120.917969 106.441406 119.179688 107.640625 119.015625 C 109.367188 118.800781 112.273438 119.855469 113.726562 120.519531 C 115.140625 121.199219 118.96875 125.0625 120.597656 123.757812 C 121.328125 123.144531 121.695312 122.386719 121.429688 121.351562 C 121.355469 121.035156 121.179688 120.71875 120.832031 120.585938 "/>
<path style=" stroke:none;fill-rule:nonzero;fill:rgb(0%,42.352941%,72.941176%);fill-opacity:1;" d="M 140.429688 117.0625 C 138.511719 116.828125 137.613281 121.84375 138.378906 123.175781 C 139.058594 124.386719 140.429688 125.058594 141.644531 125.59375 C 141.644531 125.234375 141.851562 125.234375 142.140625 125.160156 C 144.492188 124.3125 148.015625 125.003906 150.65625 124.84375 C 151.84375 124.753906 152.714844 124.171875 154.003906 124.214844 C 154.96875 124.246094 155.523438 124.644531 156.402344 124.777344 C 159.378906 125.195312 162.203125 124.253906 163.007812 121.445312 C 163.414062 120.117188 162.59375 119.542969 162.042969 118.582031 C 161.464844 117.558594 161.023438 116.296875 160.019531 115.539062 C 159.46875 115.117188 158.546875 115.140625 157.832031 115.042969 C 157.117188 114.828125 156.386719 114.652344 155.640625 114.46875 C 151.636719 114.460938 147.597656 114.425781 143.519531 114.386719 C 142.988281 114.84375 142.613281 114.976562 141.867188 115.117188 L 141.867188 115.339844 L 141.644531 115.339844 C 141.644531 116.246094 142.523438 117.144531 143.355469 117.328125 C 144.890625 117.625 146.121094 116.679688 147.597656 116.59375 C 150.089844 116.429688 159.894531 117.070312 159.394531 120.53125 C 159.304688 121.007812 158.796875 121.53125 158.371094 121.738281 C 157.050781 122.367188 154.832031 121.902344 153.304688 122.085938 C 152.484375 122.203125 151.828125 122.636719 150.894531 122.601562 C 150.207031 122.433594 149.476562 122.300781 148.761719 122.121094 C 146.984375 122.121094 143.746094 123.574219 141.941406 122.367188 C 140.828125 121.628906 140.84375 120.066406 141.269531 118.878906 C 141.558594 118.082031 141.320312 117.144531 140.429688 117.0625 "/>
<path style=" stroke:none;fill-rule:nonzero;fill:rgb(0%,42.352941%,72.941176%);fill-opacity:1;" d="M 152.09375 119.648438 L 152.09375 118.210938 C 150.382812 118.210938 149.253906 117.554688 147.601562 117.511719 C 146.539062 118.226562 145.148438 118.445312 144.03125 118.917969 C 144.03125 121.550781 150.757812 119.691406 152.09375 119.648438 "/>
<path style=" stroke:none;fill-rule:nonzero;fill:rgb(0%,42.352941%,72.941176%);fill-opacity:1;" d="M 103.824219 133.441406 C 105.054688 133.664062 106.640625 133.324219 107.789062 133.015625 C 108.503906 132.792969 108.953125 132.394531 109.773438 132.382812 C 110.355469 132.441406 110.96875 132.507812 111.527344 132.550781 C 112.398438 132.890625 112.878906 133.804688 114.035156 133.664062 C 116.894531 133.308594 116.636719 127.21875 115.464844 125.355469 C 115.464844 124.609375 109.640625 123.105469 108.550781 122.988281 L 108.550781 123.1875 C 108.277344 123.304688 107.945312 123.371094 107.640625 123.4375 L 102.40625 123.4375 C 101.941406 124.5 101.457031 125.554688 100.976562 126.660156 C 100.289062 128.515625 100.636719 131.519531 101.675781 132.949219 C 101.675781 133.308594 103.410156 133.355469 103.824219 133.441406 M 103.179688 126.679688 C 103.445312 126.3125 103.75 125.957031 104.042969 125.597656 C 107.058594 125.597656 114.792969 124.253906 113.089844 129.078125 C 112.957031 129.445312 112.679688 129.742188 112.273438 129.882812 C 111.234375 130.25 109.742188 130.066406 108.550781 130.167969 C 107.316406 130.28125 106.195312 131.015625 104.832031 130.605469 C 103.378906 130.148438 102.496094 128.148438 103.179688 126.679688 "/>
<path style=" stroke:none;fill-rule:nonzero;fill:rgb(0%,42.352941%,72.941176%);fill-opacity:1;" d="M 153.304688 125.59375 C 152.523438 126.964844 154.066406 130.804688 155.878906 129.582031 C 157.082031 128.742188 157.625 126.824219 156.035156 126.042969 C 155.246094 125.660156 154.25 125.59375 153.304688 125.59375 "/>
<path style=" stroke:none;fill-rule:nonzero;fill:rgb(0%,42.352941%,72.941176%);fill-opacity:1;" d="M 158.269531 133.289062 C 157.605469 133.207031 156.941406 133.074219 156.242188 132.941406 C 154.546875 132.308594 153.175781 130.921875 151.566406 130.183594 C 150.386719 129.632812 149.164062 129.003906 147.960938 128.445312 C 145.925781 127.226562 146.539062 126.394531 143.523438 126.285156 C 143.09375 126.882812 142.59375 127.382812 142.59375 128.1875 C 141.613281 128.1875 140.914062 131.953125 140.914062 132.949219 L 141.164062 132.949219 C 141.164062 133.738281 143.125 132.675781 143.476562 132.390625 C 144.511719 131.453125 145.425781 130.554688 147.046875 131.023438 C 148.675781 132.152344 150.351562 133.273438 151.957031 134.394531 C 153.46875 134.894531 154.929688 135.390625 156.398438 135.871094 C 157.363281 135.890625 158.285156 135.890625 159.25 135.890625 C 161.34375 136.023438 166.527344 137.5 168.304688 136.414062 C 169.191406 135.90625 169.175781 134.894531 169.226562 133.929688 C 166.160156 133.886719 163.046875 133.835938 159.945312 133.8125 C 159.398438 133.65625 158.835938 133.464844 158.269531 133.289062 "/>
<path style=" stroke:none;fill-rule:nonzero;fill:rgb(0%,42.352941%,72.941176%);fill-opacity:1;" d="M 159.714844 129.398438 C 159.714844 132.089844 165.378906 130.097656 166.007812 128.292969 C 166.457031 126.921875 164.730469 126.390625 163.757812 126.285156 C 163.175781 126.882812 162.503906 127.074219 161.9375 127.554688 C 161.191406 128.1875 160.453125 128.785156 159.714844 129.398438 "/>
<path style=" stroke:none;fill-rule:nonzero;fill:rgb(0%,42.352941%,72.941176%);fill-opacity:1;" d="M 135.644531 133.769531 C 138.375 133.128906 137.996094 129.863281 138.070312 127.503906 L 137.84375 127.503906 C 137.84375 127.0625 136.382812 127.230469 135.917969 127.230469 C 134.363281 129.207031 132.910156 131.191406 134.511719 133.660156 C 134.511719 134.117188 135.335938 133.808594 135.644531 133.769531 "/>
<path style=" stroke:none;fill-rule:nonzero;fill:rgb(0%,42.352941%,72.941176%);fill-opacity:1;" d="M 151.84375 172.339844 C 153.125 171.609375 154.054688 169.992188 154.328125 168.59375 C 154.402344 167.898438 154.433594 167.199219 154.492188 166.519531 C 154.652344 166.160156 154.835938 165.777344 154.984375 165.429688 C 155.714844 163.734375 155.804688 162.980469 155.332031 161.210938 C 155.183594 160.679688 155.042969 160.121094 154.925781 159.589844 C 154.46875 158.785156 154.070312 157.804688 153.230469 157.28125 C 151.355469 156.167969 149.882812 158.019531 149.019531 155.328125 C 149.386719 155.328125 149.707031 154.5625 150.089844 154.375 C 151.113281 153.875 152.523438 153.824219 153.746094 153.964844 C 156.503906 154.28125 155.40625 157.761719 157.808594 158.402344 C 157.808594 157.753906 158.324219 157.191406 158.605469 156.648438 C 159.335938 155.246094 160.417969 153.824219 162.300781 154.066406 C 162.792969 154.164062 163.28125 154.242188 163.746094 154.332031 C 164.828125 154.25 165.824219 153.875 167.09375 153.875 C 167.09375 148.203125 159.195312 153.726562 158.839844 147.933594 C 158.796875 147.0625 158.855469 146.300781 159.46875 145.816406 C 159.46875 144.445312 157.085938 144.039062 156.15625 143.875 C 155.914062 144.054688 155.65625 144.207031 155.425781 144.398438 C 154.96875 144.398438 155.25 145.890625 155.332031 146.242188 C 155.457031 146.914062 155.824219 147.570312 155.714844 148.390625 C 155.332031 150.710938 153.15625 151.324219 151.171875 151.890625 C 150.574219 152.039062 150 152.363281 149.269531 152.320312 C 148.429688 152.253906 147.796875 151.789062 147.125 151.523438 C 147.125 150.617188 146.550781 149.703125 145.921875 149.140625 L 145.921875 148.882812 L 145.695312 148.882812 C 145.695312 149.414062 144.640625 149.613281 144.257812 149.855469 C 143.859375 149.855469 144.035156 150.675781 144.050781 151.027344 C 144.183594 153.160156 145.472656 154.886719 145.988281 156.78125 C 146.371094 158.269531 146.027344 159.9375 145.695312 161.261719 C 146.261719 161.261719 146.320312 161.992188 147.09375 161.882812 C 148.1875 161.757812 149.0625 160.253906 150.398438 160.660156 C 152.484375 161.242188 152.558594 166.011719 151.859375 167.839844 C 151.476562 168.421875 151.078125 168.984375 150.671875 169.574219 C 149.367188 169.574219 147.816406 165.015625 147.597656 163.894531 L 147.125 163.894531 C 147.125 164.007812 145.96875 165.960938 145.820312 166.335938 C 145.429688 167.199219 145.53125 168.304688 145.214844 169.25 C 144.582031 171.09375 143.246094 172.558594 143.070312 174.585938 C 143.519531 174.640625 143.96875 174.699219 144.410156 174.785156 C 146.027344 174.535156 146.121094 172.664062 147.433594 172.207031 C 148.953125 171.660156 150.382812 173.164062 151.84375 172.339844 "/>
<path style=" stroke:none;fill-rule:nonzero;fill:rgb(0%,42.352941%,72.941176%);fill-opacity:1;" d="M 93.046875 165.824219 C 93.683594 163.125 97.480469 162.335938 93.585938 159.816406 C 93.246094 159.636719 92.648438 159.152344 92.855469 158.722656 C 93.527344 157.175781 97.007812 155.832031 96.808594 154.402344 C 96.625 153.054688 94.515625 153.289062 93.742188 152.539062 C 92.554688 151.425781 92.898438 146.484375 93.363281 144.839844 L 93.121094 144.839844 C 93.121094 144.257812 91.714844 144.390625 91.203125 144.390625 C 89.539062 146.667969 91.101562 147.699219 90.851562 150.074219 C 90.679688 151.777344 89.042969 154.492188 86.941406 153.878906 C 85.726562 153.878906 87.480469 147.175781 85.222656 146.851562 C 83.417969 146.578125 82.355469 151.519531 82.355469 152.921875 C 82.355469 154.160156 82.9375 155.125 82.644531 156.503906 C 83.433594 156.503906 83.691406 159.011719 85.019531 159.011719 C 85.984375 159.035156 86.734375 157.632812 87.539062 157.25 C 88.195312 156.953125 89.199219 156.976562 90.039062 156.976562 L 90.039062 157.234375 C 90.4375 157.234375 90.253906 158.921875 90.253906 159.359375 C 90.121094 163.183594 87.695312 163.640625 85.1875 165.484375 C 84.898438 165.730469 84.582031 165.980469 84.308594 166.214844 C 83.941406 166.5625 83.566406 166.921875 83.210938 167.285156 C 83.035156 167.734375 82.863281 168.167969 82.644531 168.640625 L 82.886719 168.640625 C 82.886719 168.929688 82.796875 168.871094 83.128906 168.871094 C 85.933594 168.804688 87.945312 168 90.726562 168.148438 L 90.726562 168.398438 C 91.167969 168.398438 90.925781 168.804688 90.878906 169.105469 C 90.726562 170.292969 87.554688 175.617188 90.105469 176.109375 C 91.003906 176.28125 91.492188 175.234375 91.773438 174.613281 C 92.40625 173.265625 93.019531 172.160156 93.105469 170.507812 C 93.144531 168.957031 92.738281 167.535156 92.988281 166.046875 C 93.019531 165.964844 93.046875 165.898438 93.046875 165.824219 "/>
<path style=" stroke:none;fill-rule:nonzero;fill:rgb(0%,42.352941%,72.941176%);fill-opacity:1;" d="M 164.929688 144.394531 C 163.980469 145.515625 163.285156 147.078125 162.097656 147.941406 L 162.097656 148.191406 C 161.664062 148.191406 161.9375 148.414062 162.097656 148.648438 C 162.097656 150.425781 166.949219 149.023438 167.503906 147.558594 C 168.136719 145.816406 166.257812 144.742188 164.929688 144.394531 "/>
<path style=" stroke:none;fill-rule:nonzero;fill:rgb(0%,42.352941%,72.941176%);fill-opacity:1;" d="M 112.351562 153.191406 L 110.242188 153.191406 C 108.101562 153.191406 106.472656 151.023438 106.199219 149.097656 C 106.132812 148.550781 106.414062 148.160156 106.488281 147.660156 C 106.730469 146.132812 105.816406 145.394531 104.519531 145.085938 C 103.929688 145.816406 102.875 146.015625 102.460938 146.914062 C 102.320312 147.71875 102.203125 148.53125 102.0625 149.371094 C 101.804688 151.023438 100.417969 152.578125 99.0625 153.640625 C 99.160156 154.347656 99.234375 155.085938 99.300781 155.792969 C 99.300781 156.140625 99.433594 156.074219 99.777344 156.074219 C 100.640625 156.050781 101.453125 155.445312 102.160156 155.0625 C 103.621094 154.230469 105.316406 153.277344 107.152344 153.191406 L 107.152344 153.410156 C 107.550781 153.410156 107.402344 153.765625 107.402344 154.132812 C 107.71875 159.015625 111.539062 152.253906 113.332031 156.28125 C 112.984375 156.28125 113.132812 156.167969 113 156.484375 C 112.0625 159.539062 114.539062 158.300781 116.183594 158.535156 C 117.3125 158.726562 118.316406 160.144531 118.441406 161.257812 C 118.757812 164.347656 114.828125 168.984375 112.496094 170.84375 C 111.980469 171.160156 111.480469 171.425781 110.980469 171.710938 L 110.980469 171.957031 L 110.78125 171.957031 C 110.726562 171.328125 108.28125 170.621094 107.644531 170.539062 L 107.644531 170.777344 C 107.226562 170.777344 107.402344 173.953125 107.402344 174.582031 C 108.664062 174.582031 109.230469 175.628906 110.941406 175.382812 C 115.078125 174.765625 121.433594 165.859375 121.324219 161.742188 C 121.183594 157.472656 116.523438 153.375 112.351562 153.191406 "/>
<path style=" stroke:none;fill-rule:nonzero;fill:rgb(0%,42.352941%,72.941176%);fill-opacity:1;" d="M 141.648438 146.753906 C 141 146.488281 140.335938 146.234375 139.695312 145.964844 C 137.859375 145.425781 136.199219 145.085938 134.039062 145.085938 C 132.816406 148.136719 140.515625 150.726562 141.648438 146.753906 "/>
<path style=" stroke:none;fill-rule:nonzero;fill:rgb(0%,42.352941%,72.941176%);fill-opacity:1;" d="M 132.59375 153.828125 C 133.398438 153.628906 134.179688 153.445312 134.96875 153.222656 C 137.652344 152.972656 140.859375 153.648438 143.074219 152.457031 C 143.074219 150.589844 138.457031 151.136719 137.121094 150.964844 C 135.972656 150.820312 135.101562 150.339844 133.78125 150.324219 C 132.5 151.453125 131.378906 151.59375 131.15625 153.648438 L 131.40625 153.648438 C 131.40625 154.0625 132.234375 153.847656 132.59375 153.828125 "/>
<path style=" stroke:none;fill-rule:nonzero;fill:rgb(0%,42.352941%,72.941176%);fill-opacity:1;" d="M 134.75 155.566406 C 134.003906 155.929688 133.273438 156.3125 132.523438 156.679688 C 131.304688 159.410156 142.359375 159.054688 142.359375 156.738281 C 142.359375 155.300781 136.195312 155.566406 134.75 155.566406 "/>
<path style=" stroke:none;fill-rule:nonzero;fill:rgb(0%,42.352941%,72.941176%);fill-opacity:1;" d="M 164.191406 169.222656 C 163.542969 168.035156 163.085938 166.648438 163.449219 165.09375 C 163.742188 163.855469 164.722656 162.777344 165.269531 161.640625 C 166.027344 160.042969 165.453125 157.21875 163.683594 156.503906 C 162.917969 156.214844 162.003906 156.28125 161.167969 156.28125 C 162.1875 159.082031 162.984375 159.710938 161.863281 162.941406 C 161.574219 162.941406 161.574219 162.941406 161.40625 162.71875 C 161.167969 162.292969 160.910156 161.886719 160.675781 161.488281 C 160.054688 160.765625 159.421875 160.050781 158.773438 159.363281 C 157.992188 159.363281 157.554688 160.175781 157.476562 160.773438 C 157.3125 161.886719 157.667969 162.519531 157.878906 163.441406 C 158.464844 165.777344 158.773438 167.3125 157.828125 169.472656 C 157.378906 170.59375 156.640625 171.65625 155.625 172.339844 C 153.996094 173.441406 152.410156 172.710938 152.09375 175.277344 C 152.949219 175.277344 153.683594 175.769531 154.621094 175.476562 C 156.738281 174.847656 158.648438 172.164062 160.910156 172.082031 C 163.699219 171.929688 164.597656 175.476562 166.949219 176.234375 C 169.414062 177.007812 170.667969 174.597656 169.964844 172.445312 C 169.964844 172.023438 169.558594 172.089844 169.222656 172.039062 C 166.671875 171.707031 165.378906 171.441406 164.191406 169.222656 "/>
<path style=" stroke:none;fill-rule:nonzero;fill:rgb(0%,42.352941%,72.941176%);fill-opacity:1;" d="M 107.40625 156.972656 C 106.65625 157.605469 105.941406 158.203125 105.195312 158.832031 C 104.304688 159.671875 103.425781 160.519531 102.535156 161.34375 C 100.195312 162.960938 96.039062 163.976562 95.492188 167.199219 L 95.75 167.199219 C 95.75 167.65625 97.425781 167.382812 97.867188 167.28125 C 99.71875 166.851562 112.238281 158.300781 107.40625 156.972656 "/>
<path style=" stroke:none;fill-rule:nonzero;fill:rgb(0%,42.352941%,72.941176%);fill-opacity:1;" d="M 111.527344 164.230469 C 112.390625 163.109375 113.105469 161.523438 113.335938 160.074219 L 111.183594 160.074219 C 110.503906 160.875 109.8125 161.671875 109.082031 162.476562 C 107.789062 164.128906 106.640625 165.898438 104.886719 167.3125 C 103.535156 168.382812 98.757812 169.753906 98.574219 171.273438 C 98.484375 171.773438 98.59375 172.230469 98.957031 172.5625 C 101.207031 174.679688 109.871094 166.449219 111.527344 164.230469 "/>
<path style=" stroke:none;fill-rule:nonzero;fill:rgb(0%,42.352941%,72.941176%);fill-opacity:1;" d="M 136.195312 162.945312 C 137.757812 162.886719 141.277344 163.308594 142.359375 162.421875 C 143.03125 162.421875 141.851562 160.492188 141.121094 160.253906 C 139.042969 159.636719 135.871094 160.070312 133.570312 160.070312 C 133.054688 160.691406 130.222656 162.621094 132.457031 163.390625 C 133.621094 163.773438 134.957031 162.976562 136.195312 162.945312 "/>
<path style=" stroke:none;fill-rule:nonzero;fill:rgb(0%,42.352941%,72.941176%);fill-opacity:1;" d="M 134.515625 165.230469 C 133.710938 165 132.914062 164.808594 132.132812 164.59375 C 131.699219 165.921875 132.105469 167.699219 132.132812 169.117188 C 132.164062 172.226562 130.960938 176.015625 134.75 176.480469 C 135.628906 176.480469 136.535156 175.382812 137.363281 175.050781 C 137.363281 174.609375 137.640625 174.890625 137.855469 175 C 140.058594 175.980469 141.609375 173.796875 142.140625 171.960938 C 139.109375 171.960938 137 173.546875 134.273438 171.710938 C 134.273438 169.410156 136.710938 167.308594 139.109375 168.4375 C 139.824219 168.785156 142.316406 171.828125 143.03125 169.507812 C 144.308594 165.449219 136.984375 165.523438 134.515625 165.230469 "/>
</g>
</svg>
