<?xml version="1.0" encoding="utf-8"?>
<!-- Generator: Adobe Illustrator 25.3.1, SVG Export Plug-In . SVG Version: 6.00 Build 0)  -->
<svg version="1.1" id="圖層_1" xmlns="http://www.w3.org/2000/svg" xmlns:xlink="http://www.w3.org/1999/xlink" x="0px" y="0px"
	 viewBox="0 0 425 477" enable-background="new 0 0 425 477" xml:space="preserve">
<g>
	<rect x="-32" y="6.9" fill="none" width="470" height="470"/>
	<path fill="#FFFFFF" d="M411.8,252.4c0.1-1.8-0.3-3.5-0.9-5.1c-2.3-5.7-8-9.2-16.1-9.9c-0.6-0.1-1.2-0.1-1.9-0.1
		c-2.6,0-5,0.5-7,1.1c-2.8-1.4-5.4-1.7-6.9-1.7c-0.9,0-1.8,0.1-2.7,0.3c-0.7-0.1-1.3-0.1-2-0.1c-0.8,0-1.6,0.1-2.3,0.2
		c-10.7-69.1-63.9-126-134.1-140.5c-7.9-5.4-15.2-19.3-19.2-29.8c1-2.1,1.9-4.3,2.4-6.6c9.4-2.2,17.2-8.3,17.3-18.3
		c-0.1-9.7-8-15.8-17.4-18c-0.7-2.7-1.6-5.1-2.6-7c-3.4-6.4-9-10.1-15.7-10.2c-6.4,0.1-12,3.8-15.3,10.2c-1,1.9-1.9,4.3-2.5,7
		c-9.4,2.2-17.2,8.3-17.4,18.3c0.1,9.7,7.9,15.8,17.3,18c0.6,2.3,1.4,4.5,2.5,6.6c-4,10.5-11.3,24.3-19.2,29.7
		C89.1,112.9,32,182.5,32,262.9c0,41.3,14.9,79.1,39.7,108.6c-8.7-4.3-19.4-8.3-30.8-9.9l-6-0.8c-0.5-0.1-1.1-0.1-1.6-0.1
		c-4.5,0-8.6,2.6-10.6,6.7c-2.2,4.6-1.2,10.1,2.5,13.6l4.4,4.2c1.1,1,2.1,2,3.1,3c-0.5,0-10.2,0.8-10.2,0.8
		c-5.5,0.4-9.9,4.6-10.7,10c-0.8,5.4,2.3,10.7,7.4,12.6l8,3.1c9.7,3.8,37.3,17.2,48.8,33.7c2.8,4,7.2,6.3,12,6.3
		c1.5,0,3.1-0.2,4.5-0.7c2.8-0.9,5.1-2.6,6.8-4.6c19.9,10.9,55.9,26.2,102.8,27.6c0,0,0.6,0,0.8,0c0.2,0,0.5,0,0.8,0
		c47.5-1.4,83.1-16.5,103-27.5c1.7,2,4,3.6,6.7,4.5c1.5,0.5,3,0.7,4.5,0.7c4.8,0,9.2-2.3,12.1-6.4c11.5-16.4,39.1-29.9,48.8-33.7
		l8-3.1c5.1-2,8.2-7.2,7.4-12.6c-0.8-5.4-5.2-9.6-10.7-10c0,0-9.7-0.8-10.2-0.8c1-1,2-1.9,3.1-3l4.4-4.2c3.7-3.5,4.7-9,2.5-13.6
		c-2-4.1-6.1-6.7-10.6-6.7c-0.5,0-1.1,0-1.6,0.1l-6,0.8c-11.5,1.6-22.2,5.7-31,10c19.6-23.2,33.1-51.7,37.9-82.9
		c0.8,0.1,1.5,0.2,2.3,0.2c0.6,0,1.3,0,2-0.1c0.9,0.2,1.8,0.3,2.7,0.3c1.5,0,4.1-0.3,6.9-1.7c2,0.7,4.4,1.1,7,1.1
		c0.6,0,1.3,0,1.8-0.1c8.1-0.6,13.8-4.2,16-9.7c0.7-1.7,1.1-3.5,1-5.3c2.2-3.2,3.5-7.1,3.6-10.2c0-0.2,0-0.4,0-0.5
		C415.3,259.4,414,255.6,411.8,252.4z"/>
	<g>
		<path fill="#FFFFFF" d="M203,435.7c1.3,0,2.5-0.1,3.8-0.2c59-2.9,94.9-29.1,106.6-39c7.9-6.6,12.4,2.8,13.3,8.2
			c1,6.2-2.5,20.8-2.5,20.8s-4.1-1.4-8.4,2c-4.3,3.3-46.2,33.7-112.4,35.6c-0.1,0-0.2,0-0.3,0l0,0c-0.1,0-0.2,0-0.3,0
			c-66.2-2-108.1-32.3-112.4-35.6c-4.3-3.3-8.4-2-8.4-2s-3.6-14.6-2.5-20.8c0.9-5.4,5.5-14.8,13.3-8.2c11.6,9.8,47.5,36.1,106.6,39
			C200.5,435.6,201.7,435.7,203,435.7L203,435.7z"/>
		<path fill="#FFFFFF" d="M81.9,425.6c0,0-3.6-14.6-2.6-20.8c0.5-3.1,2.3-7.7,5.2-9.6l0.2,0.1c0,0-21.7-16.9-45.7-20.2
			c11.6,11,21,22.4,19.4,23.6c-1.6,1.2-26.3,3.1-26.3,3.1s38.5,14.9,55,38.6c2.2,3.2,6.3-8.5-1.5-10.6
			C84.9,429.6,77.8,427,81.9,425.6L81.9,425.6z"/>
		<path fill="#FFFFFF" d="M324.1,425.6c0,0,3.6-14.6,2.5-20.8c-0.5-3.1-2.3-7.7-5.3-9.6l-0.2,0.1c0,0,21.7-16.9,45.7-20.2
			c-11.6,11-20.9,22.4-19.4,23.6c1.6,1.2,26.3,3.1,26.3,3.1s-38.5,14.9-55,38.6c-2.2,3.2-6.3-8.5,1.5-10.6
			C321.1,429.6,328.2,427,324.1,425.6L324.1,425.6z"/>
	</g>
	<g>
		<g>
			<path fill="#70AA8E" d="M205.6,65C205.6,65,205.5,65,205.6,65c4.5-3.1,5.6-14,4.2-16v0c2.4,1.6,16.8-0.1,16.9-6.8
				c-0.1-6.7-14.5-8.3-16.9-6.7v0c1.6-2.3-0.1-16.7-6.8-16.8c-6.7,0.1-8.3,14.5-6.8,16.8v0c-2.4-1.6-16.8,0.1-16.9,6.7
				c0.1,6.7,14.5,8.3,16.9,6.8v0c-1.3,2-0.3,12.9,4.3,16v0c0,0-10.7,34.7-29.4,43.6c3.2-1.5,31.9,2.6,31.9,2.6s28.7-4.1,31.9-2.6
				C216.2,99.7,205.6,65,205.6,65z"/>
			<path fill="#00683D" d="M203,421.4c87.8,0,158.9-70.8,158.9-158.1c0-87.3-71.1-158-158.9-158c-87.7,0-158.9,70.8-158.9,158
				C44.1,350.7,115.3,421.4,203,421.4z"/>
			<g>
				<defs>
					<path id="SVGID_1_" d="M203,395.1c73.6,0,133.3-59.2,133.3-132.3c0-73-59.7-132.3-133.3-132.3c-73.6,0-133.3,59.2-133.3,132.3
						C69.7,335.9,129.4,395.1,203,395.1z"/>
				</defs>
				<use xlink:href="#SVGID_1_"  overflow="visible" fill="#FFFFFF"/>
				<clipPath id="SVGID_2_">
					<use xlink:href="#SVGID_1_"  overflow="visible"/>
				</clipPath>
				<g clip-path="url(#SVGID_2_)">
					<polygon fill="#9EC4AF" points="149.8,135.2 149.8,135.2 149.4,135.4 148.9,135.6 148.9,135.6 121.6,146.8 159.3,200.8 
						161.5,199.9 130,152 154.5,152.9 172.6,195.3 173.8,194.8 174.6,194.5 175.9,194 158.3,151.3 174.9,133.6 186.9,189.4 
						189.1,188.6 177.2,124.1 					"/>
					<polygon fill="#9EC4AF" points="74.1,209.8 74.1,209.8 73.9,210.2 73.7,210.7 73.7,210.7 62.4,237.7 127.7,249.5 128.6,247.4 
						72.1,235.4 90,219 133.1,236.4 133.7,235.2 134,234.3 134.5,233.1 91.5,215.2 90.7,191.1 139.1,222.2 140,220.1 85.4,182.8 
											"/>
					<polygon fill="#9EC4AF" points="73.9,315.4 73.8,315.4 74,315.9 74.2,316.3 74.2,316.3 85.6,343.3 140.1,306 139.3,303.9 
						90.8,335 91.7,310.8 134.7,293 134.2,291.8 133.8,290.9 133.3,289.7 90.1,307.1 72.2,290.7 128.7,278.7 127.8,276.6 
						62.6,288.4 					"/>
					<polygon fill="#9EC4AF" points="149.3,390.3 149.3,390.3 149.7,390.5 150.2,390.7 150.2,390.7 177.5,401.8 189.4,337.3 
						187.3,336.4 175.2,392.3 158.6,374.6 176.2,331.9 175,331.4 174.1,331 172.9,330.5 154.8,373 130.4,373.9 161.8,326 
						159.7,325.1 122,379.1 					"/>
					<polygon fill="#9EC4AF" points="256.2,390.5 256.2,390.5 256.6,390.3 257,390.2 257,390.2 284.3,378.9 246.7,325 244.5,325.9 
						275.9,373.8 251.5,372.9 233.4,330.4 232.2,330.9 231.3,331.3 230.1,331.8 247.7,374.4 231.1,392.1 219,336.3 216.9,337.2 
						228.8,401.7 					"/>
					<polygon fill="#9EC4AF" points="331.9,316 331.9,316 332.1,315.5 332.3,315.1 332.3,315.1 343.5,288.1 278.3,276.3 
						277.4,278.4 333.9,290.3 316,306.8 272.8,289.4 272.3,290.6 272,291.4 271.5,292.6 314.4,310.5 315.3,334.6 266.9,303.6 
						266,305.7 320.5,342.9 					"/>
					<polygon fill="#9EC4AF" points="332.1,210.3 332.1,210.3 332,209.9 331.8,209.4 331.8,209.4 320.4,182.5 265.8,219.7 
						266.7,221.8 315.2,190.8 314.3,214.9 271.3,232.8 271.8,234 272.2,234.9 272.7,236.1 315.9,218.7 333.8,235.1 277.3,247 
						278.2,249.1 343.4,237.3 					"/>
					<polygon fill="#9EC4AF" points="256.7,135.4 256.7,135.4 256.3,135.3 255.8,135.1 255.8,135.1 228.5,123.9 216.6,188.4 
						218.7,189.3 230.8,133.5 247.4,151.2 229.8,193.8 231,194.3 231.9,194.7 233.1,195.2 251.2,152.7 275.6,151.8 244.2,199.7 
						246.3,200.6 284,146.7 					"/>
				</g>
			</g>
			<path fill="#70AA8E" d="M403.7,262.8c-0.1-2.8-3.4-6.6-4-5.4c-0.9,1.9-4.8,4.4-4.8,4.4h-9.4c-0.1-2.2-0.4-4.2-0.8-6
				c2.8-0.9,6-2.4,8.2-3.6c2.6-1.4,4.3-0.7,4.3-0.7c0.5,0.4-0.8,1.5-0.9,2c-0.5,1.3-0.2,1.7,0.9,1.3c0.2-0.1,3.5-1.7,2.9-3
				c-0.7-1.8-4.5-2.5-6.2-2.6c-5.1-0.4-8.8,3.3-10,3.6c-0.1,0-0.1,0-0.2,0c-1.2-2.6-2.8-4.2-4.5-4.2c-1.4,0-2.6,0.9-3.6,2.5
				c-0.4-1.2-0.4-2.3-0.5-2.3c-3.6-0.6-5.7,4.3-2.7,6.3c0.4,0.2,0.8,0.5,1.3,0.6c-0.5,1.8-0.8,3.9-0.9,6.2h-10.8v2.2h10.8
				c0.1,2.2,0.4,4.3,0.9,6.2c-0.5,0.2-0.9,0.4-1.3,0.6c-3,1.9-0.9,6.8,2.7,6.3c0.1,0,0.1-1.2,0.5-2.4c1,1.6,2.3,2.5,3.6,2.5
				c1.8,0,3.4-1.6,4.5-4.2c0.1,0,0.1,0,0.2,0c1.2,0.3,4.8,4,10,3.6c1.7-0.1,5.5-0.8,6.2-2.6c0.5-1.3-2.7-2.9-2.9-3
				c-1-0.4-1.3,0-0.9,1.3c0.2,0.5,1.4,1.6,0.9,2c0,0-1.7,0.7-4.3-0.7c-2.2-1.2-5.4-2.7-8.2-3.6c0.5-1.8,0.8-3.8,0.8-6h9.4
				c0,0,4,2.5,4.8,4.4C400.2,269.5,403.6,265.7,403.7,262.8 M379.1,251.7c0.9,0,1.8,0.7,2.6,1.7c-1.7,0.2-3.7,0.6-3.7,0.6
				c-0.6-0.1-1-0.4-1.4-0.7C377.3,252.3,378.2,251.7,379.1,251.7z M379.1,275c-0.9,0-1.8-0.6-2.5-1.6c0.4-0.3,0.8-0.6,1.4-0.7
				c0,0,2,0.3,3.7,0.6C380.9,274.3,380,275,379.1,275z M383.1,270c-0.9-0.2-1.6-0.4-2.3-0.4c0,0-3-0.1-5.8,0.6
				c-0.5-1.6-0.8-3.6-0.9-5.7h9.8C383.9,266.5,383.6,268.4,383.1,270z M374.2,262.3c0.1-2.1,0.4-4.1,0.9-5.7
				c2.8,0.7,5.8,0.6,5.8,0.6c0.6,0,1.4-0.2,2.3-0.4c0.5,1.6,0.8,3.5,0.8,5.5H374.2z"/>
		</g>
		<path fill="#007F58" d="M306.9,243.8c-8.1,6.5-9.8,3.7-10.3,2c-0.5-1.6-0.6-5.9,1.6-6.8l-16.3-9l5-17.5c-2.2,0.9-5.2-2.2-6-3.7
			c-0.8-1.5-1.7-4.7,8.7-5.8l7.4-33.8l-34.1,7.4c-1.1,10.3-4.3,9.5-5.8,8.6c-1.5-0.8-4.6-3.7-3.7-6l-18,5.1l-8.9-15.9
			c-0.9,2.2-5.2,2.1-6.9,1.6c-1.7-0.5-4.5-2.1,2-10.2l-18.9-29.1l-18.9,29.1c6.5,8.1,3.7,9.7,2,10.2c-1.7,0.5-5.9,0.6-6.9-1.6
			l-9.1,16.2l-17.6-5c0.9,2.2-2.2,5.1-3.7,5.9c-1.5,0.8-4.7,1.7-5.8-8.6l-34.1-7.4l7.4,33.8c10.4,1.1,9.5,4.3,8.7,5.8
			c-0.8,1.5-3.8,4.6-6,3.7l5.1,17.8l-16,8.9c2.2,0.9,2.1,5.2,1.6,6.8c-0.5,1.7-2.1,4.5-10.3-2l-29.4,18.7L99,281.9
			c8.1-6.5,9.8-3.7,10.3-2c0.5,1.7,0.6,5.9-1.6,6.8l16.3,9l-5,17.5c2.2-0.9,5.2,2.2,6,3.7c0.8,1.5,1.7,4.7-8.7,5.8l-7.4,33.8
			l34.1-7.4c1.1-10.3,4.3-9.5,5.8-8.6c1.5,0.8,4.6,3.8,3.7,6l18-5.1l8.9,15.9c0.9-2.2,5.2-2.1,6.9-1.6c1.7,0.5,4.5,2.1-2,10.2
			l18.9,29.1l18.9-29.1c-6.5-8.1-3.7-9.7-2-10.2c1.7-0.5,5.9-0.6,6.9,1.6l9.1-16.2l17.6,5c-0.9-2.2,2.2-5.1,3.7-6
			c1.5-0.8,4.7-1.7,5.8,8.6l34.1,7.4l-7.4-33.8c-10.4-1.1-9.5-4.3-8.7-5.8c0.8-1.5,3.8-4.6,6-3.7l-5.1-17.8l16-8.9
			c-2.2-0.9-2.1-5.2-1.6-6.8c0.5-1.7,2.1-4.5,10.3,2l29.4-18.7L306.9,243.8z"/>
	</g>
	<path fill="#FFFFFF" d="M203,324.7c34.4,0,62.3-27.7,62.3-61.8c0-34.2-27.9-61.8-62.3-61.8c-34.4,0-62.3,27.7-62.3,61.8
		C140.7,297,168.6,324.7,203,324.7z"/>
	<g>
		<g>
			<path fill="#231815" d="M194.7,314.7c-10.3,0-18.4-22.8-18.4-51.9c0-29.1,8.1-51.9,18.4-51.9c10.3,0,18.4,22.8,18.4,51.9
				C213.1,292,205,314.7,194.7,314.7z M194.7,213c-8.9,0-16.4,22.8-16.4,49.8c0,27,7.5,49.9,16.4,49.9c8.9,0,16.4-22.8,16.4-49.9
				C211.1,235.8,203.6,213,194.7,213z"/>
			<path fill="#231815" d="M172.9,297.3c-4.6,0-8-1.2-9.7-3.8l0,0c-5.8-8.5,8.5-28,32.5-44.4c24.1-16.4,47.5-22.5,53.3-14
				c5.8,8.5-8.5,28-32.5,44.4C199.7,290.8,183.3,297.3,172.9,297.3z M164.8,292.3c5,7.3,28.1,0.7,50.4-14.5
				c22.3-15.2,37-34.3,32-41.6c-5-7.3-28.1-0.7-50.5,14.5C174.5,265.9,159.8,285,164.8,292.3L164.8,292.3z"/>
			<path fill="#231815" d="M234.1,298.5c-10.6,0-27.2-6.2-43.3-16.6c-24.5-15.7-39.4-34.7-33.8-43.4c5.6-8.7,29.1-3.2,53.6,12.4
				c11.6,7.4,21.4,15.8,27.8,23.9c6.6,8.3,8.7,15.2,6,19.6l0,0c-1.2,1.9-3.2,3.1-6,3.7C237.1,298.4,235.7,298.5,234.1,298.5z
				 M167.2,236.4c-4.1,0-7.1,1-8.5,3.2c-4.8,7.5,10.4,26.1,33.2,40.6c18.1,11.6,36.7,18,46.1,15.9c2.2-0.5,3.8-1.4,4.7-2.8l0,0
				c2.2-3.5,0.1-9.7-5.9-17.2c-6.3-7.9-16-16.2-27.3-23.4C193.4,242.4,177.1,236.4,167.2,236.4z"/>
		</g>
		<path fill="#00683D" d="M195,267.5c2.6,0,4.7-2.1,4.7-4.7c0-2.6-2.1-4.7-4.7-4.7c-2.6,0-4.7,2.1-4.7,4.7
			C190.3,265.4,192.4,267.5,195,267.5z"/>
		<path fill="#00683D" d="M174.6,298.8c1.5,0,2.6-1.2,2.6-2.6c0-1.4-1.2-2.6-2.6-2.6c-1.5,0-2.6,1.2-2.6,2.6
			C171.9,297.7,173.1,298.8,174.6,298.8z"/>
	</g>
	<g>
		<polygon fill="#FFFFFF" points="187.6,185.9 188.9,192.7 192.1,192.1 190.9,185.3 		"/>
		<polygon fill="#FFFFFF" points="190.2,200.2 193.5,199.6 192.9,196.6 189.7,197.2 		"/>
		<polygon fill="#FFFFFF" points="174.4,189.7 176.8,196.2 179.9,195 177.5,188.6 		"/>
		<polygon fill="#FFFFFF" points="179.4,203.3 182.5,202.2 181.5,199.3 178.4,200.5 		"/>
		<polygon fill="#FFFFFF" points="162.1,195.8 165.5,201.7 168.4,200 164.9,194.1 		"/>
		<polygon fill="#FFFFFF" points="169.3,208.3 172.2,206.6 170.7,204 167.8,205.6 		"/>
		<polygon fill="#FFFFFF" points="150.9,203.8 155.4,209.1 157.9,207 153.5,201.7 		"/>
		<polygon fill="#FFFFFF" points="160.3,214.9 162.8,212.8 160.9,210.5 158.3,212.6 		"/>
		<polygon fill="#FFFFFF" points="141.4,213.7 146.7,218.1 148.8,215.6 143.5,211.2 		"/>
		<polygon fill="#FFFFFF" points="152.6,223 154.7,220.5 152.3,218.5 150.2,221 		"/>
		<polygon fill="#FFFFFF" points="133.7,225.1 139.7,228.5 141.4,225.6 135.4,222.2 		"/>
		<polygon fill="#FFFFFF" points="146.3,232.3 148,229.4 145.3,227.9 143.7,230.8 		"/>
		<polygon fill="#FFFFFF" points="128.2,237.6 134.6,239.9 135.8,236.8 129.3,234.5 		"/>
		<polygon fill="#FFFFFF" points="141.9,242.5 143,239.4 140.1,238.4 139,241.5 		"/>
		
			<rect x="126.9" y="246.4" transform="matrix(0.1722 -0.9851 0.9851 0.1722 -139.6841 333.4318)" fill="#FFFFFF" width="3.3" height="6.9"/>
		<polygon fill="#FFFFFF" points="139.2,253.4 139.8,250.1 136.8,249.6 136.2,252.8 		"/>
		<rect x="123.9" y="261.2" fill="#FFFFFF" width="6.9" height="3.3"/>
		<rect x="135.5" y="261.2" fill="#FFFFFF" width="3.1" height="3.3"/>
		<polygon fill="#FFFFFF" points="125.4,278.1 132.2,276.9 131.7,273.7 124.9,274.8 		"/>
		<polygon fill="#FFFFFF" points="139.8,275.6 139.2,272.3 136.2,272.9 136.8,276.1 		"/>
		<polygon fill="#FFFFFF" points="129.3,291.2 135.8,288.9 134.6,285.8 128.1,288.1 		"/>
		<polygon fill="#FFFFFF" points="143,286.3 141.8,283.2 139,284.2 140.1,287.3 		"/>
		<polygon fill="#FFFFFF" points="135.4,303.5 141.3,300.1 139.7,297.2 133.7,300.6 		"/>
		<polygon fill="#FFFFFF" points="148,296.3 146.3,293.4 143.7,294.9 145.3,297.8 		"/>
		<polygon fill="#FFFFFF" points="143.5,314.5 148.8,310.1 146.6,307.6 141.4,312 		"/>
		<polygon fill="#FFFFFF" points="154.7,305.2 152.5,302.7 150.2,304.7 152.3,307.2 		"/>
		<polygon fill="#FFFFFF" points="153.4,324 157.9,318.8 155.3,316.6 150.9,321.9 		"/>
		<polygon fill="#FFFFFF" points="162.8,312.9 160.3,310.8 158.3,313.1 160.8,315.3 		"/>
		<polygon fill="#FFFFFF" points="164.9,331.6 168.3,325.7 165.5,324 162,330 		"/>
		<polygon fill="#FFFFFF" points="172.2,319.1 169.3,317.4 167.8,320.1 170.6,321.7 		"/>
		<polygon fill="#FFFFFF" points="177.5,337.1 179.9,330.7 176.7,329.6 174.4,336 		"/>
		<polygon fill="#FFFFFF" points="182.5,323.5 179.4,322.4 178.3,325.3 181.4,326.4 		"/>
		
			<rect x="186.4" y="335.1" transform="matrix(0.1742 -0.9847 0.9847 0.1742 -174.8089 465.0285)" fill="#FFFFFF" width="6.9" height="3.3"/>
		<polygon fill="#FFFFFF" points="193.4,326.1 190.1,325.6 189.6,328.6 192.9,329.1 		"/>
		<rect x="201.3" y="334.5" fill="#FFFFFF" width="3.3" height="6.9"/>
		<rect x="201.3" y="326.8" fill="#FFFFFF" width="3.3" height="3"/>
		<polygon fill="#FFFFFF" points="218.3,339.8 217.1,333.1 213.9,333.7 215.1,340.4 		"/>
		<polygon fill="#FFFFFF" points="215.8,325.6 212.5,326.2 213.1,329.2 216.3,328.6 		"/>
		<polygon fill="#FFFFFF" points="231.6,336 229.2,329.6 226.1,330.7 228.4,337.2 		"/>
		<polygon fill="#FFFFFF" points="226.6,322.4 223.5,323.6 224.5,326.4 227.6,325.3 		"/>
		<polygon fill="#FFFFFF" points="243.9,330 240.5,324 237.6,325.7 241.1,331.6 		"/>
		<polygon fill="#FFFFFF" points="236.7,317.5 233.8,319.1 235.3,321.7 238.2,320.1 		"/>
		<polygon fill="#FFFFFF" points="255.1,321.9 250.6,316.7 248.1,318.8 252.5,324 		"/>
		<polygon fill="#FFFFFF" points="245.7,310.8 243.2,312.9 245.1,315.3 247.7,313.2 		"/>
		<polygon fill="#FFFFFF" points="264.6,312 259.3,307.6 257.2,310.2 262.5,314.6 		"/>
		<polygon fill="#FFFFFF" points="253.4,302.7 251.3,305.3 253.7,307.2 255.8,304.7 		"/>
		<polygon fill="#FFFFFF" points="272.3,300.7 266.3,297.3 264.6,300.1 270.6,303.5 		"/>
		<polygon fill="#FFFFFF" points="259.6,293.4 258,296.3 260.6,297.8 262.3,295 		"/>
		<polygon fill="#FFFFFF" points="277.8,288.2 271.4,285.8 270.2,288.9 276.7,291.3 		"/>
		<polygon fill="#FFFFFF" points="264.1,283.2 263,286.3 265.9,287.4 267,284.3 		"/>
		
			<rect x="275.8" y="272.5" transform="matrix(0.1721 -0.9851 0.9851 0.1721 -42.1051 501.7442)" fill="#FFFFFF" width="3.3" height="6.9"/>
		<polygon fill="#FFFFFF" points="266.8,272.4 266.2,275.6 269.2,276.2 269.8,272.9 		"/>
		<rect x="275.1" y="261.2" fill="#FFFFFF" width="6.9" height="3.3"/>
		<polygon fill="#FFFFFF" points="267.5,261.2 267.5,264.5 270.5,264.5 270.5,261.2 		"/>
		
			<rect x="274" y="248.2" transform="matrix(0.9849 -0.1729 0.1729 0.9849 -39.0336 51.7486)" fill="#FFFFFF" width="6.9" height="3.3"/>
		<polygon fill="#FFFFFF" points="266.2,250.2 266.8,253.4 269.8,252.9 269.2,249.6 		"/>
		<polygon fill="#FFFFFF" points="276.7,234.5 270.2,236.9 271.4,240 277.9,237.6 		"/>
		<polygon fill="#FFFFFF" points="263,239.5 264.2,242.6 267,241.5 265.9,238.4 		"/>
		<polygon fill="#FFFFFF" points="270.6,222.2 264.7,225.7 266.3,228.5 272.3,225.1 		"/>
		<polygon fill="#FFFFFF" points="258,229.5 259.7,232.3 262.3,230.8 260.7,228 		"/>
		<polygon fill="#FFFFFF" points="262.5,211.2 257.2,215.6 259.3,218.1 264.6,213.7 		"/>
		<polygon fill="#FFFFFF" points="251.3,220.5 253.5,223 255.8,221.1 253.7,218.6 		"/>
		<polygon fill="#FFFFFF" points="252.5,201.7 248.1,207 250.7,209.1 255.1,203.9 		"/>
		<polygon fill="#FFFFFF" points="243.2,212.8 245.7,214.9 247.7,212.6 245.2,210.5 		"/>
		<polygon fill="#FFFFFF" points="241.1,194.1 237.6,200.1 240.5,201.7 244,195.8 		"/>
		<polygon fill="#FFFFFF" points="233.8,206.7 236.7,208.3 238.2,205.7 235.3,204 		"/>
		<polygon fill="#FFFFFF" points="228.5,188.6 226.1,195.1 229.3,196.2 231.6,189.7 		"/>
		<polygon fill="#FFFFFF" points="223.5,202.2 226.6,203.3 227.7,200.5 224.6,199.3 		"/>
		<polygon fill="#FFFFFF" points="215.1,185.3 213.9,192.1 217.2,192.7 218.4,185.9 		"/>
		
			<rect x="213" y="196.7" transform="matrix(0.1723 -0.985 0.985 0.1723 -17.885 375.4812)" fill="#FFFFFF" width="3" height="3.3"/>
		<rect x="201.4" y="184.4" fill="#FFFFFF" width="3.3" height="6.9"/>
		<rect x="201.4" y="195.9" fill="#FFFFFF" width="3.3" height="3"/>
	</g>
	<g>
		<g>
			<g>
				<path fill="#FFFFFF" d="M120.7,143.2c0.2,0.3,0.3,0.6,0.1,0.9c-0.1,0.3-0.3,0.5-0.6,0.7l-1.9,1.3c0.3,0.1,1,0.1,2,0.1
					c0.7,0,1.3,0.2,1.6,0.6c0.2,0.2,0.2,0.5,0.1,0.7c-0.1,0.3-0.2,0.5-0.4,0.6c-0.4,0.3-0.9,0.2-1.6-0.3c-0.9-0.8-1.6-1.3-1.9-1.4
					c0,0.4,0.3,1.1,0.7,2.2c0.3,0.7,0.2,1.3-0.2,1.6c-0.2,0.1-0.4,0.2-0.7,0.2c-0.3,0-0.5-0.2-0.6-0.4c-0.3-0.5-0.4-1-0.1-1.7
					c0.4-0.9,0.6-1.6,0.6-1.9l-1.9,1.3c-0.3,0.2-0.6,0.3-0.9,0.3c-0.3,0-0.6-0.2-0.8-0.4c-0.2-0.3-0.3-0.5-0.2-0.8
					c0-0.3,0.2-0.5,0.4-0.7c0.3-0.2,0.8-0.3,1.5-0.1c0.8,0.2,1.4,0.2,1.7,0.1c-0.3-0.4-0.7-0.8-1.3-1.2c-0.6-0.4-0.9-0.6-1-0.8
					c-0.2-0.3-0.3-0.6-0.3-0.9c0-0.3,0.1-0.6,0.4-0.7c0.2-0.2,0.5-0.2,0.8-0.1c0.3,0.1,0.6,0.3,0.7,0.5c0.1,0.2,0.3,0.6,0.4,1.3
					c0.2,0.7,0.4,1.2,0.6,1.6c0.2-0.2,0.4-0.9,0.6-2c0.1-0.5,0.3-0.8,0.5-1c0.2-0.2,0.5-0.2,0.8-0.2
					C120.3,142.8,120.5,143,120.7,143.2z"/>
				<path fill="#FFFFFF" d="M125.2,130.9l-0.1-0.2c0,0,0,0,0.1,0c2-1,3.3-0.9,3.9,0.3c0.4,0.8,0.3,1.5-0.5,1.9
					c-0.6,0.3-1.1,0.1-1.5-0.6C126.5,131.4,125.9,130.9,125.2,130.9z M126.4,135.6l0-0.3c0.7-0.4,1.5-0.5,2.2-0.5
					c0.7,0.1,1.2,0.4,1.5,1c0.4,0.8,0.3,1.5-0.5,1.9c-0.6,0.3-1.1,0.1-1.5-0.6C127.6,136.2,127,135.7,126.4,135.6z M136.8,126.8
					c0.3-0.9,0.4-1.4,0.5-1.4c0.1-0.1,0.5,0,1.1,0.1c0.6,0.1,1,0.3,1,0.4c0,0.1,0.1,0.2,0,0.3c-0.1,0.4-0.2,0.7-0.1,0.8l1.9,3.6
					c0.1,0.1,0.5,1,1.4,2.5c0.2,0.4-0.2,0.8-1.1,1.3c-0.4,0.2-0.6,0.2-0.7-0.1c-0.6-1.2-1.1-2.2-1.6-3.1l-2.1-4.1l-5.7,3l2.5,4.8
					c0.1,0.2,0.6,1,1.4,2.6c0.2,0.4-0.2,0.8-1.1,1.3c-0.3,0.2-0.6,0.1-0.7-0.1c-0.6-1.2-1.2-2.3-1.6-3.1l-1.6-3.1
					c-0.5-1-1-1.8-1.4-2.4c0.6-0.1,1.4-0.3,2.4-0.4l1.4-0.7c-0.1-0.7-0.4-1.3-0.8-2c0,0,0-0.1-0.1-0.1c1.9-0.6,2.9-0.8,3-0.6
					c0.1,0.1,0,0.2-0.1,0.3c-0.2,0.2-0.4,0.3-0.4,0.3c-0.2,0.7-0.7,1.4-1.4,2L136.8,126.8z M134.2,143c0.5,0.6,0.7,1,0.9,1.3
					c0.3,0.7,0.2,1.2-0.5,1.5c-0.9,0.5-1.5,0.3-1.9-0.4c-0.1-0.2-0.2-0.5-0.4-1c-0.1-0.5-0.3-0.8-0.4-1.1c-0.3-0.7-1-0.9-1.9-0.9
					l-0.1-0.3c0.1,0,0.1-0.1,0.2-0.1c0.8-0.4,1.1-1,1-1.7l-1.1-7.6l0.3,0l2.2,7.3c0.2,0.6,0.3,1,0.5,1.4
					C133.3,141.8,133.7,142.3,134.2,143z M139.2,131.1c0,0.1,0,0.1-0.1,0.2l-2.1,1.1l0.2,0.4c1.4-0.6,2.3-0.5,2.8,0.3
					c0.3,0.6,0.2,1-0.3,1.3c-0.3,0.2-0.6,0-0.9-0.4c-0.5-0.7-0.9-1-1.4-0.9l0.2,0.4c0.1,0.2,0.4,0.8,1,1.8l0,0
					c0.2,0.3-0.1,0.7-0.9,1.1c-0.3,0.2-0.5,0.1-0.6-0.1l0,0c-0.2-0.5-0.5-0.9-0.6-1.2c-0.1-0.1-0.1-0.2-0.1-0.2
					c-0.2,0.8-0.5,1.6-1,2.3l-0.2-0.1c0.2-1.1,0.2-2.2,0-3.5l-0.5,0.2c-0.3,0.2-0.5,0.3-0.7,0.4l-0.5-0.4c0.5-0.1,1.1-0.4,1.7-0.7
					c0.1-0.1,0.2-0.1,0.3-0.2l-1.1-2.2c-0.3,0.2-0.6,0.3-0.9,0.5c-0.2,0.1-0.5,0.3-0.9,0.4l-0.2-0.2c1.2-1,2.3-2.1,3.3-3.3
					c1.2,0.1,1.8,0.3,1.9,0.5c0,0.1,0,0.2-0.1,0.2c0,0-0.1,0-0.1,0c-0.2,0-0.3,0-0.3,0.1c0,0,0,0,0,0c-0.4,0.3-0.8,0.6-1.3,1
					l1.2,2.2l0.7-0.4c0.1-0.7,0.1-1.1,0.2-1.1c0.1,0,0.3,0,0.7,0.2C138.9,130.8,139.1,131,139.2,131.1z M132.8,131.7
					c0.9-0.4,1.5-0.3,1.9,0.3c0.2,0.5,0.2,0.8-0.3,1c-0.3,0.2-0.5,0.1-0.7-0.2c0,0,0,0,0,0c0,0,0,0,0-0.1c-0.3-0.5-0.6-0.8-0.8-0.8
					L132.8,131.7z M136.7,139.4c-1.2,0.6-2.1,1.1-2.6,1.5l-0.7-0.6c0.7-0.2,1.8-0.7,3.3-1.5l0.8-0.4c-0.1-0.5-0.4-1.1-0.7-1.7
					c1.9-0.6,2.9-0.9,3-0.7c0.1,0.1,0.1,0.2,0,0.3c-0.3,0.3-0.4,0.4-0.4,0.5c0.1,0.2,0.1,0.4,0.1,0.6l2.1-1.1c0.2-1.3,0.4-2,0.5-2
					c0.1-0.1,0.5,0,1.3,0.3c0.7,0.2,1.1,0.4,1.2,0.5c0.1,0.1,0.1,0.2,0,0.3l-4.3,2.3c1.6,0.8,3.5,0.7,5.6-0.3l0.2,0.3
					c-0.3,0.2-0.3,0.8,0,1.8c0.2,0.4,0.1,0.6,0,0.7c-0.6,0.3-1.6,0.3-2.8,0c-1.2-0.3-2.3-1.1-3.3-2.3l-0.3,0.1
					c0.4,1.7,0.2,3.1-0.6,4.4c-0.8,1.3-1.9,2.4-3.3,3.1l-0.2-0.2c0.7-0.7,1.3-1.7,1.7-2.9c0.4-1.2,0.5-2.3,0.3-3.4L136.7,139.4z
					 M136.8,131.6c0-0.7-0.2-1.4-0.5-2.1c1.1-0.1,1.6-0.2,1.7,0c0.1,0.1,0,0.2-0.1,0.3c-0.1,0-0.1,0-0.2,0.1c0,0-0.1,0-0.1,0.1
					c-0.1,0.6-0.3,1.2-0.7,1.8L136.8,131.6z"/>
				<path fill="#FFFFFF" d="M159,121.8c0.1,0.4,0.4,1.2,0.8,2.4l0,0c0.1,0.4-0.3,0.7-1.4,1.1c-0.3,0.1-0.6,0.1-0.6-0.2l-0.3-0.9
					l-2.1,0.6l1.5,5c0.2,0.6,0.7,2.2,1.5,4.7c0.1,0.4-0.4,0.7-1.4,1.1c-0.4,0.1-0.6,0-0.7-0.2l0,0c-0.7-2.4-1.1-4.1-1.4-5l-2.4-8
					c-0.4-1.4-0.8-2.6-1.2-3.5c0.7,0,1.5,0,2.5,0l1.9-0.6c0.5-0.8,0.7-1.3,0.9-1.3c0.1,0,0.5,0.1,1.1,0.3c0.6,0.2,0.9,0.4,1,0.5
					c0,0.1,0,0.2,0,0.3c-0.2,0.4-0.4,0.7-0.3,0.8L159,121.8z M153.8,119.4l0.7,2.2l2.1-0.6l-0.7-2.2L153.8,119.4z M156.7,121.4
					l-2.1,0.6l0.7,2.3l2.1-0.6L156.7,121.4z M169.6,129.1c0.3,0.9,0.2,1.6-0.3,2.2c-0.5,0.6-0.9,0.9-1.4,1c-0.2,0.1-0.4,0-0.5-0.3
					c-0.4-0.7-0.7-1.2-0.9-1.4c-0.2-0.2-0.8-0.3-1.8-0.2l-0.1-0.4c0.9-0.2,1.6-0.4,2.2-0.5c0.4-0.1,0.6-0.4,0.5-0.8l-2-6.7l-2.3,0.7
					l0.2,0.6c0.1,0.4-0.3,0.7-1.3,1c-0.4,0.1-0.7,0.1-0.7-0.2l0,0c-0.2-0.9-0.4-1.7-0.7-2.6l-0.5-1.6c-0.4-1.3-0.8-2.4-1.1-3.2
					c0.9,0,1.7,0,2.5,0l2-0.6c0.4-0.8,0.7-1.2,0.8-1.3c0.1,0,0.5,0,1.1,0.2c0.6,0.2,0.9,0.4,1,0.6c0,0.1,0,0.2,0,0.3
					c-0.3,0.4-0.4,0.7-0.3,0.8L169.6,129.1z M161.2,117.2l0.7,2.2l2.3-0.7l-0.7-2.2L161.2,117.2z M162.8,122.2l2.3-0.7l-0.7-2.3
					l-2.3,0.7L162.8,122.2z"/>
				<path fill="#FFFFFF" d="M183,113.5l0.5,4.9l0.1,0c0.4-1,0.6-1.4,0.7-1.5c0.1,0,0.4,0.2,0.9,0.7c0.4,0.5,0.7,0.7,0.7,0.8
					c0,0.1,0,0.2-0.1,0.2l-2.2,0.2l0.5,4.7c0.7-0.3,1.5-0.6,2.3-1.1l0.2,0.3c-1.5,1.9-3.2,3.2-5,4.1c0,0,0,0.2,0,0.5
					c0,0.2-0.1,0.3-0.2,0.3c-0.2,0-0.7-1.1-1.4-3.3c0.1,0,0.2,0,0.3,0c0.6-0.1,1.2-0.2,1.8-0.3l-0.5-5.1c-0.8,0.1-1.3,0.2-1.7,0.3
					l-0.4-0.8c0.5,0.1,1.2,0.1,2,0l-0.5-4.9l-0.1,0c-0.8,0.1-1.4,0.2-1.8,0.3l-0.4-0.8c0.6,0.1,1.4,0,2.6-0.1l1.1-0.1
					c0.6-1.1,0.9-1.6,1-1.6c0.1,0,0.5,0.2,1,0.7c0.6,0.5,0.8,0.8,0.9,0.9c0,0.1,0,0.2-0.2,0.2L183,113.5z M190.2,127.2l-0.4-3.4
					l-0.5,0c-0.3,0-0.5,0.1-0.7,0.1c-0.2,0-0.3,0.1-0.5,0.1c-0.6,0.1-1,0.2-1.3,0.2l-0.4-0.8c0.7,0.1,1.7,0,3-0.1l0.4,0l-0.4-3.3
					l-1.2,0.1l0.1,0.9c0,0.4-0.4,0.6-1.4,0.7c-0.5,0-0.7,0-0.7-0.3c-0.1-1.6-0.2-2.8-0.3-3.5l-0.4-3.6c-0.1-1.3-0.3-2.3-0.5-3.1
					c0.8,0.2,1.6,0.4,2.6,0.6l4.2-0.4c0.6-0.7,0.9-1.1,1-1.1c0.1,0,0.4,0.2,1,0.5c0.5,0.3,0.8,0.6,0.8,0.8c0,0.1,0,0.2,0,0.3
					c-0.3,0.3-0.4,0.5-0.4,0.6l0.5,4.4c0,0.2,0.2,1.2,0.4,3.1c0,0.5-0.4,0.7-1.5,0.8c-0.4,0-0.7-0.1-0.7-0.3l-0.1-0.8l-1.3,0.1
					l0.4,3.3l0.8-0.1c0.6-1.1,0.9-1.7,1.1-1.7c0.1,0,0.5,0.2,1,0.7c0.6,0.5,0.9,0.8,0.9,0.9c0,0.1,0,0.2-0.1,0.2l-3.6,0.4l0.4,3.4
					l1.1-0.1c0.7-1.3,1-1.9,1.2-1.9c0.2,0,0.5,0.3,1.2,0.8s0.9,0.9,1,1c0,0.1,0,0.2-0.2,0.2l-8.1,0.8c-0.3,0-0.5,0.1-0.8,0.1
					c-0.2,0-0.3,0.1-0.4,0.1c-0.6,0.1-1,0.2-1.3,0.2l-0.4-0.8c0.7,0.1,1.7,0,3-0.1L190.2,127.2z M187.7,115.6l1.2-0.1l-0.4-3.3
					l-1.2,0.1L187.7,115.6z M189.4,119.5L189,116l-1.2,0.1l0.4,3.5L189.4,119.5z M190.7,111.9l0.4,3.3l1.3-0.1l-0.4-3.3L190.7,111.9
					z M192.5,115.6l-1.3,0.1l0.4,3.5l1.3-0.1L192.5,115.6z"/>
				<path fill="#FFFFFF" d="M209,126c-1.1-0.1-1.9-0.1-2.5-0.1l-0.3-1c0.9,0.2,2.1,0.4,3.6,0.5l3.2,0.3l1-12.6l-2.8-0.2
					c-1.1-0.1-2-0.1-2.7-0.1l-0.2-1c1,0.2,2.2,0.4,3.7,0.5l7.2,0.6c0.9-1.1,1.4-1.7,1.6-1.7c0.1,0,0.5,0.4,1.1,1
					c0.6,0.7,0.9,1.1,0.9,1.2c0,0.2-0.1,0.3-0.2,0.3l-6.1-0.5l-1,12.6l3.4,0.3l0.3-0.3c0.8-1,1.3-1.5,1.4-1.5c0.2,0,0.5,0.4,1.1,1.1
					c0.6,0.7,0.9,1.2,0.9,1.3c0,0.2-0.1,0.3-0.2,0.3L209,126z"/>
				<path fill="#FFFFFF" d="M250.2,123.5l-6.1-1.7c-0.1,2.2,0.3,4.3,1.2,6.2c0.9,1.9,1.9,3.1,3.1,3.7l-0.2,0.4l0,0
					c-0.5-0.1-1.1,0.4-1.7,1.6c-0.4,0.6-0.6,0.9-0.8,0.9c-0.4-0.1-0.9-0.9-1.6-2.5c-0.6-1.5-0.9-3.2-1-5.1c-0.1-1.9,0.1-3.6,0.5-5.2
					l-0.4-0.1c-0.9,2.7-2.5,4.9-4.7,6.5c-2.2,1.6-4.4,2.5-6.8,2.6l-0.1-0.4c1.7-0.6,3.4-1.8,5.2-3.6c1.8-1.7,3-3.7,3.8-5.9l-2.2-0.6
					c-1.1-0.3-2.1-0.5-2.9-0.6l-0.1-1c0.7,0.4,2,0.8,3.8,1.3l1.5,0.4c0.3-0.9,0.7-2.1,1.2-3.7c0.2-0.6,0.3-1.2,0.4-1.9
					c1,0.4,1.8,0.7,2.4,1c0.6,0.3,0.9,0.5,0.9,0.7c0,0.1-0.1,0.2-0.3,0.3c-0.4,0.1-0.6,0.2-0.6,0.3c-0.4,1.5-0.8,2.8-1.3,4.1l3.6,1
					c1.1-0.9,1.8-1.4,2-1.3c0.1,0,0.4,0.4,0.9,1.2c0.4,0.8,0.7,1.2,0.6,1.4C250.5,123.4,250.4,123.5,250.2,123.5z"/>
				<path fill="#FFFFFF" d="M264.3,137.5l-3.1-1.5c-1.2-0.6-2.1-1-2.7-1.2l0.1-0.9c0.6,0.4,1.7,1,3.1,1.8l2.9,1.4c0,0,0-0.1,0.1-0.1
					c0.1-0.2,0.3-0.5,0.4-0.9c0.1-0.2,0.2-0.4,0.2-0.7l1.6,1.2c0.8-0.2,1.3-0.5,1.7-0.7l-3.5-1.7c-1.2-0.6-2.1-1-2.7-1.2l0-0.9
					c0.6,0.5,1.7,1,3.1,1.8l3.2,1.6c0.6-0.1,1.1-0.2,1.4-0.3c0.1,0,0.1,0,0.2,0c0.1,0,0.1,0.1,0.2,0.2c0,0,0,0.1,0.1,0.2
					c0.6,1.3,0.8,2,0.8,2.1c-0.1,0.2-0.2,0.3-0.4,0.2c-0.4-0.2-0.6-0.3-0.7-0.3c-1,0-2-0.2-3-0.5c0.3,0.1,0.3,0.3,0.3,0.5
					c0,0.1-0.1,0.1-0.2,0.1c-0.3,0-0.5,0.1-0.5,0.1l-0.2,0.4l3.2,1.6c1.3-0.8,2-1.1,2.1-1.1c0.1,0.1,0.3,0.5,0.6,1.4
					c0.3,0.9,0.4,1.3,0.3,1.4c-0.1,0.1-0.2,0.2-0.3,0.1l-6.1-3l-0.9,1.9c-0.4,0.8-0.9,1.2-1.7,1.2c-0.7,0-1.3-0.1-1.6-0.2
					c-0.2-0.1-0.2-0.3-0.2-0.5c0.2-0.8,0.3-1.3,0.1-1.6c-0.2-0.3-0.5-0.6-0.9-1l0.2-0.3c0.4,0.2,0.8,0.5,1.4,0.7
					c0.4,0.2,0.7,0.3,0.8,0.3c0.1,0,0.2-0.1,0.3-0.3L264.3,137.5z M273.1,132.9l0.8-1.6c-0.7-0.3-1.2-0.6-1.7-0.7l0-0.8
					c0.3,0.2,0.7,0.5,1.1,0.7l0.7,0.4l0.8-1.6c-0.7-0.4-1.3-0.6-1.7-0.7l0-0.8c0.7,0.5,1.3,0.8,1.8,1.1c0.9-0.3,1.4-0.4,1.5-0.3
					c0.1,0.1,0.3,0.4,0.6,1c0.3,0.6,0.3,1,0.3,1.1c-0.1,0.1-0.1,0.2-0.3,0.2c-0.4,0.1-0.7,0.1-0.7,0.2l-2.3,4.3
					c0.4-0.2,0.6-0.3,0.7-0.3c0.1,0.1,0.2,0.4,0.3,0.9c0.1,0.6,0.1,0.9,0,1.1c-0.1,0.2-0.2,0.2-0.4,0.2c-0.3-0.1-0.4-0.1-0.5-0.1
					c-0.9,0.3-1.7,0.5-2.5,0.5l-0.1-0.3c0.6-0.5,1-1,1.4-1.6l-10.8-5.3c0.1,0.4,0,0.9-0.3,1.4c-0.4,0.9-1.1,1.1-1.9,0.7
					c-0.7-0.3-0.8-0.8-0.5-1.4c0.2-0.3,0.5-0.6,1-0.9c0.4-0.2,0.8-0.6,1-1c0.1-0.3,0.2-0.5,0.2-0.7l0.3,0c0.1,0.4,0.2,0.8,0.1,1.2
					l1.7-3.8c0-0.1,0.2-0.5,0.6-1.4c0-0.1,0-0.1,0.1-0.2c0.1-0.3,0.3-0.7,0.4-1.1c0.9,0.7,1.5,1.2,1.8,1.6c0.5-0.3,0.9-0.7,1.3-1.2
					c1.4,1.1,2,1.8,1.9,1.9c-0.1,0.1-0.2,0.2-0.3,0.1c-0.3-0.1-0.4-0.1-0.5-0.2c-0.8,0.1-1.7-0.1-2.7-0.4l-0.6,1.4l0.3,0.1
					c0.8-0.6,1.3-0.8,1.4-0.8c0.1,0.1,0.3,0.4,0.4,1c0.2,0.6,0.2,0.9,0.1,1c-0.1,0.1-0.1,0.2-0.2,0.1l-2.2-1.1l-0.8,1.7l0.3,0.2
					c0.8-0.6,1.3-0.9,1.4-0.8c0.1,0.1,0.3,0.4,0.4,1c0.1,0.6,0.2,0.9,0.1,1c-0.1,0.1-0.1,0.2-0.2,0.1l-2.2-1.1l-0.7,1.6l8.1,4
					l0.8-1.5c-0.7-0.4-1.3-0.6-1.7-0.7l0-0.8c0.3,0.2,0.7,0.5,1.1,0.7L273.1,132.9L273.1,132.9z M270.1,131.3
					c0.3,0.4,0.4,0.9,0.1,1.4c-0.3,0.6-0.7,0.8-1.2,0.6c-0.3-0.1-0.4-0.4-0.4-0.9c0-0.4,0-0.6-0.1-0.7c-1,0.1-1.9,0-2.8-0.3l0-0.3
					c1-0.2,1.8-0.4,2.5-0.8c-0.2-0.5-0.5-0.9-0.8-1.3l0.2-0.2c0.3,0.2,0.6,0.4,0.8,0.6c0.2,0.1,0.4,0.3,0.6,0.5
					c0.6-0.4,1-0.7,1.2-0.9c1,1.2,1.5,1.9,1.4,2c-0.1,0.2-0.2,0.2-0.3,0.1c-0.3-0.2-0.5-0.2-0.7-0.1
					C270.5,131.2,270.3,131.2,270.1,131.3z M272.9,127.7c-0.2,0.1-0.5,0.2-0.7,0.3c0.3,0.4,0.4,0.9,0.1,1.4
					c-0.3,0.6-0.7,0.7-1.2,0.5c-0.2-0.1-0.4-0.4-0.3-0.7c0-0.4,0-0.7-0.1-0.7c-0.7,0.1-1.5,0.1-2.4-0.1l0-0.2c0.7-0.2,1.4-0.5,2-0.9
					c-0.2-0.5-0.4-0.9-0.7-1.2l0.2-0.2c0.6,0.4,1.1,0.7,1.3,0.9c0.4-0.3,0.7-0.6,1-1c1,1.1,1.5,1.8,1.4,1.9c-0.1,0.1-0.2,0.1-0.4,0
					C273,127.8,273,127.8,272.9,127.7L272.9,127.7C272.9,127.7,272.9,127.7,272.9,127.7z"/>
				<path fill="#FFFFFF" d="M289.8,146.5c-0.2,0.3-0.5,0.4-0.8,0.4c-0.3,0-0.6-0.1-0.9-0.3l-1.9-1.3c0,0.3,0.2,1,0.6,1.9
					c0.3,0.7,0.3,1.3-0.1,1.7c-0.2,0.2-0.4,0.3-0.6,0.4c-0.3,0-0.5,0-0.7-0.2c-0.4-0.3-0.5-0.8-0.2-1.6c0.4-1.1,0.7-1.9,0.7-2.2
					c-0.3,0.1-1,0.6-1.9,1.4c-0.6,0.5-1.1,0.6-1.6,0.3c-0.2-0.1-0.3-0.3-0.4-0.6c-0.1-0.3,0-0.5,0.1-0.7c0.3-0.5,0.9-0.7,1.6-0.6
					c1,0.1,1.7,0,2-0.1l-1.9-1.3c-0.3-0.2-0.5-0.4-0.6-0.7c-0.1-0.3,0-0.6,0.2-0.9c0.2-0.3,0.4-0.4,0.7-0.5c0.3-0.1,0.5,0,0.8,0.2
					c0.3,0.2,0.5,0.7,0.6,1.4c0.1,0.8,0.3,1.4,0.5,1.6c0.3-0.4,0.5-0.9,0.7-1.6c0.2-0.7,0.3-1.1,0.4-1.2c0.2-0.3,0.4-0.4,0.7-0.5
					c0.3-0.1,0.6-0.1,0.8,0.1s0.4,0.4,0.4,0.7c0,0.3-0.1,0.6-0.3,0.9c-0.1,0.2-0.5,0.4-1.1,0.8c-0.6,0.4-1,0.7-1.3,1.1
					c0.2,0.1,0.9,0,2.1-0.1c0.5-0.1,0.9,0,1.1,0.2c0.2,0.2,0.4,0.4,0.4,0.7C290.1,145.9,290,146.2,289.8,146.5z"/>
			</g>
		</g>
		<g>
			<path fill="#FFFFFF" d="M301.5,146l4.8,4.3l-0.3,0.3l-0.2-0.2c-0.4-0.3-0.6-0.5-0.9-0.5c-0.2,0-0.4,0-0.6,0.1
				c-0.2,0.1-0.6,0.5-1.2,1.1l-4.9,5.4c-0.9,1-1.4,1.7-1.6,2.1c-0.2,0.4-0.2,0.9-0.1,1.4c0.1,0.5,0.4,0.9,0.8,1.3
				c0.5,0.5,1.1,0.7,1.7,0.7c0.6,0,1.2-0.1,1.8-0.4c0.6-0.3,1.4-1.1,2.5-2.2l4.1-4.5c0.5-0.5,0.7-0.9,0.8-1.2
				c0.1-0.3,0.1-0.5,0.1-0.7c-0.1-0.3-0.3-0.6-0.7-1l0.3-0.3l3.2,2.9l-0.3,0.3l-0.2-0.2c-0.3-0.2-0.5-0.4-0.8-0.4
				c-0.3,0-0.6,0-0.9,0.2c-0.2,0.1-0.5,0.4-0.9,0.9l-3.8,4.2c-1.2,1.3-2.1,2.2-2.8,2.6c-0.7,0.4-1.5,0.7-2.5,0.7c-1,0-2-0.5-2.9-1.3
				c-0.8-0.7-1.3-1.4-1.5-2.1c-0.3-0.9-0.3-1.7,0-2.5c0.2-0.8,0.8-1.6,1.6-2.5l4.9-5.4c0.6-0.6,0.9-1.1,1-1.3c0.1-0.2,0.1-0.4,0-0.6
				c-0.1-0.2-0.3-0.5-0.7-0.9L301.5,146z"/>
			<path fill="#FFFFFF" d="M315.2,159l-2.7,10.8l4.8-4.3c0.7-0.6,1-1.1,1.1-1.5c0.1-0.5-0.1-1-0.5-1.5l0.3-0.3l2.8,3l-0.3,0.3
				c-0.4-0.3-0.7-0.5-1-0.6c-0.2,0-0.5,0-0.8,0.1c-0.3,0.1-0.7,0.4-1.2,0.9l-9.3,8.4l-0.2-0.2l3.6-14.6l-7.1,6.4
				c-0.6,0.6-1,1.1-1,1.5c0,0.4,0.1,0.8,0.4,1.1l0.2,0.2l-0.3,0.3l-3-3.3l0.3-0.3c0.5,0.5,0.9,0.7,1.3,0.7c0.4,0,0.9-0.3,1.5-0.8
				l7.9-7.1l0.1-0.5c0.1-0.5,0.2-0.8,0.1-1c0-0.2-0.2-0.5-0.4-0.8l0.3-0.3L315.2,159z"/>
			<path fill="#FFFFFF" d="M314.4,180.6l-0.3,0.3l-4-5.1l0.3-0.3l0.3,0.3c0.2,0.3,0.5,0.5,0.7,0.5c0.2,0.1,0.4,0,0.6,0
				c0.2-0.1,0.6-0.3,1.2-0.8l7.8-6.1c0.6-0.5,1-0.8,1.1-1c0.1-0.2,0.2-0.4,0.1-0.6c0-0.3-0.1-0.5-0.3-0.8l-0.3-0.3l0.3-0.3l4,5.1
				l-0.3,0.3l-0.3-0.3c-0.2-0.3-0.5-0.5-0.7-0.5c-0.2-0.1-0.4,0-0.7,0c-0.2,0.1-0.6,0.3-1.2,0.8l-7.8,6.1c-0.6,0.5-1,0.8-1.1,1
				c-0.1,0.2-0.2,0.4-0.1,0.6c0,0.3,0.1,0.5,0.3,0.8L314.4,180.6z"/>
			<path fill="#FFFFFF" d="M334.3,183.7l-0.3,0.2c-0.3-0.3-0.8-0.5-1.4-0.5c-0.5,0-1.4,0.2-2.8,0.5l-11.9,2.8l-0.2-0.3l7.5-10.2
				c0.9-1.2,1.4-2,1.5-2.3c0.1-0.3,0.1-0.6-0.2-1.1l0.3-0.2l3.3,4.9l-0.3,0.2l-0.1-0.2c-0.3-0.4-0.6-0.7-0.8-0.8
				c-0.2-0.1-0.3,0-0.5,0.1c-0.1,0.1-0.2,0.2-0.4,0.3c-0.1,0.1-0.4,0.5-0.9,1.2l-4.7,6.4l6.9-1.7c0.8-0.2,1.4-0.4,1.6-0.5
				c0.3-0.1,0.5-0.2,0.6-0.3c0.2-0.1,0.3-0.3,0.4-0.4c0.1-0.2,0.1-0.4,0.1-0.6c0-0.3-0.2-0.6-0.4-1l0.3-0.2L334.3,183.7z"/>
			<path fill="#FFFFFF" d="M336.6,189.6l-5.4,2.9l0.1,0.2c0.4,0.7,0.9,1.1,1.6,1.1c0.7,0,1.6-0.2,2.7-0.7l0.2,0.3l-6.9,3.8l-0.2-0.3
				c0.7-0.5,1.3-0.9,1.6-1.4c0.4-0.5,0.6-0.9,0.6-1.2c0-0.4-0.1-0.8-0.4-1.3l-3.7,2c-0.7,0.4-1.2,0.7-1.3,0.8
				c-0.1,0.1-0.2,0.3-0.2,0.5c0,0.2,0,0.5,0.2,0.8l0.4,0.7c0.6,1,1.3,1.7,2.2,2c0.9,0.3,2,0.3,3.3-0.1l0.2,0.3l-4.5,1.8l-5.2-9.4
				l0.4-0.2l0.2,0.4c0.2,0.3,0.4,0.5,0.6,0.7c0.2,0.1,0.4,0.1,0.6,0.1c0.2,0,0.6-0.2,1.3-0.6l8.7-4.7c0.6-0.3,1-0.5,1.1-0.6
				c0.2-0.2,0.3-0.4,0.4-0.6c0.1-0.3,0-0.6-0.2-1l-0.2-0.4l0.4-0.2l5,9.1l-3.9,2.1L336,196c0.9-0.7,1.4-1.3,1.7-1.8
				c0.3-0.5,0.3-1.1,0.3-1.7c0-0.4-0.3-1-0.8-1.8L336.6,189.6z"/>
			<path fill="#FFFFFF" d="M335.9,204.4l-3.9,1.7c-0.7,0.3-1.2,0.6-1.4,0.7c-0.2,0.2-0.3,0.4-0.3,0.6c0,0.2,0.1,0.6,0.3,1.1
				l-0.4,0.2l-2.5-5.8l0.4-0.2c0.2,0.5,0.4,0.9,0.6,1c0.2,0.1,0.4,0.2,0.6,0.2c0.2,0,0.7-0.2,1.5-0.5l9-3.9c0.7-0.3,1.2-0.6,1.4-0.7
				c0.2-0.2,0.3-0.4,0.3-0.6s-0.1-0.6-0.3-1.1l0.4-0.2l2.3,5.3c0.6,1.4,0.9,2.4,1,3.2c0,0.7-0.2,1.4-0.6,2.1
				c-0.4,0.7-1.1,1.2-1.9,1.5c-1,0.4-2,0.5-2.9,0.2c-0.6-0.2-1.1-0.6-1.7-1.2l-3.5,4.8c-0.4,0.6-0.7,1-0.8,1.3
				c-0.1,0.3-0.1,0.6,0,0.9l-0.4,0.2l-1.6-3.6l4.7-6.4L335.9,204.4z M342.7,201.5l-6.1,2.6l0.2,0.5c0.3,0.8,0.7,1.3,1,1.6
				c0.3,0.3,0.8,0.5,1.3,0.5c0.5,0,1.2-0.1,1.9-0.4c1.1-0.5,1.7-1,2.1-1.6c0.3-0.6,0.3-1.4-0.1-2.3L342.7,201.5z"/>
			<path fill="#FFFFFF" d="M350.3,218.3l-4.7,1.7l-0.1-0.4c1.1-0.6,2-1.3,2.5-2.2c0.5-0.9,0.6-1.7,0.4-2.5c-0.2-0.6-0.5-1-1-1.2
				c-0.5-0.2-1-0.2-1.5-0.1c-0.3,0.1-0.6,0.3-0.8,0.5c-0.3,0.3-0.5,0.7-0.7,1.1c-0.1,0.3-0.3,1.1-0.6,2.3c-0.4,1.7-0.8,2.8-1.4,3.6
				c-0.6,0.7-1.3,1.2-2.3,1.5c-1.2,0.4-2.4,0.4-3.5-0.1s-1.9-1.3-2.3-2.5c-0.1-0.4-0.2-0.7-0.2-1.1c0-0.4,0-0.8,0.1-1.4
				c0-0.3,0-0.6,0-0.8c0-0.2-0.2-0.3-0.4-0.4c-0.2-0.1-0.5-0.2-0.8-0.2l-0.1-0.3l5.4-1.8l0.1,0.3c-1.4,0.8-2.4,1.6-3,2.6
				c-0.6,1-0.7,1.9-0.4,2.7c0.2,0.6,0.6,1.1,1.2,1.3c0.6,0.2,1.1,0.3,1.7,0.1c0.3-0.1,0.6-0.3,0.9-0.5c0.3-0.3,0.5-0.6,0.7-1
				c0.2-0.4,0.4-1.1,0.6-2c0.3-1.3,0.6-2.2,0.9-2.9c0.3-0.6,0.7-1.1,1.1-1.6s1-0.8,1.7-1c1.1-0.4,2.2-0.4,3.3,0.1
				c1,0.4,1.7,1.2,2.1,2.2c0.1,0.4,0.2,0.8,0.2,1.2c0,0.3,0,0.7-0.1,1.2c-0.1,0.5-0.1,0.8-0.1,0.9c0,0.2,0.1,0.3,0.3,0.3
				c0.1,0,0.4,0,0.9,0L350.3,218.3z"/>
			<path fill="#FFFFFF" d="M338.2,230.9l-0.4,0.1l-1.7-6.3l0.4-0.1l0.1,0.4c0.1,0.3,0.2,0.6,0.5,0.8c0.1,0.1,0.3,0.2,0.6,0.2
				c0.2,0,0.6-0.1,1.4-0.3l9.6-2.5c0.7-0.2,1.2-0.4,1.4-0.5c0.2-0.1,0.3-0.3,0.4-0.5c0.1-0.2,0.1-0.5,0-0.9l-0.1-0.4l0.4-0.1
				l1.7,6.3l-0.4,0.1l-0.1-0.4c-0.1-0.3-0.2-0.6-0.4-0.8c-0.1-0.1-0.3-0.2-0.6-0.2c-0.2,0-0.6,0.1-1.4,0.3l-9.6,2.5
				c-0.7,0.2-1.2,0.4-1.4,0.5c-0.2,0.1-0.3,0.3-0.4,0.5c-0.1,0.2-0.1,0.5,0,0.9L338.2,230.9z"/>
			<path fill="#FFFFFF" d="M338,231.4l0.4-0.1l0.1,0.4c0.1,0.4,0.2,0.6,0.4,0.8c0.2,0.2,0.4,0.3,0.6,0.3c0.2,0,0.6,0,1.4-0.2
				l9.7-1.8c0.8-0.1,1.2-0.3,1.4-0.4c0.2-0.1,0.3-0.3,0.4-0.5c0.1-0.2,0.1-0.5,0.1-0.9l-0.1-0.4l0.4-0.1l1,5.5
				c0.3,1.5,0.3,2.7-0.1,3.7c-0.4,1.2-1.1,2.2-2.2,3c-1.1,0.8-2.4,1.3-3.9,1.6c-1,0.2-2,0.2-3,0.1c-0.9-0.1-1.7-0.3-2.4-0.7
				c-0.7-0.3-1.2-0.8-1.7-1.3c-0.5-0.5-0.9-1.2-1.2-2c-0.2-0.3-0.3-0.9-0.5-1.7L338,231.4z M352.8,233.5l-11.6,2.1
				c-0.6,0.1-1,0.2-1.1,0.3c-0.1,0.1-0.2,0.2-0.3,0.3c-0.1,0.2-0.1,0.4,0,0.7c0.2,1,0.7,1.7,1.7,2.1c1.3,0.5,3.1,0.6,5.4,0.1
				c1.9-0.4,3.4-0.9,4.4-1.6c0.8-0.6,1.3-1.2,1.5-1.8C353.1,235.3,353,234.5,352.8,233.5z"/>
			<path fill="#FFFFFF" d="M345.4,251.6l-0.4-4.4l-1.5-0.4c-0.5-0.1-0.9-0.2-1.2-0.2c-0.4,0-0.7,0.2-0.9,0.5
				c-0.1,0.2-0.2,0.6-0.2,1.2l-0.4,0l-0.4-4.1l0.4,0c0.1,0.4,0.4,0.8,0.8,1c0.4,0.3,1.2,0.5,2.4,0.9l12.4,3.4l0,0.2l-11.9,5.5
				c-1.1,0.5-1.8,0.9-2.1,1.2c-0.2,0.2-0.3,0.5-0.3,0.9l-0.4,0l-0.5-6l0.4,0l0,0.2c0,0.5,0.2,0.8,0.3,1c0.1,0.1,0.3,0.2,0.5,0.2
				c0.1,0,0.3,0,0.4-0.1c0.1,0,0.3-0.1,0.8-0.3L345.4,251.6z M346.2,251.2l5-2.3l-5.3-1.4L346.2,251.2z"/>
			<path fill="#FFFFFF" d="M341.6,257.4l0.4,0l0,0.4c0,0.4,0.1,0.6,0.2,0.8c0.1,0.2,0.3,0.3,0.6,0.4c0.2,0.1,0.6,0.1,1.4,0.1
				l9.9,0.2c0.8,0,1.3,0,1.4-0.1c0.2-0.1,0.4-0.2,0.5-0.4c0.1-0.2,0.2-0.5,0.2-0.8l0-0.4l0.4,0l-0.1,5.6c0,1.5-0.3,2.7-0.8,3.6
				c-0.6,1.1-1.5,1.9-2.8,2.5c-1.2,0.6-2.6,0.8-4.1,0.8c-1.1,0-2-0.2-2.9-0.5c-0.9-0.3-1.6-0.7-2.2-1.1c-0.6-0.5-1-1-1.4-1.6
				c-0.3-0.6-0.6-1.3-0.8-2.2c-0.1-0.4-0.1-1-0.1-1.8L341.6,257.4z M355.8,262.4l-11.8-0.2c-0.6,0-1,0-1.1,0.1
				c-0.1,0-0.2,0.1-0.3,0.2c-0.1,0.2-0.2,0.4-0.2,0.7c0,1,0.4,1.8,1.2,2.4c1.1,0.8,2.9,1.1,5.3,1.2c1.9,0,3.5-0.2,4.6-0.7
				c0.9-0.4,1.5-0.9,1.9-1.5C355.6,264.2,355.8,263.4,355.8,262.4z"/>
			<path fill="#FFFFFF" d="M355.1,276.9l-6.1-0.6l0,0.2c-0.1,0.8,0.2,1.4,0.7,1.8c0.6,0.4,1.4,0.7,2.6,0.9l0,0.3l-7.8-0.8l0-0.3
				c0.9,0,1.6-0.1,2.1-0.3c0.6-0.2,1-0.4,1.2-0.7c0.2-0.3,0.4-0.7,0.4-1.3l-4.2-0.4c-0.8-0.1-1.3-0.1-1.5-0.1
				c-0.2,0-0.4,0.1-0.5,0.3c-0.1,0.1-0.2,0.4-0.3,0.7l-0.1,0.7c-0.1,1.2,0.1,2.1,0.7,2.9c0.6,0.8,1.5,1.4,2.8,1.8l0,0.3l-4.7-1
				l1.1-10.7l0.4,0l0,0.4c0,0.4,0,0.7,0.1,0.9c0.1,0.2,0.3,0.3,0.5,0.4c0.2,0.1,0.6,0.2,1.4,0.2l9.9,1c0.7,0.1,1.1,0.1,1.3,0.1
				c0.3,0,0.5-0.1,0.6-0.3c0.2-0.2,0.4-0.5,0.4-0.9l0-0.4l0.4,0l-1,10.4l-4.4-0.4l0-0.3c1.1-0.1,1.9-0.2,2.4-0.5
				c0.5-0.3,0.9-0.7,1.2-1.3c0.2-0.3,0.3-1,0.4-1.9L355.1,276.9z"/>
			<path fill="#FFFFFF" d="M345.1,293.5l-4.1-0.9c-0.8-0.2-1.3-0.2-1.5-0.2c-0.2,0-0.4,0.1-0.6,0.3c-0.2,0.2-0.3,0.5-0.4,1.1
				l-0.4-0.1l1.4-6.2l0.4,0.1c-0.1,0.6-0.1,1-0.1,1.2c0.1,0.2,0.2,0.4,0.4,0.5c0.2,0.1,0.7,0.3,1.5,0.4l9.5,2.1
				c0.8,0.2,1.3,0.2,1.5,0.2c0.2,0,0.4-0.1,0.6-0.3c0.2-0.2,0.3-0.5,0.4-1.1l0.4,0.1l-1.2,5.3c-0.4,1.7-1,2.9-2,3.5
				c-0.9,0.6-1.9,0.8-3.1,0.5c-1-0.2-1.7-0.6-2.3-1.3c-0.6-0.6-0.9-1.4-0.9-2.3C344.7,295.9,344.8,294.9,345.1,293.5z M352.3,295.1
				l-6.4-1.4c-0.1,0.2-0.1,0.3-0.1,0.4c-0.2,0.7,0,1.3,0.4,1.9c0.4,0.5,1.2,0.9,2.3,1.1c1.1,0.2,1.9,0.2,2.5-0.1
				c0.6-0.3,1-0.8,1.2-1.6L352.3,295.1z"/>
			<path fill="#FFFFFF" d="M349.6,309.4c-0.5,1.9-1.7,3.2-3.5,4s-3.8,0.8-5.9,0.1c-1.8-0.6-3.3-1.5-4.4-2.8
				c-1.5-1.7-1.8-3.7-1.2-5.8c0.7-2.1,2.1-3.5,4.2-4.1c1.7-0.5,3.5-0.4,5.4,0.2c2.1,0.7,3.7,1.8,4.7,3.5
				C350,306,350.2,307.7,349.6,309.4z M348.9,309.3c0.3-1.1-0.1-2.1-1.2-3.1c-1-0.8-2.5-1.5-4.5-2.2c-2.4-0.8-4.4-1-5.8-0.7
				c-1,0.2-1.6,0.8-1.9,1.7c-0.2,0.6-0.2,1.2,0,1.7c0.3,0.7,0.9,1.3,1.8,1.9c0.9,0.6,2.1,1.2,3.7,1.7c1.9,0.6,3.4,0.9,4.4,0.9
				c1,0,1.8-0.2,2.4-0.5C348.3,310.4,348.7,309.9,348.9,309.3z"/>
			<path fill="#FFFFFF" d="M333,324.4l-4.7-2.5l4.4-10.1l0.4,0.2l-0.2,0.4c-0.1,0.3-0.2,0.6-0.1,0.9c0,0.2,0.1,0.4,0.3,0.5
				c0.1,0.1,0.6,0.3,1.2,0.6l9.1,3.9c0.7,0.3,1.2,0.5,1.4,0.5c0.2,0,0.4,0,0.6-0.2c0.2-0.1,0.4-0.4,0.5-0.7l0.2-0.4l0.4,0.2
				l-2.6,6.1l-0.4-0.2l0.2-0.5c0.1-0.3,0.2-0.6,0.1-0.9c0-0.2-0.1-0.4-0.3-0.6c-0.1-0.1-0.6-0.3-1.2-0.6l-8.8-3.8
				c-0.7-0.3-1.2-0.5-1.4-0.5c-0.2,0-0.4,0.1-0.6,0.2c-0.1,0.1-0.3,0.4-0.5,1l-0.4,1c-0.3,0.6-0.4,1.2-0.3,1.7
				c0.1,0.5,0.3,1,0.8,1.6c0.4,0.5,1.1,1.2,2.1,1.9L333,324.4z"/>
			<path fill="#FFFFFF" d="M325.1,329l-0.4-0.2l3-5.8l0.4,0.2l-0.2,0.4c-0.2,0.3-0.2,0.6-0.2,0.9c0,0.2,0.1,0.4,0.3,0.6
				c0.1,0.1,0.5,0.4,1.2,0.7l8.8,4.5c0.7,0.4,1.1,0.5,1.3,0.6c0.2,0,0.4,0,0.6-0.1c0.2-0.1,0.4-0.3,0.6-0.6l0.2-0.4l0.4,0.2l-3,5.8
				l-0.4-0.2l0.2-0.4c0.2-0.3,0.2-0.6,0.2-0.9c0-0.2-0.1-0.4-0.3-0.6c-0.1-0.1-0.5-0.4-1.2-0.7l-8.8-4.5c-0.7-0.4-1.1-0.5-1.3-0.6
				c-0.2,0-0.4,0-0.6,0.1c-0.2,0.1-0.4,0.3-0.6,0.6L325.1,329z"/>
			<path fill="#FFFFFF" d="M331.4,346.9l-3.5-2.1l0.2-0.3c0.9,0.3,1.6,0.5,2.1,0.5c0.5,0,0.9-0.1,1.4-0.3c0.2-0.1,0.5-0.4,0.8-0.9
				l0.5-0.8l-9.9-6c-0.7-0.4-1.1-0.6-1.3-0.7c-0.2,0-0.4,0-0.6,0.1c-0.2,0.1-0.4,0.3-0.6,0.6l-0.2,0.4l-0.4-0.2l3.4-5.6l0.4,0.2
				l-0.2,0.4c-0.2,0.3-0.3,0.6-0.3,0.9c0,0.2,0.1,0.4,0.3,0.6c0.1,0.1,0.5,0.4,1.1,0.8l9.9,6l0.5-0.8c0.4-0.7,0.6-1.3,0.4-1.9
				c-0.2-0.8-0.8-1.5-1.7-2.2l0.2-0.3l3.5,2.1L331.4,346.9z"/>
			<path fill="#FFFFFF" d="M326.8,351.9l-4.9-3.6l-0.1,0.2c-0.5,0.6-0.6,1.3-0.3,1.9c0.3,0.6,0.8,1.3,1.7,2.1l-0.2,0.3l-6.3-4.7
				l0.2-0.3c0.7,0.4,1.4,0.7,2,0.9c0.6,0.1,1,0.1,1.4,0c0.3-0.1,0.7-0.4,1-0.9l-3.4-2.5c-0.7-0.5-1.1-0.8-1.3-0.8
				c-0.2-0.1-0.4-0.1-0.6,0c-0.2,0.1-0.4,0.2-0.6,0.5l-0.4,0.6c-0.7,0.9-1,1.9-0.9,2.8s0.6,1.9,1.5,3l-0.2,0.3l-3.5-3.3l6.4-8.6
				l0.3,0.2l-0.2,0.3c-0.2,0.3-0.3,0.6-0.3,0.8c0,0.2,0.1,0.4,0.2,0.6c0.1,0.2,0.5,0.5,1.1,0.9l8,5.9c0.5,0.4,0.9,0.6,1,0.7
				c0.2,0.1,0.5,0.1,0.7,0.1c0.3-0.1,0.6-0.3,0.8-0.6l0.2-0.3l0.3,0.2l-6.2,8.4l-3.6-2.6l0.2-0.3c1,0.5,1.8,0.8,2.3,0.8
				s1.1-0.1,1.7-0.5c0.3-0.2,0.7-0.7,1.3-1.4L326.8,351.9z M329.2,358.6l-1.3-4.7l0.5-0.6l2.5,3.1L329.2,358.6z"/>
			<path fill="#FFFFFF" d="M314.3,368.8l-3.9-3.5l0.2-0.3c1.2,0.7,2.3,1,3.3,0.9c1-0.1,1.9-0.4,2.5-1.1c0.5-0.6,0.8-1.3,0.8-2.1
				c0-0.8-0.2-1.7-0.6-2.5c-0.6-1-1.4-2-2.4-2.9c-1-0.9-2-1.6-3-2.1s-1.9-0.7-2.8-0.7c-0.8,0.1-1.6,0.5-2.2,1.2
				c-0.5,0.6-0.8,1.3-1,2c-0.1,0.8-0.1,1.7,0.2,3l-1-0.9c-0.2-1.1-0.2-2.1,0-2.9c0.2-0.8,0.7-1.6,1.3-2.4c0.9-1,1.9-1.7,3.1-2
				c1.2-0.3,2.4-0.3,3.7,0.1c1.3,0.4,2.4,1,3.4,1.9c1.1,1,1.9,2.1,2.4,3.4c0.5,1.3,0.7,2.6,0.6,3.9c-0.2,1.3-0.7,2.3-1.5,3.2
				c-0.6,0.7-1.4,1.2-2.4,1.6c-0.6,0.2-0.9,0.4-1,0.5c-0.1,0.1-0.2,0.3-0.1,0.6c0,0.2,0.2,0.5,0.4,0.8L314.3,368.8z"/>
			<path fill="#FFFFFF" d="M309.2,373.2l-10.9-2.6l4.4,4.7c0.6,0.7,1.1,1,1.5,1.1c0.5,0.1,1-0.1,1.5-0.5l0.3,0.3l-3,2.8l-0.3-0.3
				c0.3-0.4,0.5-0.7,0.6-1c0-0.2,0-0.5-0.1-0.7c-0.1-0.3-0.4-0.7-0.9-1.2l-8.5-9.1l0.2-0.2l14.7,3.4l-6.5-7
				c-0.6-0.6-1.1-0.9-1.6-0.9c-0.4,0-0.8,0.1-1.1,0.4l-0.2,0.2l-0.3-0.3l3.3-3l0.3,0.3c-0.5,0.5-0.7,0.9-0.7,1.3
				c0,0.4,0.3,0.9,0.9,1.5l7.2,7.8l0.5,0.1c0.5,0.1,0.8,0.1,1,0.1c0.2,0,0.5-0.2,0.8-0.4l0.3,0.3L309.2,373.2z"/>
			<path fill="#FFFFFF" d="M287.3,372.7l-0.3-0.3l5.1-4.1l0.3,0.3l-0.3,0.3c-0.3,0.2-0.5,0.5-0.5,0.7c-0.1,0.2,0,0.4,0,0.6
				c0.1,0.2,0.3,0.6,0.8,1.2l6.2,7.7c0.5,0.6,0.8,1,1,1.1c0.2,0.1,0.4,0.2,0.6,0.1c0.3,0,0.5-0.1,0.8-0.3l0.3-0.3l0.3,0.3l-5.1,4.1
				l-0.3-0.3l0.3-0.3c0.3-0.2,0.5-0.5,0.5-0.7c0.1-0.2,0-0.4,0-0.6c-0.1-0.2-0.3-0.6-0.8-1.2l-6.2-7.7c-0.5-0.6-0.8-0.9-1-1.1
				c-0.2-0.1-0.4-0.2-0.6-0.1c-0.3,0-0.5,0.1-0.8,0.3L287.3,372.7z"/>
			<path fill="#FFFFFF" d="M285.4,392.2l-2.9-4.3l0.3-0.2c1,1,2,1.5,3,1.7c1,0.2,1.9,0,2.7-0.5c0.6-0.4,1.1-1.1,1.3-1.9
				c0.2-0.8,0.2-1.7,0-2.5c-0.3-1.1-0.9-2.3-1.6-3.4c-0.8-1.1-1.6-2-2.4-2.8c-0.9-0.7-1.7-1.2-2.5-1.3c-0.8-0.1-1.6,0.1-2.4,0.6
				c-0.6,0.4-1.1,1-1.4,1.7c-0.3,0.7-0.5,1.7-0.5,2.9l-0.7-1.1c0.1-1.1,0.3-2.1,0.7-2.8c0.4-0.8,1-1.4,1.9-2
				c1.1-0.8,2.3-1.2,3.5-1.2c1.2-0.1,2.4,0.3,3.5,0.9c1.1,0.7,2.1,1.6,2.9,2.7c0.8,1.2,1.3,2.5,1.5,3.9c0.2,1.4,0.1,2.7-0.4,3.9
				c-0.5,1.2-1.2,2.1-2.2,2.8c-0.7,0.5-1.6,0.8-2.7,1c-0.6,0.1-1,0.2-1.1,0.3c-0.2,0.1-0.3,0.3-0.3,0.5c0,0.2,0.1,0.5,0.2,0.8
				L285.4,392.2z"/>
			<path fill="#FFFFFF" d="M271.3,387.5l3.9-2.1l-0.2-1.5c-0.1-0.5-0.2-0.9-0.4-1.2c-0.2-0.4-0.5-0.6-0.8-0.6
				c-0.2,0-0.6,0.1-1.2,0.4l-0.2-0.4l3.6-2l0.2,0.4c-0.4,0.3-0.6,0.7-0.6,1.1c-0.1,0.5,0,1.3,0.2,2.5l1.9,12.6l-0.2,0.1l-9.9-8.6
				c-0.9-0.8-1.6-1.3-2-1.4c-0.3-0.1-0.6-0.1-1,0.1l-0.2-0.4l5.3-2.9l0.2,0.4l-0.2,0.1c-0.4,0.2-0.7,0.5-0.8,0.7
				c-0.1,0.2,0,0.3,0.1,0.5c0.1,0.1,0.1,0.2,0.2,0.3c0,0.1,0.3,0.2,0.6,0.6L271.3,387.5z M272,388.1l4.1,3.6l-0.8-5.4L272,388.1z"/>
		</g>
		<g>
			<path fill="#FFFFFF" d="M103.2,156.2l-2.9-3c-0.6-0.6-0.9-0.9-1.2-1c-0.2-0.1-0.4-0.1-0.7,0c-0.3,0.1-0.6,0.3-1,0.7l-0.3-0.3
				l5-4.7l0.3,0.3c-0.5,0.4-0.7,0.8-0.8,1c-0.1,0.2-0.1,0.5,0,0.7c0.1,0.2,0.4,0.6,1,1.2l6.7,7.1c0.6,0.6,0.9,0.9,1.2,1
				c0.2,0.1,0.4,0.1,0.7,0c0.2-0.1,0.6-0.3,1-0.7l0.3,0.3l-4.3,4c-1.4,1.3-2.7,2-3.8,2c-1.1,0-2.1-0.4-2.9-1.2
				c-0.7-0.7-1.1-1.5-1.1-2.4c-0.1-0.9,0.1-1.7,0.6-2.6C101.4,158,102.1,157.2,103.2,156.2z M108.3,161.5l-4.5-4.7
				c-0.2,0.1-0.3,0.2-0.4,0.3c-0.6,0.6-0.9,1.2-0.8,1.9c0.1,0.7,0.5,1.4,1.2,2.3c0.8,0.8,1.5,1.3,2.2,1.3c0.7,0.1,1.3-0.2,2-0.8
				L108.3,161.5z"/>
			<path fill="#FFFFFF" d="M99.1,172.6c-1.3,1.7-3,2.5-5,2.5c-2,0-3.9-0.7-5.6-2.2c-1.4-1.3-2.4-2.7-2.8-4.4
				c-0.6-2.3-0.1-4.3,1.5-6.1c1.6-1.8,3.5-2.6,5.8-2.4c1.8,0.2,3.4,0.9,4.9,2.2c1.7,1.5,2.7,3.2,2.9,5.2
				C101,169.4,100.5,171.1,99.1,172.6z M98.5,172.2c0.8-0.9,0.9-2.1,0.2-3.5c-0.5-1.1-1.6-2.4-3.3-3.9c-1.9-1.7-3.7-2.6-5.1-2.8
				c-1-0.1-1.9,0.2-2.5,0.9c-0.4,0.5-0.7,1.1-0.7,1.6c0,0.7,0.3,1.6,0.8,2.5c0.6,0.9,1.5,1.9,2.8,3c1.5,1.3,2.7,2.2,3.7,2.6
				c1,0.4,1.8,0.5,2.4,0.4C97.5,173,98.1,172.7,98.5,172.2z"/>
			<path fill="#FFFFFF" d="M78.6,182.8l-4-3.5l6.9-9.7l0.3,0.2l-0.3,0.4c-0.2,0.3-0.3,0.6-0.4,0.9c0,0.2,0.1,0.4,0.2,0.6
				c0.1,0.2,0.5,0.5,1.1,0.9l8.1,5.7c0.6,0.4,1,0.7,1.2,0.7c0.2,0.1,0.4,0,0.7-0.1c0.2-0.1,0.5-0.3,0.7-0.6l0.3-0.4l0.3,0.2
				l-4.1,5.8l-0.3-0.2l0.3-0.5c0.2-0.3,0.3-0.6,0.4-0.9c0-0.2-0.1-0.4-0.2-0.6c-0.1-0.2-0.5-0.5-1.1-0.9l-7.9-5.5
				c-0.6-0.4-1.1-0.7-1.3-0.8c-0.2-0.1-0.4,0-0.7,0.1c-0.1,0.1-0.4,0.4-0.8,0.9l-0.6,0.9c-0.4,0.6-0.6,1.1-0.7,1.7
				c0,0.5,0.1,1.1,0.4,1.8c0.3,0.6,0.8,1.4,1.6,2.4L78.6,182.8z"/>
			<path fill="#FFFFFF" d="M80.1,199.6l-0.4-0.2c0.2-0.4,0.2-0.8,0.1-1.1c-0.1-0.4-0.6-1.3-1.4-2.6l-3.3-5.3l-3.2-1.8
				c-0.7-0.4-1.1-0.6-1.3-0.6c-0.2,0-0.4,0-0.6,0.1c-0.2,0.1-0.4,0.3-0.6,0.6l-0.4,0.6l-0.4-0.2l3.8-6.5l0.4,0.2l-0.4,0.6
				c-0.2,0.3-0.3,0.6-0.3,0.9c0,0.2,0.1,0.4,0.3,0.6c0.1,0.2,0.5,0.4,1.2,0.8l2.6,1.5l7.2,0.5c1.4,0.1,2.3,0.1,2.6,0
				c0.3-0.1,0.6-0.3,0.8-0.7l0.4,0.2l-3.3,5.5l-0.4-0.2l0.1-0.2c0.2-0.3,0.3-0.6,0.3-0.8c0-0.2-0.1-0.3-0.2-0.4
				c-0.2-0.1-0.9-0.2-2.1-0.3l-5.6-0.4l2.7,4.4c0.7,1.1,1.1,1.7,1.5,1.9c0.2,0.1,0.4,0.1,0.6,0c0.3-0.1,0.6-0.4,0.9-0.9l0.4,0.2
				L80.1,199.6z"/>
			<path fill="#FFFFFF" d="M74.9,211l-3.7-1.7l0.1-0.3c0.9,0.2,1.7,0.3,2.1,0.2c0.5-0.1,0.9-0.2,1.3-0.6c0.2-0.2,0.5-0.5,0.7-1.1
				l0.4-0.9l-10.6-4.8c-0.7-0.3-1.2-0.5-1.4-0.5c-0.2,0-0.4,0.1-0.6,0.2c-0.2,0.1-0.4,0.4-0.6,0.7l-0.2,0.4l-0.4-0.2l2.9-6.4
				l0.4,0.2l-0.2,0.4c-0.2,0.4-0.2,0.7-0.2,0.9c0,0.2,0.1,0.4,0.3,0.6c0.1,0.1,0.5,0.4,1.2,0.7l10.6,4.8l0.4-0.9
				c0.4-0.8,0.5-1.5,0.2-2.1c-0.3-0.8-0.9-1.5-1.9-2.1l0.2-0.3l3.7,1.7L74.9,211z"/>
			<path fill="#FFFFFF" d="M72.1,216.2l-5.8-2l-0.1,0.3c-0.3,0.8-0.2,1.5,0.2,2c0.4,0.6,1.2,1.1,2.3,1.6l-0.1,0.4l-7.5-2.6l0.1-0.4
				c0.8,0.2,1.6,0.3,2.2,0.2s1.1-0.2,1.3-0.5c0.3-0.3,0.5-0.7,0.8-1.3l-4-1.4c-0.8-0.3-1.3-0.4-1.5-0.4c-0.2,0-0.4,0.1-0.5,0.2
				c-0.2,0.1-0.3,0.4-0.4,0.7l-0.3,0.8c-0.4,1.2-0.4,2.2-0.1,3.2c0.4,0.9,1.1,1.8,2.3,2.5l-0.1,0.3l-4.3-2.1l3.8-10.9l0.4,0.1
				l-0.1,0.4c-0.1,0.4-0.2,0.7-0.1,1c0,0.2,0.2,0.4,0.4,0.5c0.1,0.1,0.6,0.3,1.3,0.6l9.4,3.3c0.6,0.2,1.1,0.3,1.2,0.4
				c0.3,0,0.5,0,0.7-0.1c0.3-0.2,0.5-0.5,0.6-0.9l0.1-0.4l0.4,0.1l-3.7,10.6l-4.2-1.5l0.1-0.4c1.1,0.2,1.9,0.2,2.5,0
				c0.6-0.2,1.1-0.5,1.5-1c0.2-0.3,0.5-0.9,0.9-1.9L72.1,216.2z"/>
			<path fill="#FFFFFF" d="M67.6,236.7l-5.1-1.2l0.1-0.4c1.4,0,2.5-0.2,3.4-0.8c0.9-0.6,1.5-1.4,1.7-2.4c0.2-0.8,0.1-1.6-0.2-2.4
				c-0.4-0.8-0.9-1.5-1.7-2c-1-0.7-2.2-1.2-3.5-1.5c-1.3-0.3-2.5-0.5-3.7-0.4c-1.2,0-2.1,0.3-2.8,0.8c-0.7,0.5-1.2,1.2-1.4,2.2
				c-0.2,0.8-0.2,1.6,0.1,2.4c0.2,0.8,0.8,1.7,1.6,2.7l-1.3-0.3c-0.7-0.9-1.1-1.8-1.3-2.7c-0.2-0.9-0.2-1.9,0.1-2.9
				c0.3-1.4,1-2.5,1.8-3.5c0.9-0.9,2-1.5,3.3-1.8c1.3-0.3,2.6-0.3,4,0c1.4,0.3,2.7,1,3.8,1.9c1.1,0.9,1.9,2.1,2.3,3.3
				c0.4,1.3,0.5,2.5,0.2,3.8c-0.2,0.9-0.7,1.8-1.4,2.7c-0.4,0.5-0.6,0.9-0.7,1c0,0.2,0,0.4,0.1,0.6c0.1,0.2,0.4,0.4,0.7,0.5
				L67.6,236.7z"/>
			<path fill="#FFFFFF" d="M58.5,241.7l-4.6-0.6c-0.8-0.1-1.3-0.1-1.5-0.1c-0.2,0-0.4,0.2-0.6,0.4s-0.3,0.5-0.3,0.9l-0.1,0.4
				l-0.4-0.1l0.9-6.9l0.4,0.1l-0.1,0.4c0,0.4,0,0.7,0.1,1c0.1,0.2,0.2,0.3,0.5,0.5c0.2,0.1,0.6,0.2,1.4,0.3l9.9,1.3
				c0.8,0.1,1.2,0.1,1.5,0.1c0.2,0,0.4-0.2,0.6-0.4c0.2-0.2,0.3-0.5,0.3-0.9l0.1-0.4l0.4,0.1l-0.9,6.9l-0.4-0.1l0.1-0.4
				c0-0.4,0-0.7-0.1-1c-0.1-0.2-0.2-0.3-0.5-0.5c-0.2-0.1-0.6-0.2-1.4-0.3l-4.2-0.6l-0.6,4.7l4.2,0.6c0.8,0.1,1.3,0.1,1.5,0.1
				c0.2,0,0.4-0.2,0.6-0.4c0.2-0.2,0.3-0.5,0.3-0.9l0.1-0.4l0.4,0.1l-0.9,6.9l-0.4-0.1l0.1-0.4c0-0.4,0-0.7-0.1-1
				c-0.1-0.2-0.2-0.3-0.5-0.5c-0.2-0.1-0.6-0.2-1.4-0.3l-9.9-1.3c-0.8-0.1-1.3-0.1-1.4-0.1c-0.2,0-0.4,0.2-0.6,0.4
				c-0.2,0.2-0.3,0.5-0.3,0.9l-0.1,0.4l-0.4-0.1l0.9-6.9l0.4,0.1l-0.1,0.4c0,0.4,0,0.7,0.1,1c0.1,0.2,0.2,0.3,0.5,0.5
				c0.2,0.1,0.6,0.2,1.4,0.3l4.6,0.6L58.5,241.7z"/>
			<path fill="#FFFFFF" d="M64.9,257.4l-9.5,6.4l6.5,0.2c0.9,0,1.5-0.1,1.9-0.3c0.4-0.3,0.7-0.8,0.7-1.6l0.4,0l-0.1,4.4l-0.4,0
				c-0.1-0.6-0.2-1-0.3-1.1c-0.1-0.2-0.3-0.4-0.6-0.5c-0.3-0.1-0.8-0.2-1.5-0.2l-12.6-0.3l0-0.3l12.8-8.7l-9.6-0.2
				c-0.9,0-1.5,0.1-1.8,0.5c-0.3,0.3-0.5,0.7-0.5,1.2l0,0.3l-0.4,0l0.1-4.7l0.4,0c0,0.7,0.1,1.3,0.5,1.6c0.3,0.3,0.9,0.5,1.7,0.5
				l10.7,0.3l0.4-0.3c0.4-0.3,0.7-0.5,0.8-0.7c0.1-0.2,0.2-0.5,0.2-0.9l0.4,0L64.9,257.4z"/>
			<path fill="#FFFFFF" d="M50.5,274.8l-0.4,0l-0.4-7l0.4,0l0,0.4c0,0.4,0.1,0.7,0.3,0.9c0.1,0.2,0.3,0.3,0.6,0.4
				c0.2,0.1,0.7,0.1,1.4,0l9.9-0.5c0.8,0,1.3-0.1,1.4-0.2s0.4-0.2,0.5-0.5c0.1-0.2,0.2-0.5,0.2-0.9l0-0.4l0.4,0l0.4,7l-0.4,0l0-0.4
				c0-0.4-0.1-0.7-0.3-0.9c-0.1-0.2-0.3-0.3-0.6-0.4c-0.2-0.1-0.7-0.1-1.4,0l-9.9,0.5c-0.8,0-1.3,0.1-1.4,0.2
				c-0.2,0.1-0.4,0.2-0.5,0.5c-0.1,0.2-0.2,0.5-0.2,0.9L50.5,274.8z"/>
			<path fill="#FFFFFF" d="M67.2,287.5l-5.2,0.7l0-0.4c1.3-0.5,2.3-1.1,2.9-2c0.6-0.9,0.9-1.8,0.7-2.8c-0.1-0.8-0.5-1.6-1.1-2.2
				c-0.6-0.6-1.4-1-2.3-1.2c-1.2-0.3-2.4-0.3-3.8-0.1c-1.3,0.2-2.5,0.5-3.6,0.9c-1.1,0.4-1.8,1-2.3,1.7c-0.5,0.7-0.6,1.6-0.5,2.6
				c0.1,0.8,0.4,1.6,0.9,2.2c0.5,0.6,1.3,1.3,2.4,1.9L54,289c-1-0.6-1.7-1.3-2.2-2.1s-0.8-1.7-1-2.7c-0.2-1.4,0-2.7,0.5-3.9
				c0.5-1.2,1.3-2.2,2.4-2.9c1.1-0.8,2.4-1.2,3.7-1.4c1.4-0.2,2.8,0,4.2,0.5c1.4,0.5,2.5,1.3,3.3,2.3c0.9,1,1.4,2.2,1.5,3.4
				c0.1,0.9,0,1.9-0.3,3c-0.2,0.6-0.3,1-0.2,1.2c0,0.2,0.1,0.4,0.3,0.5c0.2,0.1,0.5,0.2,0.9,0.2L67.2,287.5z"/>
			<path fill="#FFFFFF" d="M68,293.4l1.9,6.7l-0.4,0.1l-0.1-0.3c-0.1-0.5-0.3-0.8-0.5-1c-0.2-0.2-0.4-0.2-0.6-0.3
				c-0.2,0-0.8,0.1-1.6,0.3l-7.1,2c-1.3,0.4-2.1,0.7-2.5,1c-0.4,0.3-0.6,0.7-0.8,1.2c-0.2,0.5-0.2,1,0,1.6c0.2,0.7,0.5,1.2,1,1.6
				c0.5,0.4,1.1,0.6,1.8,0.7c0.7,0.1,1.8-0.1,3.4-0.5l5.9-1.6c0.6-0.2,1.1-0.4,1.3-0.6c0.2-0.2,0.4-0.4,0.5-0.6
				c0.1-0.3,0.1-0.8-0.1-1.3l0.4-0.1l1.2,4.5l-0.4,0.1l-0.1-0.3c-0.1-0.4-0.3-0.6-0.5-0.8c-0.2-0.2-0.5-0.3-0.9-0.3
				c-0.3,0-0.7,0.1-1.3,0.2l-5.5,1.5c-1.7,0.5-3,0.7-3.8,0.7c-0.8,0-1.7-0.3-2.5-0.9c-0.9-0.6-1.5-1.6-1.8-2.9
				c-0.3-1.1-0.4-2-0.2-2.7c0.2-1,0.7-1.7,1.3-2.2c0.6-0.5,1.5-1,2.7-1.3l7.1-2c0.8-0.2,1.3-0.4,1.5-0.6c0.2-0.1,0.3-0.3,0.4-0.6
				c0.1-0.2,0-0.6-0.1-1.2L68,293.4z"/>
			<path fill="#FFFFFF" d="M73.5,311.2l-6.3,9.6l6.1-2.4c0.8-0.3,1.4-0.7,1.6-1c0.3-0.5,0.3-1,0-1.7l0.4-0.2l1.6,4.1l-0.4,0.2
				c-0.3-0.5-0.5-0.8-0.7-0.9s-0.4-0.2-0.8-0.2c-0.3,0-0.8,0.1-1.5,0.4l-11.7,4.6l-0.1-0.3l8.4-13l-9,3.5c-0.8,0.3-1.3,0.7-1.4,1.1
				c-0.2,0.4-0.1,0.9,0,1.3l0.1,0.3l-0.4,0.2l-1.7-4.4l0.4-0.2c0.3,0.7,0.6,1.1,1,1.2c0.4,0.1,1,0.1,1.7-0.2l9.9-3.9l0.3-0.4
				c0.3-0.4,0.4-0.7,0.5-1c0-0.2,0-0.6-0.1-0.9l0.4-0.2L73.5,311.2z"/>
			<path fill="#FFFFFF" d="M67,332.9l-0.4,0.2l-3.1-6.3l0.4-0.2l0.2,0.4c0.2,0.3,0.4,0.6,0.6,0.7c0.2,0.1,0.4,0.2,0.7,0.1
				c0.2,0,0.6-0.2,1.3-0.5l8.9-4.3c0.7-0.3,1.1-0.6,1.3-0.7c0.1-0.1,0.2-0.4,0.3-0.6c0-0.3,0-0.6-0.2-0.9l-0.2-0.4l0.4-0.2l3.1,6.3
				l-0.4,0.2l-0.2-0.4c-0.2-0.3-0.4-0.6-0.6-0.7c-0.2-0.1-0.4-0.2-0.7-0.1c-0.2,0-0.6,0.2-1.3,0.5l-8.9,4.3
				c-0.7,0.3-1.1,0.6-1.3,0.7c-0.1,0.2-0.2,0.4-0.3,0.6c0,0.3,0,0.6,0.2,0.9L67,332.9z"/>
			<path fill="#FFFFFF" d="M87.5,339l-0.4,0.2c-0.3-0.4-0.8-0.6-1.4-0.7c-0.5-0.1-1.4,0-2.9,0.3l-12.3,1.8l-0.2-0.3l8-10
				c1-1.2,1.5-2,1.6-2.2c0.1-0.3,0.1-0.7-0.1-1.2l0.4-0.2l3.3,5.5l-0.4,0.2l-0.1-0.2c-0.3-0.5-0.6-0.8-0.8-0.9
				c-0.2-0.1-0.4-0.1-0.5,0.1c-0.1,0.1-0.2,0.2-0.4,0.3c-0.1,0.1-0.5,0.5-1,1.2l-5,6.3l7.1-1.1c0.9-0.1,1.4-0.2,1.7-0.3
				c0.3-0.1,0.5-0.2,0.7-0.3c0.2-0.1,0.3-0.3,0.4-0.4c0.1-0.2,0.1-0.4,0.1-0.6c0-0.3-0.2-0.7-0.4-1.1l0.4-0.2L87.5,339z"/>
			<path fill="#FFFFFF" d="M89.9,343.7l-5,3.6l0.2,0.2c0.5,0.7,1.1,1,1.8,1c0.7,0,1.6-0.4,2.6-1l0.2,0.3l-6.4,4.6l-0.2-0.3
				c0.6-0.6,1.1-1.1,1.4-1.6c0.3-0.5,0.4-1,0.4-1.4c0-0.4-0.3-0.8-0.6-1.3l-3.4,2.5c-0.7,0.5-1.1,0.8-1.2,1
				c-0.1,0.2-0.2,0.3-0.2,0.6c0,0.2,0.1,0.5,0.3,0.8l0.5,0.6c0.7,1,1.6,1.6,2.6,1.9c1,0.2,2.1,0.1,3.4-0.4l0.2,0.3l-4.2,2.3
				l-6.8-9.4l0.3-0.2l0.3,0.4c0.2,0.3,0.5,0.5,0.7,0.6c0.2,0.1,0.4,0.1,0.7,0c0.2,0,0.6-0.3,1.2-0.7l8-5.8c0.6-0.4,0.9-0.7,1-0.8
				c0.2-0.2,0.3-0.4,0.3-0.6c0-0.3-0.1-0.7-0.4-1l-0.3-0.4l0.3-0.2l6.6,9.1l-3.6,2.6l-0.2-0.3c0.8-0.8,1.2-1.5,1.4-2
				c0.2-0.6,0.2-1.2,0-1.8c-0.1-0.4-0.5-1-1.1-1.8L89.9,343.7z"/>
			<path fill="#FFFFFF" d="M92.4,358.8l-3.2,2.8c-0.6,0.5-1,0.9-1.1,1.1c-0.1,0.2-0.1,0.4-0.1,0.7c0.1,0.3,0.3,0.6,0.7,1.1l-0.3,0.3
				l-4.6-5.1l0.3-0.3c0.4,0.5,0.7,0.7,1,0.8s0.5,0.1,0.7,0c0.2-0.1,0.6-0.4,1.2-0.9l7.3-6.5c0.6-0.5,1-0.9,1.1-1.1
				c0.1-0.2,0.1-0.4,0.1-0.7c-0.1-0.3-0.3-0.6-0.7-1.1l0.3-0.3l4.2,4.6c1.1,1.2,1.8,2.2,2.1,2.9c0.3,0.7,0.4,1.5,0.2,2.3
				c-0.2,0.8-0.6,1.5-1.3,2.1c-0.8,0.7-1.8,1.1-2.8,1c-0.6,0-1.3-0.3-2-0.7l-1.7,5.8c-0.2,0.8-0.3,1.2-0.3,1.5c0,0.4,0.1,0.7,0.3,1
				l-0.3,0.3l-2.8-3.2l2.3-7.8L92.4,358.8z M98,353.9l-5,4.4l0.4,0.4c0.6,0.7,1.1,1.1,1.6,1.3s0.9,0.3,1.5,0.1
				c0.5-0.1,1.1-0.5,1.7-1c0.9-0.8,1.3-1.5,1.4-2.2c0.1-0.7-0.2-1.5-0.9-2.3L98,353.9z"/>
			<path fill="#FFFFFF" d="M111.7,366.2l-3.4,3.7l-0.3-0.3c0.7-1,1.1-2.1,1.1-3.2c0-1.1-0.3-1.9-1-2.5c-0.5-0.5-1-0.7-1.6-0.7
				c-0.6,0-1,0.2-1.4,0.6c-0.2,0.2-0.4,0.5-0.5,0.8c-0.1,0.4-0.1,0.8,0,1.4c0.1,0.4,0.3,1.2,0.7,2.4c0.6,1.7,0.8,3,0.6,4
				c-0.1,0.9-0.5,1.8-1.2,2.5c-0.9,0.9-1.9,1.4-3.2,1.5c-1.3,0.1-2.4-0.4-3.4-1.3c-0.3-0.3-0.6-0.6-0.8-0.9
				c-0.2-0.3-0.4-0.8-0.7-1.4c-0.1-0.3-0.3-0.6-0.4-0.7c-0.1-0.1-0.3-0.2-0.6-0.2c-0.2,0-0.5,0-0.8,0.2l-0.3-0.2l3.9-4.1l0.3,0.2
				c-0.9,1.4-1.3,2.6-1.3,3.8c0,1.2,0.4,2.1,1.1,2.7c0.5,0.5,1.1,0.7,1.8,0.7c0.6,0,1.2-0.3,1.6-0.7c0.2-0.3,0.4-0.6,0.5-0.9
				s0.1-0.8,0.1-1.2c0-0.5-0.2-1.2-0.5-2.1c-0.4-1.3-0.7-2.3-0.7-3.1c-0.1-0.7,0-1.4,0.2-2c0.2-0.6,0.5-1.2,1-1.7
				c0.8-0.9,1.8-1.3,3-1.4c1.2-0.1,2.2,0.3,3,1.1c0.3,0.3,0.6,0.6,0.8,1c0.2,0.3,0.3,0.7,0.5,1.1c0.2,0.5,0.3,0.8,0.4,0.9
				c0.1,0.1,0.3,0.2,0.4,0.1c0.2,0,0.4-0.2,0.8-0.4L111.7,366.2z"/>
			<path fill="#FFFFFF" d="M109,383.4l-0.3,0.3l-5.4-4.4l0.3-0.3l0.3,0.3c0.3,0.2,0.6,0.4,0.9,0.4c0.2,0,0.4,0,0.6-0.2
				c0.2-0.1,0.5-0.4,1-1l6.3-7.6c0.5-0.6,0.8-1,0.8-1.2c0.1-0.2,0.1-0.4,0-0.7c-0.1-0.3-0.3-0.5-0.6-0.7l-0.3-0.3l0.3-0.3l5.4,4.4
				l-0.3,0.3l-0.3-0.3c-0.3-0.2-0.6-0.4-0.9-0.4c-0.2,0-0.4,0-0.7,0.2c-0.2,0.1-0.5,0.4-1,1l-6.3,7.6c-0.5,0.6-0.8,1-0.8,1.2
				s-0.1,0.4,0,0.7c0.1,0.3,0.3,0.5,0.6,0.7L109,383.4z"/>
			<path fill="#FFFFFF" d="M128.8,379.6l-2.4,3.3l-0.3-0.2c0.4-0.9,0.6-1.6,0.6-2.1c0-0.5-0.1-1-0.3-1.4c-0.1-0.3-0.5-0.6-1-0.9
				l-0.8-0.6l-6.7,9.5c-0.4,0.6-0.7,1-0.7,1.2c0,0.2,0,0.4,0.1,0.7c0.1,0.2,0.3,0.5,0.6,0.7l0.4,0.3l-0.2,0.3l-5.8-4l0.2-0.3
				l0.4,0.3c0.3,0.2,0.6,0.3,0.9,0.3c0.2,0,0.4-0.1,0.6-0.2c0.2-0.1,0.5-0.5,0.9-1.1l6.7-9.5l-0.8-0.6c-0.7-0.5-1.4-0.7-2-0.6
				c-0.8,0.2-1.6,0.6-2.4,1.5l-0.3-0.2l2.4-3.3L128.8,379.6z"/>
			<path fill="#FFFFFF" d="M141.6,386.9l-0.2,0.4c-0.4-0.2-0.8-0.2-1.1-0.1c-0.4,0.1-1.3,0.6-2.6,1.4l-5.2,3.3l-1.8,3.2
				c-0.4,0.7-0.6,1.1-0.6,1.3c0,0.2,0,0.4,0.1,0.6c0.1,0.2,0.3,0.4,0.6,0.6l0.7,0.4l-0.2,0.4l-6.6-3.7l0.2-0.4l0.6,0.3
				c0.3,0.2,0.7,0.3,0.9,0.3c0.2,0,0.4-0.1,0.6-0.3c0.2-0.1,0.4-0.5,0.8-1.2l1.5-2.6l0.4-7.2c0.1-1.4,0.1-2.3,0-2.6
				s-0.4-0.6-0.7-0.8l0.2-0.4l5.6,3.2l-0.2,0.4l-0.2-0.1c-0.3-0.2-0.6-0.3-0.8-0.2c-0.2,0-0.3,0.1-0.4,0.2c-0.1,0.2-0.2,0.9-0.3,2.1
				l-0.3,5.5l4.4-2.8c1.1-0.7,1.7-1.2,1.9-1.5c0.1-0.2,0.1-0.4,0-0.6c-0.1-0.3-0.4-0.6-0.9-0.9l0.2-0.4L141.6,386.9z"/>
		</g>
		<g>
			<path fill="#FFFFFF" d="M149.4,397.2c0.1-0.4,0.2-0.7,0.3-0.9c0-0.2,0-0.6,0-1.1c0-0.5,0-0.9,0.1-1.1c0.1-0.3,0.3-0.6,0.6-0.7
				c0.3-0.2,0.6-0.2,0.8-0.1c0.3,0.1,0.5,0.3,0.6,0.6c0.1,0.3,0.1,0.6-0.1,1c-0.1,0.3-0.3,0.6-0.7,0.9s-0.6,0.6-0.7,0.8
				c-0.1,0.2-0.3,0.5-0.5,0.9c0.4,0,0.7-0.1,0.9-0.1c0.2-0.1,0.5-0.2,0.9-0.4c0.6-0.3,1-0.4,1.4-0.2c0.3,0.1,0.5,0.3,0.6,0.6
				c0.1,0.3,0.1,0.5,0,0.8c-0.1,0.3-0.3,0.5-0.7,0.6c-0.3,0.1-0.7,0.1-1,0c-0.1,0-0.3-0.1-0.6-0.3c-0.1-0.1-0.3-0.1-0.5-0.2
				c-0.2-0.1-0.6-0.2-1.1-0.4c0.1,0.4,0.2,0.8,0.3,0.9c0.1,0.2,0.3,0.5,0.6,0.8c0.3,0.3,0.5,0.7,0.5,1c0,0.2,0,0.5-0.1,0.7
				c-0.1,0.3-0.3,0.5-0.6,0.6c-0.3,0.1-0.5,0.1-0.8,0c-0.3-0.1-0.5-0.3-0.6-0.7c-0.1-0.3-0.1-0.8,0.1-1.5c0.1-0.4,0.2-0.7,0.2-0.9
				c0-0.2,0-0.5,0-1c-0.3,0.3-0.6,0.5-0.7,0.7c-0.1,0.2-0.3,0.4-0.5,0.8c-0.3,0.6-0.6,1-0.9,1.1c-0.3,0.2-0.6,0.2-0.9,0.1
				c-0.3-0.1-0.4-0.3-0.5-0.5c-0.1-0.3-0.1-0.5,0-0.8c0.1-0.3,0.3-0.5,0.5-0.6c0.2-0.2,0.6-0.3,1-0.4c0.5-0.1,0.8-0.2,1-0.2
				c0.2-0.1,0.5-0.2,0.9-0.4l-1-0.4c-0.2-0.1-0.3-0.1-0.5-0.2c-0.4-0.1-0.6-0.2-0.8-0.3c-0.4-0.1-0.6-0.4-0.7-0.7
				c-0.1-0.3-0.1-0.6,0-0.9c0.1-0.3,0.3-0.5,0.6-0.6c0.3-0.1,0.5-0.1,0.8,0c0.4,0.2,0.7,0.5,0.9,1.1c0.2,0.6,0.3,0.9,0.4,1
				C149,396.7,149.1,396.9,149.4,397.2z"/>
			<path fill="#FFFFFF" d="M168.4,405.9l5.9-8.7l5.4,1.3l-0.1,0.4l-0.4-0.1c-0.4-0.1-0.7-0.1-1,0c-0.2,0.1-0.4,0.2-0.5,0.4
				c-0.1,0.2-0.3,0.6-0.4,1.3l-2.4,9.6c-0.2,0.7-0.3,1.2-0.2,1.4c0,0.2,0.1,0.4,0.3,0.6c0.2,0.2,0.5,0.3,0.8,0.4l0.4,0.1l-0.1,0.4
				l-6.9-1.7l0.1-0.4l0.4,0.1c0.4,0.1,0.7,0.1,1,0c0.2-0.1,0.4-0.2,0.5-0.4c0.1-0.2,0.3-0.6,0.4-1.3l2.7-10.8l-8.3,12l-0.2-0.1
				l-1.9-14.4l-2.5,10.2c-0.2,0.7-0.3,1.2-0.3,1.3c0,0.4,0.1,0.7,0.3,1c0.2,0.3,0.6,0.5,1.2,0.7l-0.1,0.4l-4.5-1.1l0.1-0.4l0.1,0
				c0.3,0.1,0.6,0.1,0.9,0c0.3,0,0.5-0.2,0.7-0.3c0.2-0.2,0.3-0.4,0.5-0.7c0-0.1,0.1-0.4,0.3-1.1l2.3-9.2c0.2-0.7,0.3-1.2,0.2-1.4
				c0-0.2-0.1-0.4-0.3-0.6c-0.2-0.2-0.5-0.3-0.8-0.4l-0.4-0.1l0.1-0.4l5.4,1.3L168.4,405.9z"/>
			<path fill="#FFFFFF" d="M188.3,410.2l-4.8-0.5l-0.7,1.4c-0.2,0.5-0.4,0.9-0.4,1.2c0,0.4,0.1,0.7,0.4,1c0.2,0.1,0.6,0.3,1.3,0.4
				l0,0.4l-4.5-0.5l0-0.4c0.5,0,0.9-0.2,1.3-0.5c0.4-0.3,0.8-1,1.4-2.1l6.1-11.4l0.2,0l3.5,12.7c0.3,1.2,0.6,2,0.9,2.3
				c0.2,0.3,0.5,0.4,0.9,0.5l0,0.4l-6.5-0.7l0-0.4l0.3,0c0.5,0.1,0.9,0,1.1-0.1c0.2-0.1,0.2-0.3,0.3-0.5c0-0.1,0-0.3,0-0.4
				c0-0.1-0.1-0.4-0.2-0.9L188.3,410.2z M188.1,409.3l-1.4-5.3l-2.6,4.9L188.1,409.3z"/>
			<path fill="#FFFFFF" d="M210.3,399.8l0.1,5.2l-0.4,0c-0.3-1.4-0.9-2.4-1.7-3.1c-0.8-0.7-1.7-1.1-2.7-1c-0.8,0-1.6,0.3-2.3,0.8
				c-0.7,0.5-1.2,1.3-1.5,2.1c-0.4,1.1-0.6,2.4-0.6,3.7c0,1.3,0.2,2.6,0.5,3.7c0.3,1.1,0.8,1.9,1.5,2.5c0.7,0.6,1.5,0.8,2.6,0.8
				c0.9,0,1.6-0.2,2.3-0.7c0.7-0.4,1.4-1.1,2.2-2.2l0,1.3c-0.7,0.9-1.5,1.5-2.3,1.9c-0.8,0.4-1.8,0.6-2.9,0.6
				c-1.4,0-2.7-0.3-3.9-0.9c-1.1-0.6-2-1.5-2.6-2.7c-0.6-1.2-1-2.5-1-3.8c0-1.4,0.3-2.8,0.9-4.1c0.7-1.3,1.6-2.3,2.7-3
				s2.4-1.1,3.6-1.1c1,0,2,0.2,3,0.6c0.6,0.3,1,0.4,1.2,0.4c0.2,0,0.4-0.1,0.6-0.3c0.2-0.2,0.3-0.5,0.3-0.8L210.3,399.8z"/>
			<path fill="#FFFFFF" d="M222.5,409.8l-4.8,0.6l-0.4,1.5c-0.1,0.5-0.2,0.9-0.1,1.2c0,0.4,0.2,0.7,0.6,0.9c0.2,0.1,0.6,0.1,1.4,0.1
				l0,0.4l-4.5,0.5l0-0.4c0.5-0.1,0.8-0.4,1.1-0.8c0.3-0.4,0.6-1.2,0.9-2.4L220,399l0.2,0l6.3,11.6c0.6,1.1,1.1,1.8,1.4,2
				c0.3,0.2,0.6,0.3,1,0.3l0,0.4l-6.5,0.8l0-0.4l0.3,0c0.5-0.1,0.9-0.2,1.1-0.4c0.1-0.1,0.2-0.3,0.2-0.5c0-0.1-0.1-0.3-0.1-0.4
				c0-0.1-0.2-0.3-0.4-0.8L222.5,409.8z M222,409l-2.6-4.9l-1.5,5.4L222,409z"/>
			<path fill="#FFFFFF" d="M229.1,398.1l6.8-1.6l0.1,0.4l-0.3,0.1c-0.5,0.1-0.8,0.3-1,0.4c-0.2,0.2-0.3,0.4-0.3,0.6
				c0,0.2,0.1,0.8,0.3,1.6l1.7,7.1c0.3,1.3,0.6,2.1,0.9,2.5c0.3,0.4,0.7,0.7,1.1,0.8c0.5,0.2,1,0.2,1.6,0.1c0.7-0.2,1.3-0.5,1.7-1
				c0.4-0.5,0.7-1.1,0.8-1.7c0.1-0.7,0-1.8-0.4-3.3l-1.4-5.9c-0.2-0.7-0.3-1.1-0.5-1.4c-0.2-0.3-0.4-0.4-0.6-0.5
				c-0.3-0.1-0.8-0.1-1.3,0l-0.1-0.4l4.6-1.1l0.1,0.4l-0.3,0.1c-0.4,0.1-0.7,0.2-0.9,0.5s-0.3,0.5-0.4,0.9c0,0.3,0,0.7,0.2,1.3
				l1.3,5.5c0.4,1.7,0.6,3,0.6,3.8s-0.4,1.6-1,2.5c-0.6,0.8-1.6,1.4-3,1.7c-1.1,0.3-2.1,0.3-2.8,0.1c-1-0.3-1.7-0.7-2.2-1.3
				c-0.5-0.6-0.9-1.6-1.2-2.8l-1.7-7.1c-0.2-0.8-0.4-1.3-0.5-1.5c-0.1-0.2-0.3-0.3-0.6-0.4c-0.2-0.1-0.6,0-1.2,0.1L229.1,398.1z"/>
			<path fill="#FFFFFF" d="M254.5,398.6c-0.2-0.4-0.3-0.7-0.5-0.9c-0.1-0.2-0.4-0.5-0.7-0.8c-0.4-0.4-0.6-0.7-0.7-0.9
				c-0.1-0.3-0.1-0.6,0-1c0.1-0.3,0.3-0.5,0.5-0.6c0.3-0.1,0.5-0.1,0.8,0.1c0.3,0.2,0.5,0.4,0.6,0.8c0.1,0.3,0.1,0.7,0.1,1.1
				c0,0.5,0,0.8,0,1.1c0,0.2,0.1,0.6,0.2,1c0.3-0.3,0.5-0.5,0.6-0.7c0.1-0.2,0.2-0.5,0.4-0.9c0.2-0.6,0.5-1,0.9-1.1
				c0.3-0.1,0.5-0.1,0.8,0c0.3,0.1,0.4,0.3,0.6,0.6c0.1,0.3,0.1,0.6,0,0.9c-0.1,0.3-0.4,0.5-0.8,0.7c-0.1,0-0.4,0.1-0.7,0.2
				c-0.2,0-0.3,0.1-0.5,0.2c-0.2,0.1-0.6,0.2-1,0.4c0.4,0.2,0.7,0.4,0.9,0.5c0.2,0.1,0.5,0.1,1,0.2c0.4,0.1,0.8,0.2,1,0.4
				c0.2,0.1,0.3,0.3,0.4,0.6c0.1,0.3,0.1,0.6,0,0.9c-0.1,0.3-0.3,0.5-0.5,0.5c-0.3,0.1-0.6,0.1-0.9-0.1s-0.6-0.5-0.9-1.1
				c-0.2-0.4-0.4-0.7-0.5-0.8c-0.1-0.2-0.4-0.4-0.7-0.7c-0.1,0.4-0.1,0.8-0.1,1c0,0.2,0.1,0.5,0.1,0.9c0.2,0.7,0.2,1.1,0.1,1.5
				c-0.1,0.3-0.3,0.5-0.6,0.6c-0.3,0.1-0.5,0.1-0.8,0c-0.3-0.1-0.4-0.3-0.5-0.6c-0.1-0.3-0.1-0.5-0.1-0.8c0.1-0.3,0.2-0.6,0.5-1
				c0.3-0.4,0.5-0.6,0.6-0.8c0.1-0.2,0.2-0.5,0.4-0.9l-1,0.3c-0.2,0.1-0.3,0.1-0.5,0.2c-0.4,0.2-0.6,0.3-0.7,0.3
				c-0.4,0.1-0.7,0.1-1,0c-0.3-0.1-0.5-0.4-0.6-0.7c-0.1-0.3-0.1-0.6,0-0.8c0.1-0.3,0.3-0.5,0.6-0.6c0.4-0.1,0.8-0.1,1.4,0.2
				s0.8,0.4,1,0.5C253.8,398.5,254.1,398.5,254.5,398.6z"/>
		</g>
	</g>
	<g>
		<polygon fill="#FFFFFF" points="187.6,185.9 188.9,192.7 192.1,192.1 190.9,185.3 		"/>
		<polygon fill="#FFFFFF" points="190.2,200.2 193.5,199.6 192.9,196.6 189.7,197.2 		"/>
		<polygon fill="#FFFFFF" points="174.4,189.7 176.8,196.2 179.9,195 177.5,188.6 		"/>
		<polygon fill="#FFFFFF" points="179.4,203.3 182.5,202.2 181.5,199.3 178.4,200.5 		"/>
		<polygon fill="#FFFFFF" points="162.1,195.8 165.5,201.7 168.4,200 164.9,194.1 		"/>
		<polygon fill="#FFFFFF" points="169.3,208.3 172.2,206.6 170.7,204 167.8,205.6 		"/>
		<polygon fill="#FFFFFF" points="150.9,203.8 155.4,209.1 157.9,207 153.5,201.7 		"/>
		<polygon fill="#FFFFFF" points="160.3,214.9 162.8,212.8 160.9,210.5 158.3,212.6 		"/>
		<polygon fill="#FFFFFF" points="141.4,213.7 146.7,218.1 148.8,215.6 143.5,211.2 		"/>
		<polygon fill="#FFFFFF" points="152.6,223 154.7,220.5 152.3,218.5 150.2,221 		"/>
		<polygon fill="#FFFFFF" points="133.7,225.1 139.7,228.5 141.4,225.6 135.4,222.2 		"/>
		<polygon fill="#FFFFFF" points="146.3,232.3 148,229.4 145.3,227.9 143.7,230.8 		"/>
		<polygon fill="#FFFFFF" points="128.2,237.6 134.6,239.9 135.8,236.8 129.3,234.5 		"/>
		<polygon fill="#FFFFFF" points="141.9,242.5 143,239.4 140.1,238.4 139,241.5 		"/>
		
			<rect x="126.9" y="246.4" transform="matrix(0.1722 -0.9851 0.9851 0.1722 -139.6834 333.4324)" fill="#FFFFFF" width="3.3" height="6.9"/>
		<polygon fill="#FFFFFF" points="139.2,253.4 139.8,250.1 136.8,249.6 136.2,252.8 		"/>
		<rect x="123.9" y="261.2" fill="#FFFFFF" width="6.9" height="3.3"/>
		<rect x="135.5" y="261.2" fill="#FFFFFF" width="3.1" height="3.3"/>
		<polygon fill="#FFFFFF" points="125.4,278.1 132.2,276.9 131.7,273.7 124.9,274.8 		"/>
		<polygon fill="#FFFFFF" points="139.8,275.6 139.2,272.3 136.2,272.9 136.8,276.1 		"/>
		<polygon fill="#FFFFFF" points="129.3,291.2 135.8,288.9 134.6,285.8 128.1,288.1 		"/>
		<polygon fill="#FFFFFF" points="143,286.3 141.8,283.2 139,284.2 140.1,287.3 		"/>
		<polygon fill="#FFFFFF" points="135.4,303.5 141.3,300.1 139.7,297.2 133.7,300.6 		"/>
		<polygon fill="#FFFFFF" points="148,296.3 146.3,293.4 143.7,294.9 145.3,297.8 		"/>
		<polygon fill="#FFFFFF" points="143.5,314.5 148.8,310.1 146.6,307.6 141.4,312 		"/>
		<polygon fill="#FFFFFF" points="154.7,305.2 152.5,302.7 150.2,304.7 152.3,307.2 		"/>
		<polygon fill="#FFFFFF" points="153.4,324 157.9,318.8 155.3,316.6 150.9,321.9 		"/>
		<polygon fill="#FFFFFF" points="162.8,312.9 160.3,310.8 158.3,313.1 160.8,315.3 		"/>
		<polygon fill="#FFFFFF" points="164.9,331.6 168.3,325.7 165.5,324 162,330 		"/>
		<polygon fill="#FFFFFF" points="172.2,319.1 169.3,317.4 167.8,320.1 170.7,321.7 		"/>
		<polygon fill="#FFFFFF" points="177.5,337.1 179.9,330.7 176.7,329.6 174.4,336 		"/>
		<polygon fill="#FFFFFF" points="182.5,323.5 179.4,322.4 178.3,325.3 181.4,326.4 		"/>
		
			<rect x="186.4" y="335.1" transform="matrix(0.1742 -0.9847 0.9847 0.1742 -174.808 465.028)" fill="#FFFFFF" width="6.9" height="3.3"/>
		<polygon fill="#FFFFFF" points="193.4,326.1 190.1,325.6 189.6,328.6 192.9,329.1 		"/>
		<rect x="201.3" y="334.4" fill="#FFFFFF" width="3.3" height="6.9"/>
		<rect x="201.3" y="326.8" fill="#FFFFFF" width="3.3" height="3"/>
		<polygon fill="#FFFFFF" points="218.3,339.8 217.1,333.1 213.9,333.7 215.1,340.4 		"/>
		<polygon fill="#FFFFFF" points="215.8,325.6 212.5,326.2 213.1,329.2 216.3,328.6 		"/>
		<polygon fill="#FFFFFF" points="231.6,336 229.2,329.6 226.1,330.7 228.4,337.2 		"/>
		<polygon fill="#FFFFFF" points="226.6,322.4 223.5,323.6 224.5,326.4 227.6,325.3 		"/>
		<polygon fill="#FFFFFF" points="243.9,330 240.5,324 237.6,325.7 241.1,331.6 		"/>
		<polygon fill="#FFFFFF" points="236.7,317.5 233.8,319.1 235.3,321.7 238.2,320.1 		"/>
		<polygon fill="#FFFFFF" points="255.1,321.9 250.6,316.7 248.1,318.8 252.5,324 		"/>
		<polygon fill="#FFFFFF" points="245.7,310.8 243.2,312.9 245.1,315.3 247.7,313.2 		"/>
		<polygon fill="#FFFFFF" points="264.6,312 259.3,307.6 257.2,310.2 262.5,314.6 		"/>
		<polygon fill="#FFFFFF" points="253.4,302.7 251.3,305.3 253.7,307.2 255.8,304.7 		"/>
		<polygon fill="#FFFFFF" points="272.3,300.7 266.3,297.3 264.6,300.1 270.6,303.5 		"/>
		<polygon fill="#FFFFFF" points="259.6,293.4 258,296.3 260.6,297.8 262.3,295 		"/>
		<polygon fill="#FFFFFF" points="277.8,288.2 271.4,285.8 270.2,288.9 276.7,291.3 		"/>
		<polygon fill="#FFFFFF" points="264.1,283.2 263,286.3 265.9,287.4 267,284.3 		"/>
		
			<rect x="275.8" y="272.5" transform="matrix(0.1721 -0.9851 0.9851 0.1721 -42.1053 501.7435)" fill="#FFFFFF" width="3.3" height="6.9"/>
		<polygon fill="#FFFFFF" points="266.8,272.4 266.2,275.6 269.2,276.2 269.8,272.9 		"/>
		<rect x="275.1" y="261.2" fill="#FFFFFF" width="6.9" height="3.3"/>
		<polygon fill="#FFFFFF" points="267.5,261.2 267.5,264.5 270.5,264.5 270.5,261.2 		"/>
		
			<rect x="274" y="248.2" transform="matrix(0.9849 -0.1729 0.1729 0.9849 -39.0336 51.7485)" fill="#FFFFFF" width="6.9" height="3.3"/>
		<polygon fill="#FFFFFF" points="266.2,250.2 266.8,253.4 269.8,252.9 269.2,249.6 		"/>
		<polygon fill="#FFFFFF" points="276.7,234.5 270.2,236.9 271.4,240 277.9,237.6 		"/>
		<polygon fill="#FFFFFF" points="263,239.5 264.2,242.6 267,241.5 265.9,238.4 		"/>
		<polygon fill="#FFFFFF" points="270.6,222.2 264.7,225.7 266.3,228.5 272.3,225.1 		"/>
		<polygon fill="#FFFFFF" points="258,229.5 259.7,232.3 262.3,230.8 260.7,228 		"/>
		<polygon fill="#FFFFFF" points="262.5,211.2 257.2,215.6 259.3,218.1 264.6,213.7 		"/>
		<polygon fill="#FFFFFF" points="251.3,220.5 253.5,223 255.8,221.1 253.7,218.6 		"/>
		<polygon fill="#FFFFFF" points="252.5,201.7 248.1,207 250.7,209.1 255.1,203.9 		"/>
		<polygon fill="#FFFFFF" points="243.2,212.8 245.7,214.9 247.7,212.6 245.2,210.5 		"/>
		<polygon fill="#FFFFFF" points="241.1,194.1 237.6,200.1 240.5,201.7 244,195.8 		"/>
		<polygon fill="#FFFFFF" points="233.8,206.7 236.7,208.3 238.2,205.7 235.3,204 		"/>
		<polygon fill="#FFFFFF" points="228.5,188.6 226.1,195.1 229.3,196.2 231.6,189.7 		"/>
		<polygon fill="#FFFFFF" points="223.5,202.2 226.6,203.3 227.7,200.5 224.6,199.3 		"/>
		<polygon fill="#FFFFFF" points="215.1,185.3 213.9,192.1 217.2,192.7 218.4,185.9 		"/>
		
			<rect x="213" y="196.7" transform="matrix(0.1723 -0.985 0.985 0.1723 -17.8854 375.4815)" fill="#FFFFFF" width="3" height="3.3"/>
		<rect x="201.4" y="184.4" fill="#FFFFFF" width="3.3" height="6.9"/>
		<rect x="201.4" y="195.9" fill="#FFFFFF" width="3.3" height="3"/>
	</g>
	<path fill="#00683D" d="M97.4,424.9l-3.7-2.4l0.2-0.3c0.5,0.4,1,0.7,1.4,0.1c0.1-0.2,0.3-0.8,0.3-1.1l0.3-1.8l-3.8-2.4l-1.8,1.3
		c-0.2,0.1-0.3,0.3-0.5,0.5c-0.4,0.6,0.3,1.1,0.6,1.2l-0.2,0.3l-2.8-1.8l0.2-0.3c0.2,0.1,0.5,0.3,0.9,0.1c0.6-0.1,1.7-0.9,2.4-1.4
		l7.6-5.1l0.3,0.2l-1.7,10.5c-0.2,1.3-0.1,1.6,0.5,2.1L97.4,424.9z M96.1,418.8l0.9-5l-4.2,2.9L96.1,418.8z"/>
	<path fill="#00683D" d="M104.2,415.8l4.1,2.6c1.3,0.8,3.7,2.6,2.3,4.9c-1,1.6-2.5,1.1-3.3,0.9l0,0c1.1,1.1,1.8,2.5,0.9,4
		c-0.4,0.6-1.9,2.4-5.1,0.3l-4.9-3.1l0.2-0.3c1.2,0.7,1.6,0.6,2.2-0.4l4.1-6.4c0.7-1.1,0.6-1.4-0.6-2.2L104.2,415.8z M101.7,426
		c-0.3,0.5-0.1,0.8,0.7,1.3c1,0.6,2.8,1.6,4.1-0.4c0.7-1.2,0.3-2.1-0.3-2.8c-0.4-0.5-0.8-0.8-2.2-1.7L101.7,426z M104.4,421.9
		l1.4,0.8c0.4,0.3,2.1,1.3,3.2-0.4c1.1-1.7-0.2-3-1.3-3.6c-0.3-0.2-0.5-0.3-0.6-0.4c-0.3-0.2-0.4,0-0.6,0.2L104.4,421.9z"/>
	<path fill="#00683D" d="M123.3,430.1l-0.4-0.2c0.5-1.3,0.3-3.2-1.2-4.2c-0.7-0.4-1.8-0.4-2.3,0.5c-1.3,2.2,3.4,5.5,1.6,8.5
		c-0.8,1.2-2.6,2-4.7,0.8c-1.1-0.7-1.5-1.6-2-1.9c-0.3-0.2-0.6,0-0.8,0.2l-0.3-0.2l1.4-3.4l0.3,0.2c-0.1,0.9-0.5,3.2,1.4,4.4
		c1.2,0.7,2.3,0.2,2.8-0.5c0.5-0.8,0.6-1.5-0.8-4.1c-0.9-1.6-1.4-2.8-0.5-4.3c1-1.7,2.8-1.7,4.2-0.9c0.9,0.5,1.4,1.5,1.8,1.7
		c0.4,0.3,0.7,0,0.8-0.2l0.3,0.2L123.3,430.1z"/>
	<path fill="#00683D" d="M133.9,435.1c0.3-1.8-0.3-3.6-2.2-4.4c-0.8-0.3-1.8-0.4-2.8-0.1c-0.9,0.3-2,1-3,3.3
		c-1.5,3.3-0.2,5.5,1.8,6.4c1.9,0.8,3.6,0.2,4.2,0l0.2,0.4c0,0-2.3,1.4-5.1,0.1c-2.5-1.1-4.6-3.8-2.9-7.7c1.6-3.5,5-4.3,7.8-3.1
		c1.4,0.6,2.2,1.6,2.5,1.7c0.1,0,0.6,0.3,1-0.2l0.3,0.1l-1.4,3.6L133.9,435.1z"/>
	<path fill="#00683D" d="M133,442.6c1.4,0.4,1.7,0.2,2.1-0.9l2.5-7.2c0.4-1.2,0.3-1.5-1.1-2l0.1-0.3l4.8,1.6l-0.1,0.3
		c-1.2-0.4-1.6-0.4-2.1,0.9l-2.5,7.2c-0.4,1.3-0.1,1.6,1.1,2l-0.1,0.3l-4.9-1.6L133,442.6z"/>
	<path fill="#00683D" d="M147.6,447.4l-9-2.5l0.1-0.3c1.1,0.2,1.5,0.2,1.8-1.1l2.1-7.3c0.3-1.3,0-1.5-1-1.9l0.1-0.3l8.8,2.5
		l-0.6,2.4l-0.4-0.1c0.2-1.5-0.2-1.9-2-2.5l-2.2-0.6c-0.3-0.1-0.5-0.2-0.7,0.4l-1,3.7l2.5,0.7c1.5,0.4,1.8,0.1,2.3-1.1l0.4,0.1
		l-1.1,3.8l-0.4-0.1c0.2-1.4,0-1.7-1.4-2.1l-2.5-0.8l-1.2,4.1c-0.2,0.7-0.2,0.7,2.3,1.4c2.1,0.6,3.1,0.3,4.3-1.1l0.5,0.1
		L147.6,447.4z"/>
	<path fill="#00683D" d="M163.3,439.6c-1.1-0.1-1.6-0.1-2,1.8l-1.9,8.8l-0.3-0.1l-5.4-10.8h0l-1.4,6.5c-0.4,1.7-0.1,2.2,1.1,2.5
		l-0.1,0.3l-3.9-0.8l0-0.3c1.3,0.2,1.7,0,2.1-1.8l1.6-7.4c-0.5-1-0.8-1.1-1.4-1.3l0.1-0.3l2.9,0.6l4.7,9.4l0,0l1.2-5.6
		c0.4-1.9,0-2.2-1.1-2.5l0.1-0.3l4,0.9L163.3,439.6z"/>
	<path fill="#00683D" d="M169.3,451.8l-5-0.9l0-0.3c1.6,0.2,1.7-0.2,1.9-1.4l1.4-8.4l-0.9-0.2c-1.9-0.3-2.4-0.1-3.1,1.7l-0.4-0.1
		l0.6-2.8l9.6,1.6l-0.4,2.9l-0.4-0.1c-0.1-1.9-0.5-2.3-2.3-2.6l-0.9-0.2l-1.5,8.6c-0.2,1.1-0.1,1.5,1.3,1.8L169.3,451.8z"/>
	<path fill="#00683D" d="M172.5,452c1.5,0.2,1.7-0.1,1.9-1.3l1.1-7.6c0.2-1.3,0-1.5-1.4-1.7l0-0.3l5.1,0.7l0,0.3
		c-1.2-0.1-1.7-0.1-1.9,1.3l-1,7.5c-0.2,1.3,0.2,1.5,1.4,1.8l0,0.3l-5.1-0.7L172.5,452z"/>
	<path fill="#00683D" d="M190.3,454.3l-4.4-0.4l0-0.3c0.6,0.1,1.2,0.1,1.3-0.5c0-0.3-0.1-0.9-0.2-1.1l-0.5-1.7l-4.5-0.4l-1,1.9
		c-0.1,0.2-0.2,0.5-0.2,0.6c-0.1,0.7,0.7,0.8,1.1,0.8l-0.1,0.3l-3.4-0.3v-0.3c0.3,0,0.6,0,0.9-0.3c0.4-0.4,1.1-1.6,1.5-2.3l4.4-8
		l0.3,0l3.3,10.1c0.4,1.3,0.7,1.5,1.4,1.6L190.3,454.3z M186.3,449.5l-1.5-4.9l-2.4,4.5L186.3,449.5z"/>
	<path fill="#00683D" d="M207.7,454.6l-4.4-0.1v-0.3c0.6,0,1.2,0,1.3-0.6c0-0.3-0.2-0.8-0.3-1.1l-0.7-1.7l-4.5-0.1l-0.8,2
		c-0.1,0.2-0.2,0.5-0.2,0.6c0,0.7,0.8,0.7,1.1,0.7v0.3l-3.4-0.1l0-0.3c0.3,0,0.6,0,0.9-0.4c0.4-0.4,1-1.7,1.3-2.4l3.8-8.3l0.3,0
		l4,9.8c0.5,1.3,0.8,1.5,1.5,1.5V454.6z M203.4,450.1l-1.9-4.8l-2.1,4.7L203.4,450.1z"/>
	<path fill="#00683D" d="M208.8,454.3c1.3-0.1,1.5-0.4,1.4-1.6l-0.2-7.6c0-1.3-0.2-1.4-1.6-1.5v-0.3l4.6-0.1c4.1-0.1,7,1.6,7.1,5.5
		c0.1,2.3-1.2,5.7-6.5,5.9l-4.9,0.2V454.3z M212,453.2c0,0.6,0.2,0.7,1.1,0.7c1.1,0,5.3-0.2,5.2-5.1c0-1.5-0.5-2.8-1.7-3.9
		c-0.9-0.7-1.8-1.1-4-1.1c-0.8,0-0.8,0.4-0.8,0.7L212,453.2z"/>
	<path fill="#00683D" d="M236.6,441.4c-0.8,0.1-1,0.4-1.4,1.8l-2.6,10l-0.2,0l-5.4-8.8c-0.9-1.5-1.2-1.6-2-1.5l0-0.3l4.6-0.6l0,0.3
		c-1,0.2-1.3,0.3-1.2,0.8c0,0.3,0.4,0.9,0.9,1.7l3.3,5.4l1.7-6.6c0-0.1,0.2-0.9,0.2-1.2c-0.1-0.7-0.7-0.7-1.4-0.6l0-0.3l3.5-0.4
		L236.6,441.4z"/>
	<path fill="#00683D" d="M248.3,450.2l-9.1,1.9l-0.1-0.3c1.1-0.3,1.4-0.5,1.2-1.8l-1.6-7.4c-0.3-1.3-0.7-1.3-1.8-1.2l-0.1-0.3l9-1.9
		l0.5,2.4l-0.4,0.1c-0.6-1.4-1.1-1.6-2.9-1.2l-2.3,0.5c-0.3,0.1-0.6,0.1-0.4,0.7l0.8,3.7l2.6-0.6c1.5-0.3,1.6-0.7,1.5-2l0.4-0.1
		l0.8,3.9l-0.4,0.1c-0.5-1.3-0.8-1.5-2.2-1.2l-2.6,0.5l0.9,4.2c0.1,0.7,0.1,0.7,2.7,0.2c2.1-0.4,2.8-1.1,3.2-3l0.5-0.1L248.3,450.2z
		"/>
	<path fill="#00683D" d="M261,446.4l-2.7,0.8l-5.5-3.8l-0.9,0.3l1,3.2c0.3,1.1,0.6,1.4,1.9,1l0.1,0.3l-4.5,1.4l-0.1-0.3
		c1.3-0.5,1.2-0.9,0.9-2.1l-2.2-7.1c-0.4-1.2-0.7-1.3-1.9-1.1l-0.1-0.3l4.6-1.4c1.5-0.5,4.3-1,5.1,1.6c0.7,2.2-1.3,3.2-2.1,3.7
		l4.7,3.1c0.5,0.3,1,0.5,1.7,0.3L261,446.4z M251.7,443.1c1.4-0.4,3.8-1.2,3.1-3.6c-0.7-2.2-2.8-1.6-3.5-1.4c-0.9,0.3-1,0.4-0.8,0.9
		L251.7,443.1z"/>
	<path fill="#00683D" d="M261.2,445.9c1.4-0.4,1.5-0.8,1.2-1.9l-2-7.3c-0.3-1.2-0.6-1.4-2-1.1l-0.1-0.3l5-1.3l0.1,0.3
		c-1.2,0.4-1.6,0.6-1.2,1.9l2,7.3c0.3,1.3,0.8,1.4,2,1.1l0.1,0.3l-5,1.3L261.2,445.9z"/>
	<path fill="#00683D" d="M274.4,442.4l-4.8,1.6l-0.1-0.3c1.5-0.6,1.4-0.9,1-2.1l-2.7-8.2l-0.9,0.3c-1.8,0.6-2.1,1-1.9,2.9l-0.4,0.1
		l-0.8-2.8l9.3-3l1,2.7l-0.4,0.1c-0.9-1.7-1.5-1.8-3.3-1.2l-0.9,0.3l2.7,8.3c0.3,1.1,0.6,1.3,2,1L274.4,442.4z"/>
	<path fill="#00683D" d="M289,436.2l-4,1.8l-0.1-0.3c0.6-0.3,1.1-0.5,0.8-1.1c-0.1-0.3-0.5-0.7-0.7-0.8l-1.3-1.2l-4.1,1.9l0.1,2.2
		c0,0.2,0.1,0.5,0.2,0.7c0.3,0.7,1,0.3,1.4,0.2l0.1,0.3l-3.1,1.4l-0.1-0.3c0.2-0.1,0.5-0.3,0.6-0.7c0.2-0.5,0.2-1.9,0.1-2.7
		l-0.2-9.1l0.3-0.2l8,7.1c1,0.9,1.3,1,2,0.7L289,436.2z M283.1,434l-3.8-3.5l0.2,5.1L283.1,434z"/>
	<path fill="#00683D" d="M296.6,432l-4.4,2.4l-0.2-0.3c1.4-0.8,1.2-1.2,0.6-2.3l-4.2-7.5l-0.8,0.4c-1.7,0.9-1.9,1.4-1.3,3.2
		l-0.4,0.2l-1.3-2.6l8.5-4.7l1.5,2.5l-0.4,0.2c-1.2-1.5-1.8-1.5-3.5-0.6l-0.8,0.5l4.3,7.7c0.6,1,0.9,1.2,2.2,0.6L296.6,432z"/>
	<path fill="#00683D" d="M307.5,425.5l-8,4.8l-0.2-0.3c0.9-0.6,1.2-1,0.5-2.1l-4-6.5c-0.7-1.1-1.1-1-2.1-0.5l-0.2-0.3l7.8-4.8
		l1.3,2.1l-0.4,0.2c-1-1.2-1.5-1.2-3.2-0.2l-2,1.2c-0.3,0.2-0.5,0.3-0.2,0.8l2,3.3l2.3-1.4c1.3-0.8,1.2-1.2,0.8-2.4l0.3-0.2l2.1,3.4
		l-0.3,0.2c-0.9-1.1-1.2-1.1-2.5-0.4l-2.3,1.4l2.2,3.6c0.4,0.6,0.4,0.6,2.6-0.7c1.8-1.1,2.3-2,2-3.9l0.4-0.2L307.5,425.5z"/>
	<path fill="#00683D" d="M314.8,407.4c-0.8,0.7-1.1,1-0.4,2.1l4.3,6.3c0.7,1.1,1.1,1,2.1,0.5l0.2,0.3l-4,2.7l-0.2-0.3
		c1.1-0.8,1.1-1.2,0.4-2.3l-4.3-6.4l0,0l1.9,10.5l-0.2,0.1l-8.8-5.4l0,0l3.8,5.7c1,1.5,1.5,1.6,2.6,0.9l0.2,0.3l-3.4,2.2l-0.2-0.3
		c1-0.8,1.2-1.2,0.1-2.7l-3.9-5.8c-0.8-1.1-1.1-1-2.2-0.4l-0.2-0.3l2.8-1.9l8.1,5l-1.7-9.3l2.9-1.9L314.8,407.4z"/>
	<g>
		<g>
			<g>
				<path fill="#00683D" d="M374,399.9c-9.7-0.8-20.3-1.8-24.2-2.6c1.8-3.3,8.9-11.7,18.5-20.7l4.4-4.2l-6,0.8
					c-21.4,2.9-40.7,16.1-45.5,19.7c-0.1,0-0.2-0.1-0.3-0.1c-2-0.7-5.1-0.9-8.9,2.3c-12.6,10.6-48,35.7-105.4,38.5
					c-1.2,0.1-2.5,0.1-3.7,0.1c-1.2,0-2.5-0.1-3.7-0.1c-57.3-2.8-92.8-27.9-105.4-38.5c-3.8-3.2-6.9-3-8.9-2.3
					c-0.1,0-0.2,0.1-0.3,0.1c-4.8-3.5-24.1-16.8-45.5-19.7l-6-0.8l4.4,4.2c9.6,9.1,16.6,17.5,18.5,20.7c-3.8,0.7-14.5,1.8-24.2,2.6
					l-8.6,0.7l8,3.1c0.4,0.1,38.1,15,54.1,37.9c0.7,1,1.6,1.4,2.5,1.4c0.3,0,0.6-0.1,0.9-0.1c2.2-0.7,3.4-4.1,3.3-7
					c-0.1-4-2.3-6.9-6-7.9c-0.3-0.1-0.9-0.3-1.5-0.6c1.2,0.1,2.8,0.5,4.5,1.8c1.8,1.4,45.1,34,113.6,36.1l0.3,0c0.1,0,0.2,0,0.3,0
					c67.3-2,109-32.6,113.6-36.1c1.7-1.3,3.3-1.7,4.5-1.8c-0.6,0.3-1.2,0.5-1.6,0.6c-3.7,1-5.9,4-6,7.9c-0.1,2.8,1.1,6.2,3.3,7
					c0.3,0.1,0.6,0.1,0.9,0.1c0.8,0,1.7-0.4,2.5-1.4c16-22.9,53.8-37.7,54.1-37.9l8-3.1L374,399.9z M79.4,428.5
					c-12.9-12.2-29.7-21-39.3-25.4c17.8-1.6,19-2.5,19.4-2.9c0.6-0.4,0.9-1.1,1-1.8c0.2-3.5-8.9-13.5-15.6-20.2
					c16.6,3.9,31.2,13.4,36.5,17.1c0,0-0.1,0.1-0.1,0.1c-0.1,0.1-0.2,0.3-0.4,0.4c-2,2.5-3.2,5.9-3.6,8.5
					c-0.9,5.4,1.4,16.3,2.3,20.2c-0.9,0.7-1,1.6-1,2.1C78.7,427.4,79,428,79.4,428.5z M88.1,434.7c0.3,1.3,0.1,2.6-0.2,3.5
					c-2.3-3.1-4.8-6-7.6-8.7c1.9,1.5,4.8,2.2,4.8,2.2C86.8,432.1,87.7,433.1,88.1,434.7z M314.5,426c-1.8,1.4-44.1,33.3-111.2,35.2
					l-0.2,0l-0.2,0c-67.2-2-109.5-33.9-111.3-35.2c-2.8-2.1-5.5-2.6-7.5-2.6c-0.2,0-0.4,0-0.6,0c-1.1-4.9-2.8-14.1-2.1-18.3
					c0.3-1.7,0.9-3.6,1.8-5.2c0-0.1,0.1-0.1,0.1-0.2c0.2-0.3,0.3-0.6,0.5-0.8c0.1-0.1,0.1-0.2,0.2-0.3c0.2-0.2,0.3-0.4,0.5-0.6
					c0.1-0.1,0.2-0.2,0.3-0.3c0.2-0.2,0.3-0.3,0.5-0.5c0.1-0.1,0.2-0.2,0.3-0.3c0.3-0.2,0.6-0.4,0.9-0.5c1.4-0.5,3.1,0,5,1.6
					c12.9,10.9,49.2,36.5,107.7,39.4c1.3,0.1,2.5,0.1,3.8,0.2l0.1,0l0.1,0c1.3,0,2.6-0.1,3.8-0.2c58.5-2.9,94.8-28.5,107.7-39.4
					c1.9-1.6,3.6-2.1,5-1.6c0.3,0.1,0.5,0.3,0.8,0.4c0.2,0.1,0.4,0.3,0.6,0.5c0.1,0.1,0.2,0.2,0.3,0.2c0.2,0.2,0.3,0.3,0.5,0.5
					c0.1,0.1,0.2,0.2,0.3,0.4c0.1,0.2,0.2,0.3,0.4,0.5c0.1,0.2,0.3,0.4,0.4,0.6c0.1,0.1,0.2,0.3,0.2,0.4c0.2,0.3,0.3,0.6,0.5,1
					c0,0,0,0.1,0.1,0.1c0.6,1.3,1,2.7,1.2,4c0.7,4.2-1,13.4-2.1,18.3C320.7,423.3,317.6,423.6,314.5,426z M318,438.1
					c-0.3-0.9-0.5-2.2-0.2-3.4c0.4-1.6,1.4-2.6,2.9-3c0,0,2.8-0.7,4.8-2.2C322.8,432.2,320.3,435.1,318,438.1z M326.7,428.4
					c0.4-0.5,0.6-1,0.6-1.6c0-0.5-0.1-1.4-1-2.1c0.9-3.9,3.1-14.8,2.2-20.2c-0.3-1.7-0.9-3.6-1.7-5.4c-0.1-0.1-0.1-0.2-0.2-0.3
					c-0.1-0.1-0.1-0.2-0.2-0.4c-0.6-1.1-1.2-2.1-2-3c5.3-3.7,19.9-13.2,36.5-17.1c-6.7,6.7-15.8,16.7-15.5,20.2c0,0.8,0.4,1.4,1,1.8
					c0.4,0.3,1.7,1.3,19.5,2.9C356.4,407.5,339.6,416.3,326.7,428.4z"/>
			</g>
		</g>
		<g>
			<path fill="#231815" d="M97.4,424.9l-3.7-2.4l0.2-0.3c0.5,0.4,1,0.7,1.4,0.1c0.1-0.2,0.3-0.8,0.3-1.1l0.3-1.8l-3.8-2.4l-1.8,1.3
				c-0.2,0.1-0.3,0.3-0.5,0.5c-0.4,0.6,0.3,1.1,0.6,1.2l-0.2,0.3l-2.8-1.8l0.2-0.3c0.2,0.1,0.5,0.3,0.9,0.1c0.6-0.1,1.7-0.9,2.4-1.4
				l7.6-5.1l0.3,0.2l-1.7,10.5c-0.2,1.3-0.1,1.6,0.5,2.1L97.4,424.9z M96.1,418.8l0.9-5l-4.2,2.9L96.1,418.8z"/>
			<path fill="#231815" d="M104.2,415.8l4.1,2.6c1.3,0.8,3.7,2.6,2.3,4.9c-1,1.6-2.5,1.1-3.3,0.9l0,0c1.1,1.1,1.8,2.5,0.9,4
				c-0.4,0.6-1.9,2.4-5.1,0.3l-4.9-3.1l0.2-0.3c1.2,0.7,1.6,0.6,2.2-0.4l4.1-6.4c0.7-1.1,0.6-1.4-0.6-2.2L104.2,415.8z M101.7,426
				c-0.3,0.5-0.1,0.8,0.7,1.3c1,0.6,2.8,1.6,4.1-0.4c0.7-1.2,0.3-2.1-0.3-2.8c-0.4-0.5-0.8-0.8-2.2-1.7L101.7,426z M104.4,421.9
				l1.4,0.8c0.4,0.3,2.1,1.3,3.2-0.4c1.1-1.7-0.2-3-1.3-3.6c-0.3-0.2-0.5-0.3-0.6-0.4c-0.3-0.2-0.4,0-0.6,0.2L104.4,421.9z"/>
			<path fill="#231815" d="M123.3,430.1l-0.4-0.2c0.5-1.3,0.3-3.2-1.2-4.2c-0.7-0.4-1.8-0.4-2.3,0.5c-1.3,2.2,3.4,5.5,1.6,8.5
				c-0.8,1.2-2.6,2-4.7,0.8c-1.1-0.7-1.5-1.6-2-1.9c-0.3-0.2-0.6,0-0.8,0.2l-0.3-0.2l1.4-3.4l0.3,0.2c-0.1,0.9-0.5,3.2,1.4,4.4
				c1.2,0.7,2.3,0.2,2.8-0.5c0.5-0.8,0.6-1.5-0.8-4.1c-0.9-1.6-1.4-2.8-0.5-4.3c1-1.7,2.8-1.7,4.2-0.9c0.9,0.5,1.4,1.5,1.8,1.7
				c0.4,0.3,0.7,0,0.8-0.2l0.3,0.2L123.3,430.1z"/>
			<path fill="#231815" d="M133.9,435.1c0.3-1.8-0.3-3.6-2.2-4.4c-0.8-0.3-1.8-0.4-2.8-0.1c-0.9,0.3-2,1-3,3.3
				c-1.5,3.3-0.2,5.5,1.8,6.4c1.9,0.8,3.6,0.2,4.2,0l0.2,0.4c0,0-2.3,1.4-5.1,0.1c-2.5-1.1-4.6-3.8-2.9-7.7c1.6-3.5,5-4.3,7.8-3.1
				c1.4,0.6,2.2,1.6,2.5,1.7c0.1,0,0.6,0.3,1-0.2l0.3,0.1l-1.4,3.6L133.9,435.1z"/>
			<path fill="#231815" d="M133,442.6c1.4,0.4,1.7,0.2,2.1-0.9l2.5-7.2c0.4-1.2,0.3-1.5-1.1-2l0.1-0.3l4.8,1.6l-0.1,0.3
				c-1.2-0.4-1.6-0.4-2.1,0.9l-2.5,7.2c-0.4,1.3-0.1,1.6,1.1,2l-0.1,0.3l-4.9-1.6L133,442.6z"/>
			<path fill="#231815" d="M147.6,447.4l-9-2.5l0.1-0.3c1.1,0.2,1.5,0.2,1.8-1.1l2.1-7.3c0.3-1.3,0-1.5-1-1.9l0.1-0.3l8.8,2.5
				l-0.6,2.4l-0.4-0.1c0.2-1.5-0.2-1.9-2-2.5l-2.2-0.6c-0.3-0.1-0.5-0.2-0.7,0.4l-1,3.7l2.5,0.7c1.5,0.4,1.8,0.1,2.3-1.1l0.4,0.1
				l-1.1,3.8l-0.4-0.1c0.2-1.4,0-1.7-1.4-2.1l-2.5-0.8l-1.2,4.1c-0.2,0.7-0.2,0.7,2.3,1.4c2.1,0.6,3.1,0.3,4.3-1.1l0.5,0.1
				L147.6,447.4z"/>
			<path fill="#231815" d="M163.3,439.6c-1.1-0.1-1.6-0.1-2,1.8l-1.9,8.8l-0.3-0.1l-5.4-10.8h0l-1.4,6.5c-0.4,1.7-0.1,2.2,1.1,2.5
				l-0.1,0.3l-3.9-0.8l0-0.3c1.3,0.2,1.7,0,2.1-1.8l1.6-7.4c-0.5-1-0.8-1.1-1.4-1.3l0.1-0.3l2.9,0.6l4.7,9.4l0,0l1.2-5.6
				c0.4-1.9,0-2.2-1.1-2.5l0.1-0.3l4,0.9L163.3,439.6z"/>
			<path fill="#231815" d="M169.3,451.8l-5-0.9l0-0.3c1.6,0.2,1.7-0.2,1.9-1.4l1.4-8.4l-0.9-0.2c-1.9-0.3-2.4-0.1-3.1,1.7l-0.4-0.1
				l0.6-2.8l9.6,1.6l-0.4,2.9l-0.4-0.1c-0.1-1.9-0.5-2.3-2.3-2.6l-0.9-0.2l-1.5,8.6c-0.2,1.1-0.1,1.5,1.3,1.8L169.3,451.8z"/>
			<path fill="#231815" d="M172.5,452c1.5,0.2,1.7-0.1,1.9-1.3l1.1-7.6c0.2-1.3,0-1.5-1.4-1.7l0-0.3l5.1,0.7l0,0.3
				c-1.2-0.1-1.7-0.1-1.9,1.3l-1,7.5c-0.2,1.3,0.2,1.5,1.4,1.8l0,0.3l-5.1-0.7L172.5,452z"/>
			<path fill="#231815" d="M190.3,454.3l-4.4-0.4l0-0.3c0.6,0.1,1.2,0.1,1.3-0.5c0-0.3-0.1-0.9-0.2-1.1l-0.5-1.7l-4.5-0.4l-1,1.9
				c-0.1,0.2-0.2,0.5-0.2,0.6c-0.1,0.7,0.7,0.8,1.1,0.8l-0.1,0.3l-3.4-0.3v-0.3c0.3,0,0.6,0,0.9-0.3c0.4-0.4,1.1-1.6,1.5-2.3l4.4-8
				l0.3,0l3.3,10.1c0.4,1.3,0.7,1.5,1.4,1.6L190.3,454.3z M186.3,449.5l-1.5-4.9l-2.4,4.5L186.3,449.5z"/>
			<path fill="#231815" d="M207.7,454.6l-4.4-0.1v-0.3c0.6,0,1.2,0,1.3-0.6c0-0.3-0.2-0.8-0.3-1.1l-0.7-1.7l-4.5-0.1l-0.8,2
				c-0.1,0.2-0.2,0.5-0.2,0.6c0,0.7,0.8,0.7,1.1,0.7v0.3l-3.4-0.1l0-0.3c0.3,0,0.6,0,0.9-0.4c0.4-0.4,1-1.7,1.3-2.4l3.8-8.3l0.3,0
				l4,9.8c0.5,1.3,0.8,1.5,1.5,1.5V454.6z M203.4,450.1l-1.9-4.8l-2.1,4.7L203.4,450.1z"/>
			<path fill="#231815" d="M208.8,454.3c1.3-0.1,1.5-0.4,1.4-1.6l-0.2-7.6c0-1.3-0.2-1.4-1.6-1.5v-0.3l4.6-0.1
				c4.1-0.1,7,1.6,7.1,5.5c0.1,2.3-1.2,5.7-6.5,5.9l-4.9,0.2V454.3z M212,453.2c0,0.6,0.2,0.7,1.1,0.7c1.1,0,5.3-0.2,5.2-5.1
				c0-1.5-0.5-2.8-1.7-3.9c-0.9-0.7-1.8-1.1-4-1.1c-0.8,0-0.8,0.4-0.8,0.7L212,453.2z"/>
			<path fill="#231815" d="M236.6,441.4c-0.8,0.1-1,0.4-1.4,1.8l-2.6,10l-0.2,0l-5.4-8.8c-0.9-1.5-1.2-1.6-2-1.5l0-0.3l4.6-0.6
				l0,0.3c-1,0.2-1.3,0.3-1.2,0.8c0,0.3,0.4,0.9,0.9,1.7l3.3,5.4l1.7-6.6c0-0.1,0.2-0.9,0.2-1.2c-0.1-0.7-0.7-0.7-1.4-0.6l0-0.3
				l3.5-0.4L236.6,441.4z"/>
			<path fill="#231815" d="M248.3,450.2l-9.1,1.9l-0.1-0.3c1.1-0.3,1.4-0.5,1.2-1.8l-1.6-7.4c-0.3-1.3-0.7-1.3-1.8-1.2l-0.1-0.3
				l9-1.9l0.5,2.4l-0.4,0.1c-0.6-1.4-1.1-1.6-2.9-1.2l-2.3,0.5c-0.3,0.1-0.6,0.1-0.4,0.7l0.8,3.7l2.6-0.6c1.5-0.3,1.6-0.7,1.5-2
				l0.4-0.1l0.8,3.9l-0.4,0.1c-0.5-1.3-0.8-1.5-2.2-1.2l-2.6,0.5l0.9,4.2c0.1,0.7,0.1,0.7,2.7,0.2c2.1-0.4,2.8-1.1,3.2-3l0.5-0.1
				L248.3,450.2z"/>
			<path fill="#231815" d="M261,446.4l-2.7,0.8l-5.5-3.8l-0.9,0.3l1,3.2c0.3,1.1,0.6,1.4,1.9,1l0.1,0.3l-4.5,1.4l-0.1-0.3
				c1.3-0.5,1.2-0.9,0.9-2.1l-2.2-7.1c-0.4-1.2-0.7-1.3-1.9-1.1l-0.1-0.3l4.6-1.4c1.5-0.5,4.3-1,5.1,1.6c0.7,2.2-1.3,3.2-2.1,3.7
				l4.7,3.1c0.5,0.3,1,0.5,1.7,0.3L261,446.4z M251.7,443.1c1.4-0.4,3.8-1.2,3.1-3.6c-0.7-2.2-2.8-1.6-3.5-1.4
				c-0.9,0.3-1,0.4-0.8,0.9L251.7,443.1z"/>
			<path fill="#231815" d="M261.2,445.9c1.4-0.4,1.5-0.8,1.2-1.9l-2-7.3c-0.3-1.2-0.6-1.4-2-1.1l-0.1-0.3l5-1.3l0.1,0.3
				c-1.2,0.4-1.6,0.6-1.2,1.9l2,7.3c0.3,1.3,0.8,1.4,2,1.1l0.1,0.3l-5,1.3L261.2,445.9z"/>
			<path fill="#231815" d="M274.4,442.4l-4.8,1.6l-0.1-0.3c1.5-0.6,1.4-0.9,1-2.1l-2.7-8.2l-0.9,0.3c-1.8,0.6-2.1,1-1.9,2.9
				l-0.4,0.1l-0.8-2.8l9.3-3l1,2.7l-0.4,0.1c-0.9-1.7-1.5-1.8-3.3-1.2l-0.9,0.3l2.7,8.3c0.3,1.1,0.6,1.3,2,1L274.4,442.4z"/>
			<path fill="#231815" d="M289,436.2l-4,1.8l-0.1-0.3c0.6-0.3,1.1-0.5,0.8-1.1c-0.1-0.3-0.5-0.7-0.7-0.8l-1.3-1.2l-4.1,1.9l0.1,2.2
				c0,0.2,0.1,0.5,0.2,0.7c0.3,0.7,1,0.3,1.4,0.2l0.1,0.3l-3.1,1.4l-0.1-0.3c0.2-0.1,0.5-0.3,0.6-0.7c0.2-0.5,0.2-1.9,0.1-2.7
				l-0.2-9.1l0.3-0.2l8,7.1c1,0.9,1.3,1,2,0.7L289,436.2z M283.1,434l-3.8-3.5l0.2,5.1L283.1,434z"/>
			<path fill="#231815" d="M296.6,432l-4.4,2.4l-0.2-0.3c1.4-0.8,1.2-1.2,0.6-2.3l-4.2-7.5l-0.8,0.4c-1.7,0.9-1.9,1.4-1.3,3.2
				l-0.4,0.2l-1.3-2.6l8.5-4.7l1.5,2.5l-0.4,0.2c-1.2-1.5-1.8-1.5-3.5-0.6l-0.8,0.5l4.3,7.7c0.6,1,0.9,1.2,2.2,0.6L296.6,432z"/>
			<path fill="#231815" d="M307.5,425.5l-8,4.8l-0.2-0.3c0.9-0.6,1.2-1,0.5-2.1l-4-6.5c-0.7-1.1-1.1-1-2.1-0.5l-0.2-0.3l7.8-4.8
				l1.3,2.1l-0.4,0.2c-1-1.2-1.5-1.2-3.2-0.2l-2,1.2c-0.3,0.2-0.5,0.3-0.2,0.8l2,3.3l2.3-1.4c1.3-0.8,1.2-1.2,0.8-2.4l0.3-0.2
				l2.1,3.4l-0.3,0.2c-0.9-1.1-1.2-1.1-2.5-0.4l-2.3,1.4l2.2,3.6c0.4,0.6,0.4,0.6,2.6-0.7c1.8-1.1,2.3-2,2-3.9l0.4-0.2L307.5,425.5z
				"/>
			<path fill="#231815" d="M314.8,407.4c-0.8,0.7-1.1,1-0.4,2.1l4.3,6.3c0.7,1.1,1.1,1,2.1,0.5l0.2,0.3l-4,2.7l-0.2-0.3
				c1.1-0.8,1.1-1.2,0.4-2.3l-4.3-6.4l0,0l1.9,10.5l-0.2,0.1l-8.8-5.4l0,0l3.8,5.7c1,1.5,1.5,1.6,2.6,0.9l0.2,0.3l-3.4,2.2l-0.2-0.3
				c1-0.8,1.2-1.2,0.1-2.7l-3.9-5.8c-0.8-1.1-1.1-1-2.2-0.4l-0.2-0.3l2.8-1.9l8.1,5l-1.7-9.3l2.9-1.9L314.8,407.4z"/>
		</g>
	</g>
</g>
<g>
</g>
<g>
</g>
<g>
</g>
<g>
</g>
<g>
</g>
<g>
</g>
<g>
</g>
<g>
</g>
<g>
</g>
<g>
</g>
<g>
</g>
<g>
</g>
<g>
</g>
<g>
</g>
<g>
</g>
</svg>
